<?xml version="1.0" standalone="no"?>
<!DOCTYPE svg PUBLIC "-//W3C//DTD SVG 1.1//EN" "http://www.w3.org/Graphics/SVG/1.1/DTD/svg11.dtd" >
<svg xmlns="http://www.w3.org/2000/svg">
<metadata></metadata>
<defs>
<font id="sansaboldregular" horiz-adv-x="625" >
<font-face units-per-em="1000" ascent="800" descent="-200" />
<missing-glyph horiz-adv-x="266" />
<glyph unicode="&#xd;" horiz-adv-x="266" />
<glyph unicode=" "  horiz-adv-x="266" />
<glyph unicode="&#x09;" horiz-adv-x="266" />
<glyph unicode="&#xa0;" horiz-adv-x="266" />
<glyph unicode="!" horiz-adv-x="328" d="M78 750h172l-12 -500h-148zM78 172h172v-172h-172v172z" />
<glyph unicode="&#x22;" horiz-adv-x="523" d="M289 750h172l-16 -203h-140zM63 750h171l-15 -203h-141z" />
<glyph unicode="#" horiz-adv-x="719" d="M156 141h-125v140h125v188h-125v140h125v141h141v-141h125v141h141v-141h125v-140h-125v-188h125v-140h-125v-141h-141v141h-125v-141h-141v141zM422 281v188h-125v-188h125z" />
<glyph unicode="$" d="M230 -7q-43 4 -92 13.5t-83 20.5v145h8q16 -5 40.5 -10.5t52 -10t56.5 -7.5t54 -3h39q47 0 78 17.5t31 64.5q0 35 -26 52t-60 26l-117 31q-32 8 -60.5 24t-49.5 41.5t-33.5 61.5t-12.5 84q0 51 17.5 89t48.5 64t73 41t91 19v111h125v-111q37 -3 78 -10t67 -16v-144h-8 q-15 4 -38 8t-48.5 7.5t-49.5 5.5t-40 2h-35q-21 0 -39.5 -2.5t-32.5 -10t-22 -20t-8 -33.5q0 -16 5.5 -27.5t15.5 -20t22.5 -13.5t27.5 -9l117 -32q85 -23 128.5 -75t43.5 -143q0 -57 -17.5 -98t-49 -68.5t-75.5 -43t-97 -19.5v-119h-125v118z" />
<glyph unicode="%" horiz-adv-x="1031" d="M250 328q-103 0 -153 50t-50 161q0 112 50 161.5t153 49.5t153 -49.5t50 -161.5q0 -111 -50 -161t-153 -50zM297 16l355 734h82v-16l-355 -734h-82v16zM781 0q-102 0 -152.5 50t-50.5 161t50.5 161t152.5 50q103 0 153 -50t50 -161t-50 -161t-153 -50zM250 414 q41 0 55.5 27.5t14.5 97.5q0 35 -3 59t-11 38.5t-21.5 21t-34.5 6.5t-34.5 -6.5t-21.5 -21t-11 -38.5t-3 -59q0 -70 14.5 -97.5t55.5 -27.5zM781 86q41 0 56 27.5t15 97.5q0 35 -3.5 59t-11.5 38.5t-21.5 21t-34.5 6.5q-20 0 -33.5 -6.5t-21.5 -21t-11.5 -38.5t-3.5 -59 q0 -70 15 -97.5t55 -27.5z" />
<glyph unicode="&#x26;" horiz-adv-x="703" d="M344 -8q-63 0 -115 12t-88.5 38.5t-57 70t-20.5 106.5q0 29 9 57t25.5 51.5t39.5 41t51 26.5q-41 20 -69.5 58t-28.5 102q0 54 22.5 92.5t60 63t87 36t103.5 11.5h20q18 0 42.5 -2t50 -6t49 -9t38.5 -11v-144h-8q-16 5 -38 9t-45 7t-46.5 5t-42.5 2h-20q-22 0 -40.5 -4 t-32 -13t-21 -24t-7.5 -37q0 -38 22 -58t60 -20h312v-140h-62v-278q-19 -7 -48 -14.5t-62.5 -14t-69.5 -10.5t-70 -4zM344 141q17 0 41.5 2.5t36.5 4.5v165h-78q-51 0 -80.5 -20t-29.5 -70q0 -24 8.5 -39.5t23 -25t34.5 -13.5t44 -4z" />
<glyph unicode="'" horiz-adv-x="297" d="M63 750h171l-15 -203h-141z" />
<glyph unicode="(" horiz-adv-x="438" d="M227 -125q-86 62 -133 172t-47 250v31q0 140 47 250t133 172h148v-16q-47 -41 -77 -88.5t-47.5 -99.5t-24.5 -107t-7 -111v-31q0 -56 7 -111t24.5 -107t47.5 -99.5t77 -88.5v-16h-148v0z" />
<glyph unicode=")" horiz-adv-x="438" d="M63 -109q47 41 77 88.5t47.5 99.5t24.5 107t7 111v31q0 56 -7 111t-24.5 107t-47.5 99.5t-77 88.5v16h148q85 -62 132.5 -172t47.5 -250v-31q0 -140 -47.5 -250t-132.5 -172h-148v16z" />
<glyph unicode="*" horiz-adv-x="500" d="M195 449l-97 -56l-55 93l98 57l-98 57l55 93l97 -56v113h110v-113l97 56l55 -93l-99 -57l99 -57l-55 -93l-97 56v-113h-110v113z" />
<glyph unicode="+" d="M242 297h-148v141h148v148h141v-148h148v-141h-148v-149h-141v149z" />
<glyph unicode="," horiz-adv-x="328" d="M78 172h172v-63l-129 -234h-121z" />
<glyph unicode="-" horiz-adv-x="406" d="M31 438h344v-141h-344v141z" />
<glyph unicode="." horiz-adv-x="328" d="M78 172h172v-172h-172v172z" />
<glyph unicode="/" horiz-adv-x="582" d="M31 -109l364 859h156v-16l-363 -859h-157v16z" />
<glyph unicode="0" d="M313 -8q-70 0 -123 20.5t-88.5 66t-53 118.5t-17.5 178q0 108 17.5 181.5t53 118.5t88.5 64t123 19t122.5 -19t88 -64t53 -118.5t17.5 -181.5q0 -105 -17.5 -178t-53 -118.5t-88 -66t-122.5 -20.5zM313 141q32 0 53 10.5t33.5 36.5t17.5 71.5t5 115.5q0 71 -5 116 t-17.5 71.5t-33.5 36.5t-53 10t-53.5 -10t-34 -36.5t-17.5 -71.5t-5 -116q0 -70 5 -115.5t17.5 -71.5t34 -36.5t53.5 -10.5z" />
<glyph unicode="1" d="M266 563l-180 -71h-8v156l250 102h110v-750h-172v563z" />
<glyph unicode="2" d="M55 117q0 38 7 69t23.5 59t43.5 53.5t66 53.5l102 70q10 7 23.5 17t25.5 24t20.5 31t8.5 37q0 42 -25 56.5t-84 14.5h-188v148h235q112 0 173 -55.5t61 -155.5q0 -44 -11.5 -76t-33 -57.5t-52 -48t-67.5 -48.5l-86 -59q-27 -18 -45 -40t-18 -54v-8h329v-148h-508v117z " />
<glyph unicode="3" d="M78 148h219q47 0 78 19.5t31 66.5t-31 63t-78 16h-141v125h162q29 17 51 41.5t22 55.5q0 41 -26.5 54t-67.5 13h-211v148h227q54 0 100 -7.5t79 -28t52 -55.5t19 -89q0 -40 -23.5 -83t-71.5 -76q52 -19 81 -60.5t29 -116.5q0 -55 -20 -98.5t-55.5 -73.5t-84 -46 t-105.5 -16h-235v148z" />
<glyph unicode="4" d="M355 121h-308v113q29 59 52.5 126t41 135.5t29.5 134t18 120.5h187q-17 -130 -57 -252t-99 -228h136v136h172v-136h67v-149h-67v-121h-172v121z" />
<glyph unicode="5" d="M63 148h218q56 0 90.5 19.5t34.5 74.5q0 29 -11 46t-30 26t-44.5 11.5t-54.5 2.5h-188v422h469v-148h-305v-125h67q62 0 111.5 -13.5t84.5 -42.5t54 -73t19 -106q0 -64 -22 -110t-62 -75.5t-94 -43t-119 -13.5h-218v148z" />
<glyph unicode="6" d="M305 -8q-59 0 -106.5 17t-81.5 49.5t-52 79t-18 104.5v211q0 73 25 128.5t70 93t106.5 56.5t134.5 19h140v-148h-164q-29 0 -54.5 -8.5t-44.5 -24.5t-30 -39.5t-11 -52.5v-10q29 14 60 19.5t65 5.5q117 0 175.5 -66.5t58.5 -183.5q0 -60 -20 -106.5t-56.5 -78.5 t-86.5 -48.5t-110 -16.5zM313 141q93 0 93 101q0 51 -20 80.5t-73 29.5q-23 0 -47 -3.5t-47 -11.5v-95q0 -47 23 -74t71 -27z" />
<glyph unicode="7" d="M172 94q0 79 17 153t46 139t67.5 120t80.5 96h-320v148h500v-109q-47 -53 -87 -110t-69.5 -123t-46 -143t-16.5 -171v-94h-172v94z" />
<glyph unicode="8" d="M301 -8q-60 0 -108.5 11.5t-82.5 38t-52.5 68t-18.5 101.5q0 50 24.5 89.5t61.5 66.5l28 21q-45 26 -71.5 68.5t-26.5 102.5q0 53 21 90.5t55.5 61.5t78.5 35.5t91 11.5h23q56 0 101.5 -10.5t77.5 -33.5t49.5 -61t17.5 -94q0 -21 -6 -41.5t-16 -40t-22.5 -35.5t-25.5 -28 l-21 -19q51 -28 79 -73t28 -111q0 -53 -21.5 -94t-58 -68.5t-84 -42t-98.5 -14.5h-23v0zM375 469q31 34 31 78q0 32 -25 47t-57 15h-23q-32 0 -57 -15t-25 -47q0 -19 6 -31t16.5 -20.5t25 -14.5t30.5 -12l57 -23zM324 141q42 0 66 20t24 58q0 23 -7.5 38.5t-20 26.5 t-28.5 18t-34 14l-52 21l-30 -32q-17 -19 -24 -41t-7 -45q0 -42 24 -60t66 -18h23z" />
<glyph unicode="9" d="M102 148h164q29 0 54.5 8.5t44.5 24.5t30 39.5t11 52.5v2q-29 -14 -60 -19.5t-65 -5.5q-117 0 -175.5 66.5t-58.5 183.5q0 60 20 106.5t56.5 78.5t86.5 48.5t110 16.5q59 0 106.5 -17t81.5 -49.5t52 -78.5t18 -105v-203q0 -73 -25 -128.5t-69.5 -93t-106 -56.5 t-135.5 -19h-140v148zM313 391q23 0 46.5 3t46.5 11v95q0 48 -23 75t-70 27q-48 0 -71 -26t-23 -76q0 -49 20.5 -79t73.5 -30z" />
<glyph unicode=":" horiz-adv-x="328" d="M78 547h172v-172h-172v172zM78 172h172v-172h-172v172z" />
<glyph unicode=";" horiz-adv-x="328" d="M78 547h172v-172h-172v172zM78 172h172v-63l-129 -234h-121z" />
<glyph unicode="&#x3c;" d="M94 305v125l429 222h8v-160l-261 -125l261 -125v-160h-8z" />
<glyph unicode="=" d="M94 547h437v-141h-437v141zM94 305h437v-141h-437v141z" />
<glyph unicode="&#x3e;" d="M94 242l261 125l-261 125v160h8l429 -222v-125l-429 -223h-8v160z" />
<glyph unicode="?" horiz-adv-x="520" d="M129 281l133 157q27 31 40.5 55.5t13.5 53.5q0 19 -9.5 30t-25.5 16.5t-37 7t-45 1.5h-136v148h218q207 0 207 -172q0 -38 -20 -84t-70 -103l-97 -114v-27h-172v31zM129 172h172v-172h-172v172z" />
<glyph unicode="@" horiz-adv-x="922" d="M473 -102q-100 0 -179 30t-134 85.5t-84 135.5t-29 179q0 97 31.5 176t88.5 135.5t137 87.5t176 31q88 0 161 -22t125 -66t80.5 -110t28.5 -154q0 -60 -19.5 -106.5t-55 -78.5t-85.5 -48.5t-110 -16.5h-140q-88 0 -136 42t-48 130q0 42 13 77t37 59.5t58 38t76 13.5h144 v-274h12q32 0 55 13.5t37.5 36t21.5 52.5t7 62q0 123 -69 182.5t-193 59.5q-72 0 -127.5 -23t-94 -65t-58.5 -101t-20 -131q0 -70 19.5 -129t56.5 -101.5t92 -66t125 -23.5q22 0 46 1.5t47.5 4t45.5 6t40 7.5h8v-105q-18 -6 -41 -10.5t-48 -7.5t-50.5 -4.5t-47.5 -1.5z M500 242v188h-35q-21 0 -35 -8t-22.5 -22t-12.5 -32.5t-4 -39.5q0 -38 18 -62t56 -24h35z" />
<glyph unicode="A" horiz-adv-x="750" d="M31 8q12 50 22.5 90t21 76.5t20.5 71.5t22 74q18 60 40 126.5t44 126.5t41 107.5t31 69.5h211q12 -22 31.5 -69.5t41.5 -107.5t44 -126.5t40 -126.5q12 -39 22 -74t20.5 -71.5t21 -76.5t22.5 -90v-8h-188q-8 35 -17 77t-20 87h-260q-11 -45 -21 -87t-18 -77h-172v8z M465 313q-13 49 -25.5 95.5t-24.5 86t-22 70t-18 48.5q-7 -18 -17.5 -48.5t-22.5 -70t-25.5 -86t-27.5 -95.5h183z" />
<glyph unicode="B" horiz-adv-x="680" d="M78 750h305q108 0 171 -47.5t63 -155.5q0 -48 -19.5 -87t-70.5 -65q48 -18 77 -60t29 -105q0 -120 -65 -175t-185 -55h-305v750zM359 445q38 0 58.5 22t20.5 60q0 75 -79 75h-109v-157h109zM359 148q51 0 72.5 18t21.5 68q0 47 -23.5 63t-70.5 16h-109v-165h109z" />
<glyph unicode="C" horiz-adv-x="672" d="M398 -8q-83 0 -149.5 22.5t-113 66t-71.5 107.5t-25 148v78q0 82 28 146t77.5 108t118.5 67t151 23q28 0 57 -2t57 -6t53 -10t44 -13v-219h-156v94q-4 1 -13.5 2.5t-20.5 2.5t-21 1.5t-16 0.5q-88 0 -133.5 -49.5t-45.5 -137.5v-86q0 -42 12 -78t35 -62t56.5 -40.5 t75.5 -14.5h47q21 0 46 3t49 8t44.5 10.5t32.5 9.5h8v-145q-9 -4 -29 -10t-46 -11.5t-53.5 -9.5t-51.5 -4h-47v0z" />
<glyph unicode="D" horiz-adv-x="758" d="M78 750h281q91 0 158.5 -23.5t112.5 -66t67 -101.5t22 -129v-94q0 -73 -21 -134.5t-65 -106.5t-112 -70t-162 -25h-281v750zM359 148q89 0 134.5 55t45.5 149v62q0 88 -45.5 138t-134.5 50h-109v-454h109z" />
<glyph unicode="E" horiz-adv-x="641" d="M266 0q-94 0 -141 54.5t-47 148.5v547h485v-148h-313v-149h281v-148h-281v-71q0 -47 15.5 -66.5t62.5 -19.5h250v-148h-312v0z" />
<glyph unicode="F" horiz-adv-x="563" d="M78 500q0 129 68.5 189.5t197.5 60.5h187v-148h-187q-48 0 -71 -27t-23 -75v-78h266v-149h-266v-273h-172v500z" />
<glyph unicode="G" horiz-adv-x="742" d="M406 -8q-83 0 -151 22.5t-116 66t-74 107.5t-26 148v78q0 89 32 154t87 107t127 62.5t153 20.5q59 0 118.5 -9.5t115.5 -29.5v-149h-8q-56 21 -120 30t-114 9q-47 0 -86 -13t-66.5 -37.5t-43 -61t-15.5 -83.5v-78q0 -42 13.5 -78t38 -62t59 -40.5t76.5 -14.5h39 q7 0 16.5 0.5t19.5 1.5t19.5 2.5t15.5 2.5v118h-110v148h266v-379q-15 -6 -39 -13t-54 -14t-64.5 -11.5t-69.5 -4.5h-39v0z" />
<glyph unicode="H" horiz-adv-x="766" d="M78 750h172v-289h266v289h172v-750h-172v313h-266v-313h-172v750z" />
<glyph unicode="I" horiz-adv-x="328" d="M78 750h172v-750h-172v750z" />
<glyph unicode="J" horiz-adv-x="484" d="M31 148h110q53 0 73 24.5t20 77.5v352h-171v148h343v-500q0 -124 -63 -187t-187 -63h-125v148z" />
<glyph unicode="K" horiz-adv-x="750" d="M78 750h172v-285h43l227 285h196v-8l-286 -344l304 -390v-8h-203l-246 316h-35v-316h-172v750z" />
<glyph unicode="L" horiz-adv-x="563" d="M266 0q-94 0 -141 54.5t-47 148.5v547h172v-516q0 -47 15.5 -66.5t62.5 -19.5h203v-148h-265v0z" />
<glyph unicode="M" horiz-adv-x="906" d="M78 750h172l199 -285l207 285h172v-750h-172v480l-187 -246h-47l-172 246v-480h-172v750z" />
<glyph unicode="N" horiz-adv-x="766" d="M78 750h156l282 -445v445h172v-750h-157l-281 445v-445h-172v750z" />
<glyph unicode="O" horiz-adv-x="766" d="M383 -8q-87 0 -151.5 25.5t-107 73.5t-64 117t-21.5 155v32q0 173 85.5 268t258.5 95t258.5 -95t85.5 -268v-32q0 -86 -21.5 -155t-64.5 -117t-107.5 -73.5t-150.5 -25.5zM383 141q48 0 80 16.5t50.5 46t26 70.5t7.5 89v32q0 48 -7.5 87.5t-26 67.5t-50.5 43.5t-80 15.5 t-80 -15.5t-50.5 -43.5t-26 -67.5t-7.5 -87.5v-32q0 -48 7.5 -89t26 -70.5t50.5 -46t80 -16.5z" />
<glyph unicode="P" horiz-adv-x="672" d="M78 750h274q64 0 116 -15t88.5 -48t56.5 -85t20 -125q0 -79 -23.5 -134t-63.5 -89.5t-94 -50t-116 -15.5h-86v-188h-172v750zM320 336q35 0 60.5 6.5t41.5 22.5t23.5 43.5t7.5 68.5q0 38 -7.5 62t-23.5 38t-41.5 19.5t-60.5 5.5h-70v-266h70z" />
<glyph unicode="Q" horiz-adv-x="766" d="M500 -188q-38 0 -70 8.5t-54.5 26t-35 45t-12.5 65.5v38q-72 8 -126.5 37t-90.5 76t-54 111.5t-18 143.5v32q0 173 85.5 268t258.5 95t258.5 -95t85.5 -268v-32q0 -79 -18 -143.5t-54 -111.5t-90.5 -76t-126.5 -37v-15q0 -32 15 -43t47 -11q37 0 67.5 6.5t49.5 12.5h8 v-109q-9 -3 -23 -7t-30.5 -8t-35 -6.5t-36.5 -2.5zM383 141q48 0 80 16.5t50.5 46t26 70.5t7.5 89v32q0 48 -7.5 87.5t-26 67.5t-50.5 43.5t-80 15.5t-80 -15.5t-50.5 -43.5t-26 -67.5t-7.5 -87.5v-32q0 -48 7.5 -89t26 -70.5t50.5 -46t80 -16.5z" />
<glyph unicode="R" horiz-adv-x="688" d="M78 750h274q64 0 116 -11.5t88.5 -40t56.5 -77t20 -121.5q0 -45 -10 -79.5t-27 -60.5t-39 -45t-45 -34q29 -23 58 -62t52.5 -80t39 -77t18.5 -54v-8h-188q-4 16 -17.5 47.5t-32 65.5t-41 64.5t-46.5 45.5h-105v-223h-172v750zM320 367q35 0 60.5 6.5t41.5 21t23.5 38.5 t7.5 59t-7.5 56.5t-23.5 33.5t-41.5 16t-60.5 4h-70v-235h70z" />
<glyph unicode="S" horiz-adv-x="641" d="M266 -8q-22 0 -50 3t-57 7.5t-56.5 11t-47.5 13.5v145h8q16 -5 40.5 -10.5t52 -10t56.5 -7.5t54 -3h39q47 0 78 17.5t31 64.5q0 35 -26 52t-60 26l-117 31q-32 8 -60.5 24t-49.5 41.5t-33.5 61.5t-12.5 84q0 57 22 97.5t59.5 67t88 38.5t107.5 12h39q18 0 42.5 -2t51 -6 t50.5 -9t40 -11v-144h-8q-15 4 -38 8t-48.5 7.5t-49.5 5.5t-40 2h-35q-21 0 -39.5 -2.5t-32.5 -10t-22 -20t-8 -33.5q0 -16 5.5 -27.5t15.5 -20t22.5 -13.5t27.5 -9l117 -32q85 -23 128.5 -75t43.5 -143q0 -63 -21.5 -107t-60 -71.5t-91.5 -40t-116 -12.5h-39v0z" />
<glyph unicode="T" horiz-adv-x="609" d="M219 602h-203v148h578v-148h-203v-602h-172v602z" />
<glyph unicode="U" horiz-adv-x="766" d="M383 -8q-70 0 -126.5 17t-96.5 51.5t-61 87.5t-21 124v478h172v-480q0 -65 31 -97t102 -32t102 32t31 97v480h172v-477q0 -72 -23.5 -124.5t-64.5 -87.5t-96.5 -52t-120.5 -17z" />
<glyph unicode="V" horiz-adv-x="758" d="M266 0q-21 47 -51 126t-63 178t-65 211.5t-56 226.5v8h188q9 -45 21 -99t26.5 -111t30 -114t31 -108.5t29.5 -94t26 -71.5q12 28 27 71t31 94.5t32.5 108.5t31.5 114t28 111t22 99h172v-8q-25 -114 -57 -226.5t-65 -211.5t-62.5 -178t-50.5 -126h-226v0z" />
<glyph unicode="W" horiz-adv-x="1133" d="M227 0q-31 71 -60.5 162t-55 190t-46.5 200t-34 190v8h188q6 -45 14.5 -98t19 -108.5t22.5 -111.5t25 -107.5t26 -96t26 -76.5q14 32 28 76.5t27.5 96t26 107.5t24 111.5t20 108.5t14.5 98h156q9 -67 24.5 -149.5t34.5 -164.5t40 -156.5t42 -127.5q19 53 39 127.5 t38 156.5t32.5 164.5t23.5 149.5h187v-8q-16 -105 -38.5 -210t-48.5 -202t-54 -181t-54 -149h-234q-15 35 -30.5 78.5t-30 91.5t-27.5 98.5t-22 98.5q-9 -48 -22 -99.5t-28 -100t-30.5 -92t-28.5 -75.5h-234v0z" />
<glyph unicode="X" horiz-adv-x="695" d="M16 8l234 375l-223 359v8h192l130 -210l131 210h176v-8l-218 -346l242 -388v-8h-192l-147 238l-150 -238h-175v8z" />
<glyph unicode="Y" horiz-adv-x="699" d="M258 285l-242 457v8h179l157 -320l164 320h168v-8l-254 -457v-285h-172v285z" />
<glyph unicode="Z" horiz-adv-x="633" d="M39 102q26 31 57 72.5t63.5 87.5t65.5 94t62.5 93.5t53 85t38.5 67.5h-324v148h547v-102q-21 -41 -61 -106.5t-87.5 -137.5t-95.5 -140.5t-85 -115.5h329v-148h-563v102z" />
<glyph unicode="[" horiz-adv-x="461" d="M94 750h304v-125h-132v-625h132v-125h-304v875z" />
<glyph unicode="\" horiz-adv-x="582" d="M31 734v16h157l363 -859v-16h-156z" />
<glyph unicode="]" horiz-adv-x="461" d="M63 0h132v625h-132v125h304v-875h-304v125z" />
<glyph unicode="^" d="M31 117l223 430h117l223 -430v-8h-156l-125 262l-125 -262h-157v8z" />
<glyph unicode="_" d="M31 0h563v-141h-563v141z" />
<glyph unicode="`" horiz-adv-x="641" d="M121 766v15h133l109 -140v-16h-93z" />
<glyph unicode="a" horiz-adv-x="672" d="M230 -8q-85 0 -130 47.5t-45 132.5v109q0 62 22 111t61 83.5t92 53t114 18.5h250v-547h-172v73l-39 -26q-38 -26 -73 -40.5t-80 -14.5zM289 141q23 0 50.5 12t51.5 27l31 18v208h-63q-65 0 -98.5 -30t-33.5 -95v-78q0 -62 62 -62z" />
<glyph unicode="b" horiz-adv-x="672" d="M78 750h172v-276l39 26q38 26 73 40.5t79 14.5q86 0 131 -47.5t45 -132.5v-109q0 -61 -22 -110.5t-61 -84t-91.5 -53t-114.5 -18.5h-250v750zM313 141q64 0 98 30t34 95v78q0 62 -62 62q-23 0 -50.5 -12t-51.5 -27l-31 -18v-208h63z" />
<glyph unicode="c" horiz-adv-x="555" d="M316 -8q-58 0 -109 11t-88 36t-58.5 65.5t-21.5 98.5v117q0 54 21 97.5t57.5 74t85 47t102.5 16.5q53 0 99.5 -9.5t87.5 -29.5v-188h-140v70q-6 3 -19.5 5.5t-27.5 2.5q-45 0 -69.5 -24.5t-24.5 -68.5v-71q0 -53 28 -77t81 -24q19 0 40.5 2t43.5 5.5t42.5 8.5t37.5 11h8 v-141q-15 -7 -36.5 -13.5t-45.5 -11t-48.5 -7.5t-45.5 -3z" />
<glyph unicode="d" horiz-adv-x="672" d="M230 -8q-85 0 -130 47.5t-45 132.5v109q0 62 22 111t61 83.5t92 53t114 18.5h78v203h172v-750h-172v73l-39 -26q-38 -26 -73 -40.5t-80 -14.5zM289 141q23 0 50.5 12t51.5 27l31 18v208h-63q-65 0 -98.5 -30t-33.5 -95v-78q0 -62 62 -62z" />
<glyph unicode="e" horiz-adv-x="609" d="M313 -8q-60 0 -110.5 12.5t-87 39t-56.5 69t-20 102.5v105q0 59 21.5 103t58.5 73.5t88 44t109 14.5q51 0 96 -9t78.5 -30t53 -55.5t19.5 -85.5q0 -44 -15.5 -74.5t-42.5 -49.5t-64.5 -27.5t-81.5 -8.5h-148v-4q0 -22 10 -36t26.5 -21.5t37.5 -10t43 -2.5q45 0 90 5.5 t90 17.5h8v-141q-24 -9 -51.5 -14.5t-55 -9.5t-52.5 -5.5t-44 -1.5zM348 316q26 0 42 10.5t16 36.5q0 18 -7.5 28t-20 15t-28.5 6.5t-34 1.5q-50 0 -77.5 -19.5t-27.5 -70.5v-8h137z" />
<glyph unicode="f" horiz-adv-x="367" d="M94 406h-86v141h86v16q0 91 52 139t143 48h109v-125h-54q-38 0 -58 -16t-20 -54v-8h117v-141h-117v-406h-172v406z" />
<glyph unicode="g" horiz-adv-x="672" d="M125 -47h125q42 0 74.5 5.5t54 20.5t32.5 42t11 69v3l-39 -19q-32 -15 -66 -29t-79 -14q-88 0 -135.5 46t-47.5 134v70q0 62 22 111t61 83.5t92 53t114 18.5h250v-469q0 -63 -20.5 -112.5t-57.5 -83.5t-88.5 -52t-114.5 -18h-188v141zM289 180q26 0 54.5 8.5t51.5 18.5 l27 11v188h-63q-65 0 -98.5 -30t-33.5 -95v-39q0 -62 62 -62z" />
<glyph unicode="h" horiz-adv-x="688" d="M78 750h172v-286l23 16q47 34 87.5 54.5t92.5 20.5q80 0 118 -46.5t38 -125.5v-383h-171v336q0 32 -9.5 51t-41.5 19q-24 0 -52 -15t-54 -32q-8 -5 -15 -9q-6 -4 -11 -6.5t-5 -3.5v-340h-172v750z" />
<glyph unicode="i" horiz-adv-x="344" d="M94 750h172v-141h-172v141zM94 406h-78v141h250v-547h-172v406z" />
<glyph unicode="j" horiz-adv-x="344" d="M102 750h171v-141h-171v141zM-16 -47h24q53 0 73.5 20.5t20.5 73.5v359h-79v141h250v-516q0 -55 -17 -96t-46.5 -68.5t-69.5 -41t-85 -13.5h-71v141z" />
<glyph unicode="k" horiz-adv-x="641" d="M78 750h172v-391h39l156 188h188v-8l-203 -238l203 -293v-8h-195l-149 219h-39v-219h-172v750z" />
<glyph unicode="l" horiz-adv-x="344" d="M94 609h-78v141h250v-750h-172v609z" />
<glyph unicode="m" horiz-adv-x="1031" d="M78 547h172v-83l20 16q23 17 43.5 31t41 23.5t42.5 15t48 5.5q57 0 93 -24.5t52 -69.5h8l23 19q26 22 46.5 36.5t40.5 23t41.5 12t47.5 3.5q79 0 117.5 -46.5t38.5 -125.5v-383h-172v336q0 32 -9.5 51t-41.5 19q-23 0 -49 -15t-52 -32l-27 -18v-341h-172v336 q0 32 -9.5 51t-41.5 19q-23 0 -49 -15t-53 -32l-27 -18v-341h-172v547z" />
<glyph unicode="n" horiz-adv-x="688" d="M78 547h172v-83l23 16q47 34 87.5 54.5t92.5 20.5q80 0 118 -46.5t38 -125.5v-383h-171v336q0 32 -9.5 51t-41.5 19q-24 0 -52 -15t-54 -32q-8 -5 -15 -9q-6 -4 -11 -6.5t-5 -3.5v-340h-172v547z" />
<glyph unicode="o" horiz-adv-x="641" d="M320 -8q-67 0 -119.5 14.5t-88.5 47.5t-54.5 86.5t-18.5 132.5q0 147 73.5 214.5t207.5 67.5q141 0 211.5 -67.5t70.5 -214.5q0 -79 -17.5 -132.5t-53 -86.5t-88 -47.5t-123.5 -14.5zM320 141q59 0 84.5 29.5t25.5 102.5q0 74 -25.5 103.5t-84.5 29.5t-84 -29.5 t-25 -103.5q0 -73 25 -102.5t84 -29.5z" />
<glyph unicode="p" horiz-adv-x="672" d="M78 547h172v-73l39 26q38 26 73 40.5t79 14.5q86 0 131 -47.5t45 -132.5v-109q0 -61 -22 -110.5t-61 -84t-91.5 -53t-114.5 -18.5h-78v-188h-172v735zM313 141q64 0 98 30t34 95v78q0 62 -62 62q-23 0 -50.5 -12t-51.5 -27l-31 -18v-208h63z" />
<glyph unicode="q" horiz-adv-x="672" d="M422 73l-39 -26q-38 -26 -73 -40.5t-80 -14.5q-85 0 -130 47.5t-45 132.5v109q0 62 22 111t61 83.5t92 53t114 18.5h250v-735h-172v261zM289 141q23 0 50.5 12t51.5 27l31 18v208h-63q-65 0 -98.5 -30t-33.5 -95v-78q0 -62 62 -62z" />
<glyph unicode="r" horiz-adv-x="438" d="M78 547h172v-67q23 35 63.5 55t81.5 20h43v-149h-59q-45 0 -77 -15.5t-52 -38.5v-352h-172v547z" />
<glyph unicode="s" horiz-adv-x="539" d="M223 -8q-48 0 -97 5.5t-87 14.5v144h8q44 -8 89 -13.5t87 -5.5q10 0 26.5 0.5t32 3.5t27 9t11.5 18q0 17 -11.5 23.5t-31.5 11.5l-86 20q-80 18 -116 59t-36 97q0 47 21.5 80.5t58.5 54.5t87 31t107 10q41 0 84 -5t72 -11v-144h-8q-35 5 -74.5 10t-77.5 5 q-10 0 -25.5 -0.5t-30 -3t-24.5 -8t-10 -15.5q0 -18 17 -24t37 -11l75 -16q29 -6 56 -17t48.5 -29.5t34.5 -46.5t13 -67q0 -54 -23 -89t-61.5 -55.5t-88.5 -28t-104 -7.5z" />
<glyph unicode="t" horiz-adv-x="422" d="M320 0q-106 0 -166 52.5t-60 158.5v195h-86v141h86v141h172v-141h140v-141h-140v-156q0 -58 21.5 -83.5t79.5 -25.5h55v-141h-102v0z" />
<glyph unicode="u" horiz-adv-x="688" d="M234 -8q-79 0 -117.5 46.5t-38.5 125.5v383h172v-336q0 -32 9.5 -51t41.5 -19q23 0 51 15t54 32l32 18v341h171v-547h-171v83l-24 -17q-47 -34 -87 -54t-93 -20z" />
<glyph unicode="v" horiz-adv-x="578" d="M188 0q-21 18 -48 57t-51 93.5t-41 120t-17 135.5v141h172v-141q0 -47 7.5 -90t20 -80.5t28.5 -67.5t34 -51q35 42 58.5 118.5t23.5 170.5v141h172v-141q0 -70 -18 -135.5t-43.5 -120t-53.5 -93.5t-49 -57h-195v0z" />
<glyph unicode="w" horiz-adv-x="875" d="M172 0q-21 18 -45.5 57t-45.5 93.5t-35.5 120t-14.5 135.5v141h172v-141q0 -94 19.5 -170.5t54.5 -118.5q35 42 55 118.5t20 170.5v141h171v-141q0 -94 20 -170.5t55 -118.5q35 42 54.5 118.5t19.5 170.5v141h172v-141q0 -70 -17 -135.5t-41 -120t-51 -93.5t-47 -57h-180 q-7 6 -17 20.5t-21 34t-20.5 40t-15.5 38.5q-6 -18 -17 -38.5t-23 -39.5t-23.5 -34t-18.5 -21h-180v0z" />
<glyph unicode="x" horiz-adv-x="531" d="M0 8l179 268l-171 263v8h172l89 -137l90 137h164v-8l-170 -257l178 -274v-8h-172l-96 148l-99 -148h-164v8z" />
<glyph unicode="y" horiz-adv-x="680" d="M141 -47h117q44 0 76.5 6t53.5 22t31.5 44.5t10.5 72.5v26l-35 -19q-32 -15 -64 -28.5t-77 -13.5q-88 0 -136 45.5t-48 133.5v305h172v-274q0 -62 63 -62q26 0 52.5 9t48.5 18l24 12v297h172v-469q0 -63 -20.5 -112.5t-57.5 -83.5t-89 -52t-115 -18h-179v141z" />
<glyph unicode="z" horiz-adv-x="523" d="M31 102q71 70 139 149t115 155h-246v141h453v-102q-18 -35 -44.5 -76t-57 -82t-63 -79t-61.5 -67h234v-141h-469v102z" />
<glyph unicode="{" horiz-adv-x="523" d="M391 -125q-100 0 -151.5 42t-51.5 130v94q0 26 -4 46t-17.5 34t-38 22t-65.5 11v117q41 3 65.5 11t38 22t17.5 34t4 46v94q0 88 51.5 130t151.5 42h101v-125h-47q-26 0 -43 -5t-26.5 -16.5t-13 -31t-3.5 -49.5v-62q0 -37 -10 -62.5t-27.5 -42.5t-41 -27t-50.5 -16 q27 -6 50.5 -16t41 -27.5t27.5 -43t10 -62.5v-62q0 -30 3.5 -49.5t13 -31t26.5 -16.5t43 -5h47v-125h-101v0z" />
<glyph unicode="|" horiz-adv-x="359" d="M109 813h141v-1001h-141v1001z" />
<glyph unicode="}" horiz-adv-x="523" d="M31 0h47q26 0 43 5t26.5 16.5t13 31t3.5 49.5v62q0 37 10.5 62.5t28 43t41 27.5t49.5 16q-26 6 -49.5 16t-41 27t-28 42.5t-10.5 62.5v62q0 30 -3.5 49.5t-13 31t-26.5 16.5t-43 5h-47v125h102q100 0 151.5 -42t51.5 -130v-94q0 -26 4 -46t17.5 -34t38 -22t65.5 -11v-117 q-41 -3 -65.5 -11t-38 -22t-17.5 -34t-4 -46v-94q0 -88 -51.5 -130t-151.5 -42h-102v125z" />
<glyph unicode="~" d="M94 367q7 13 18.5 26t26.5 23t33 16t39 6q26 0 54 -10.5t55 -23t52 -23t46 -10.5q42 0 65 17.5t40 49.5h8v-137q-7 -13 -18.5 -26t-26.5 -23t-33 -16t-39 -6q-26 0 -54 10.5t-55 23t-52 23t-46 10.5q-35 0 -60 -17.5t-45 -49.5h-8v137z" />
<glyph unicode="&#xa1;" horiz-adv-x="328" d="M78 750h172v-172h-172v172zM90 500h148l12 -500h-172z" />
<glyph unicode="&#xa2;" d="M313 -4q-138 16 -210 102t-72 238v78q0 71 20 128.5t57 100t89 70t116 38.5v116h125v-110q43 -2 79.5 -9.5t68.5 -17.5v-144h-8q-35 9 -81 16t-114 7q-88 0 -130 -49.5t-42 -137.5v-86q0 -42 9.5 -78t30 -62t51.5 -40.5t73 -14.5h47q21 0 43.5 3t43.5 8t39 10.5t30 9.5h8 v-145q-8 -4 -24 -9t-36 -10.5t-43 -10t-45 -5.5v-117h-125v121z" />
<glyph unicode="&#xa3;" d="M55 148h54q18 15 28.5 46.5t10.5 63.5v47h-78v148h78v27q0 135 75.5 202.5t210.5 67.5h136v-148h-136q-60 0 -87 -31t-27 -91v-27h188v-148h-188v-47q0 -32 -10.5 -62t-28.5 -48h289v-148h-515v148z" />
<glyph unicode="&#xa4;" d="M406 -8q-57 0 -110.5 15t-95 46.5t-66.5 80.5t-25 116h-78v90h78v70h-78v90h78q0 60 24 108t64.5 81t94.5 51t114 18h24q20 0 42 -2.5t42 -7t37 -10t27 -11.5v-145h-8q-26 12 -64.5 19.5t-75.5 7.5h-24q-56 0 -86.5 -26.5t-30.5 -82.5h227v-90h-227v-70h227v-90h-227 q0 -29 9 -50t25 -34t37 -19t46 -6h32q42 0 77 10.5t55 20.5h8v-145q-9 -4 -23 -10t-32.5 -11.5t-40 -9.5t-44.5 -4h-32v0z" />
<glyph unicode="&#xa5;" d="M223 125h-164v148h164v43l-223 426v8h180l136 -289l141 289h168v-8l-230 -426v-43h164v-148h-164v-125h-172v125z" />
<glyph unicode="&#xa6;" horiz-adv-x="359" d="M109 813h141v-407h-141v407zM109 219h141v-407h-141v407z" />
<glyph unicode="&#xa7;" horiz-adv-x="582" d="M242 363q-26 12 -52.5 29.5t-47.5 42t-34.5 57t-13.5 74.5q0 47 21.5 81.5t56.5 57.5t79 34t89 11h191v-148h-191q-25 0 -46 -11t-21 -40q0 -23 11 -34t36 -25l211 -105v-160h-11zM51 -39h191q25 0 46 11t21 40q0 23 -10.5 34.5t-36.5 23.5l-211 106v160h12l277 -137 q26 -13 52.5 -30.5t47.5 -41.5t34.5 -56.5t13.5 -74.5q0 -47 -21.5 -81.5t-56.5 -57.5t-79 -34t-89 -11h-191v149z" />
<glyph unicode="&#xa8;" horiz-adv-x="641" d="M379 750h125v-125h-125v125zM137 750h125v-125h-125v125z" />
<glyph unicode="&#xa9;" horiz-adv-x="879" d="M441 16q-82 0 -153.5 26.5t-125 75t-84.5 116t-31 149.5t31 149.5t84.5 116t125 75t153.5 26.5t153.5 -26.5t124 -75t83 -116t30.5 -149.5t-30.5 -149.5t-83 -116t-124 -75t-153.5 -26.5zM441 86q71 0 126.5 22t94.5 61.5t59.5 94t20.5 119.5t-20.5 119.5t-59.5 94 t-94.5 61.5t-126.5 22q-70 0 -126.5 -22t-96 -61.5t-60.5 -94t-21 -119.5t21 -119.5t60.5 -94t96 -61.5t126.5 -22zM480 180q-45 0 -88 11t-76.5 35t-53.5 62.5t-20 94.5t19.5 94.5t52 62.5t75 35t88.5 11q26 0 51.5 -5t45.5 -11v-54q-20 5 -45.5 10t-51.5 5q-29 0 -54 -9 t-43.5 -27t-29 -46t-10.5 -66t11 -66t30 -46.5t44.5 -27.5t54.5 -9q32 0 54.5 5t39.5 11v-55q-17 -5 -39.5 -10t-54.5 -5z" />
<glyph unicode="&#xaa;" horiz-adv-x="543" d="M51 250h418v-86h-418v86zM465 328h-133v54l-27 -15q-32 -17 -58 -28t-59 -11q-66 0 -103.5 33.5t-37.5 99.5v86q0 48 17.5 85.5t47.5 64t71 40t88 13.5h194v-422zM332 664h-47q-51 0 -78 -23.5t-27 -74.5v-104q0 -48 49 -48q19 0 40 10t40 21l23 15v204z" />
<glyph unicode="&#xab;" horiz-adv-x="586" d="M313 281v110l207 156h11v-125l-117 -86l117 -86v-125h-11zM63 281v110l207 156h11v-125l-117 -86l117 -86v-125h-11z" />
<glyph unicode="&#xac;" d="M391 297h-297v141h437v-290h-140v149z" />
<glyph unicode="&#xae;" horiz-adv-x="879" d="M441 16q-82 0 -153.5 26.5t-125 75t-84.5 116t-31 149.5t31 149.5t84.5 116t125 75t153.5 26.5t153.5 -26.5t124 -75t83 -116t30.5 -149.5t-30.5 -149.5t-83 -116t-124 -75t-153.5 -26.5zM441 86q71 0 126.5 22t94.5 61.5t59.5 94t20.5 119.5t-20.5 119.5t-59.5 94 t-94.5 61.5t-126.5 22q-70 0 -126.5 -22t-96 -61.5t-60.5 -94t-21 -119.5t21 -119.5t60.5 -94t96 -61.5t126.5 -22zM281 586h149q31 0 61 -5t54 -19t38.5 -38.5t14.5 -62.5q0 -42 -23 -72t-59 -41l93 -160v-8h-101l-76 136h-53v-136h-98v406zM418 375q33 0 57.5 19.5 t24.5 66.5q0 38 -24.5 54t-57.5 16h-39v-156h39z" />
<glyph unicode="&#xaf;" horiz-adv-x="641" d="M195 719h250v-94h-250v94z" />
<glyph unicode="&#xb0;" horiz-adv-x="516" d="M250 328q-103 0 -153 50t-50 161q0 112 50 161.5t153 49.5t153 -49.5t50 -161.5q0 -111 -50 -161t-153 -50zM250 414q41 0 55.5 27.5t14.5 97.5q0 35 -3 59t-11 38.5t-21.5 21t-34.5 6.5t-34.5 -6.5t-21.5 -21t-11 -38.5t-3 -59q0 -70 14.5 -97.5t55.5 -27.5z" />
<glyph unicode="&#xb1;" d="M242 297h-148v141h148v148h141v-148h148v-141h-148v-149h-141v149zM94 0h437v-141h-437v141z" />
<glyph unicode="&#xb2;" horiz-adv-x="500" d="M74 371q0 21 4.5 43.5t16 44t32 40t53.5 32.5l70 32q17 7 34 23t17 39t-14 31t-49 8h-140v86h164q89 0 130.5 -30.5t41.5 -86.5q0 -45 -26 -78.5t-88 -58.5l-58 -23q-47 -19 -47 -51v-8h211v-86h-352v43z" />
<glyph unicode="&#xb3;" horiz-adv-x="500" d="M82 414h137q38 0 58 8.5t20 34.5t-20 32.5t-58 6.5h-74v86h106q15 10 24.5 21.5t9.5 25.5q0 23 -14 29t-52 6h-137v86h148q44 0 78.5 -4.5t59 -16t37.5 -31.5t13 -50q0 -23 -17 -47t-55 -42q40 -11 62 -33t22 -65q0 -63 -53 -98t-147 -35h-148v86z" />
<glyph unicode="&#xb4;" horiz-adv-x="641" d="M262 641l109 140h133v-15l-149 -141h-93v16z" />
<glyph unicode="&#xb5;" horiz-adv-x="688" d="M78 547h172v-336q0 -32 20 -51t74 -19q19 0 45 7.5t49 30.5v368h171v-422q0 -45 8 -76.5t20 -48.5h-172q-6 12 -11 25.5t-9 30.5q-18 -22 -45 -39t-64 -17q-28 0 -50.5 8.5t-35.5 22.5v-219h-172v735z" />
<glyph unicode="&#xb6;" horiz-adv-x="859" d="M609 750h172v-938h-172v938zM375 188h-62q-58 0 -109.5 17.5t-90 52.5t-60.5 88t-22 123t22 122.5t60 88t89.5 53t110.5 17.5h234v-938h-172v376z" />
<glyph unicode="&#xb7;" horiz-adv-x="328" d="M78 445h172v-172h-172v172z" />
<glyph unicode="&#xb8;" horiz-adv-x="641" d="M168 -141h94q23 0 38.5 8.5t15.5 34.5t-16.5 40t-33.5 23v12h93q21 -12 36 -35.5t15 -46.5q0 -22 -9.5 -38t-25 -26t-36 -14.5t-42.5 -4.5h-129v47z" />
<glyph unicode="&#xb9;" horiz-adv-x="500" d="M227 637l-145 -51h-8v94l199 70h86v-422h-132v309z" />
<glyph unicode="&#xba;" horiz-adv-x="500" d="M250 328q-103 0 -153 50t-50 161q0 112 50 161.5t153 49.5t153 -49.5t50 -161.5q0 -111 -50 -161t-153 -50zM47 250h402v-86h-402v86zM250 414q41 0 55.5 27.5t14.5 97.5q0 35 -3 59t-11 38.5t-21.5 21t-34.5 6.5t-34.5 -6.5t-21.5 -21t-11 -38.5t-3 -59 q0 -70 14.5 -97.5t55.5 -27.5z" />
<glyph unicode="&#xbb;" horiz-adv-x="586" d="M305 250l117 86l-117 86v125h11l207 -156v-110l-207 -156h-11v125zM55 250l117 86l-117 86v125h11l207 -156v-110l-207 -156h-11v125z" />
<glyph unicode="&#xbc;" horiz-adv-x="1031" d="M215 637l-145 -51h-7v94l199 70h86v-422h-133v309zM297 16l355 734h82v-16l-355 -734h-82v16zM813 66h-227v67q23 33 38 73.5t23.5 80.5t12 75.5t4.5 59.5h145q-3 -22 -8 -56t-14.5 -72t-25 -75.5t-38.5 -66.5h90v75h132v-75h39v-86h-39v-66h-132v66z" />
<glyph unicode="&#xbd;" horiz-adv-x="1031" d="M215 637l-145 -51h-7v94l199 70h86v-422h-133v309zM297 16l355 734h82v-16l-355 -734h-82v16zM633 43q0 21 4 43.5t15.5 44t32 40t53.5 32.5l71 31q17 8 33.5 24t16.5 39t-13.5 31t-48.5 8h-141v86h164q89 0 130.5 -30.5t41.5 -86.5q0 -45 -25.5 -78.5t-87.5 -58.5 l-59 -23q-22 -9 -34.5 -21.5t-12.5 -29.5v-8h211v-86h-351v43z" />
<glyph unicode="&#xbe;" horiz-adv-x="1031" d="M59 414h136q38 0 58 8.5t20 34.5t-20 32.5t-58 6.5h-74v86h107q15 10 24.5 21.5t9.5 25.5q0 23 -14.5 29t-52.5 6h-125v86h137q43 0 78 -4.5t59.5 -16t37.5 -31.5t13 -50q0 -23 -17.5 -47t-55.5 -42q41 -11 62.5 -33t21.5 -65q0 -63 -52.5 -98t-146.5 -35h-148v86z M297 16l355 734h82v-16l-355 -734h-82v16zM813 66h-227v67q23 33 38 73.5t23.5 80.5t12 75.5t4.5 59.5h145q-3 -22 -8 -56t-14.5 -72t-25 -75.5t-38.5 -66.5h90v75h132v-75h39v-86h-39v-66h-132v66z" />
<glyph unicode="&#xbf;" horiz-adv-x="520" d="M219 750h172v-172h-172v172zM238 0q-103 0 -155 43.5t-52 128.5q0 38 20.5 84t69.5 103l98 114v27h172v-31l-133 -156q-27 -32 -41 -56.5t-14 -53.5q0 -19 9.5 -30t25.5 -16.5t37.5 -7t44.5 -1.5h137v-148h-219v0z" />
<glyph unicode="&#xc0;" horiz-adv-x="750" d="M31 8q12 50 22.5 90t21 76.5t20.5 71.5t22 74q18 60 40 126.5t44 126.5t41 107.5t31 69.5h211q12 -22 31.5 -69.5t41.5 -107.5t44 -126.5t40 -126.5q12 -39 22 -74t20.5 -71.5t21 -76.5t22.5 -90v-8h-188q-8 35 -17 77t-20 87h-260q-11 -45 -21 -87t-18 -77h-172v8z M465 313q-13 49 -25.5 95.5t-24.5 86t-22 70t-18 48.5q-7 -18 -17.5 -48.5t-22.5 -70t-25.5 -86t-27.5 -95.5h183zM176 946v15h133l109 -140v-16h-93z" />
<glyph unicode="&#xc1;" horiz-adv-x="750" d="M31 8q12 50 22.5 90t21 76.5t20.5 71.5t22 74q18 60 40 126.5t44 126.5t41 107.5t31 69.5h211q12 -22 31.5 -69.5t41.5 -107.5t44 -126.5t40 -126.5q12 -39 22 -74t20.5 -71.5t21 -76.5t22.5 -90v-8h-188q-8 35 -17 77t-20 87h-260q-11 -45 -21 -87t-18 -77h-172v8z M465 313q-13 49 -25.5 95.5t-24.5 86t-22 70t-18 48.5q-7 -18 -17.5 -48.5t-22.5 -70t-25.5 -86t-27.5 -95.5h183zM317 821l109 140h133v-15l-149 -141h-93v16z" />
<glyph unicode="&#xc2;" horiz-adv-x="750" d="M31 8q12 50 22.5 90t21 76.5t20.5 71.5t22 74q18 60 40 126.5t44 126.5t41 107.5t31 69.5h211q12 -22 31.5 -69.5t41.5 -107.5t44 -126.5t40 -126.5q12 -39 22 -74t20.5 -71.5t21 -76.5t22.5 -90v-8h-188q-8 35 -17 77t-20 87h-260q-11 -45 -21 -87t-18 -77h-172v8z M465 313q-13 49 -25.5 95.5t-24.5 86t-22 70t-18 48.5q-7 -18 -17.5 -48.5t-22.5 -70t-25.5 -86t-27.5 -95.5h183zM157 821l140 140h156l141 -140v-16h-109l-110 94l-109 -94h-109v16z" />
<glyph unicode="&#xc3;" horiz-adv-x="750" d="M31 8q12 50 22.5 90t21 76.5t20.5 71.5t22 74q18 60 40 126.5t44 126.5t41 107.5t31 69.5h211q12 -22 31.5 -69.5t41.5 -107.5t44 -126.5t40 -126.5q12 -39 22 -74t20.5 -71.5t21 -76.5t22.5 -90v-8h-188q-8 35 -17 77t-20 87h-260q-11 -45 -21 -87t-18 -77h-172v8z M465 313q-13 49 -25.5 95.5t-24.5 86t-22 70t-18 48.5q-7 -18 -17.5 -48.5t-22.5 -70t-25.5 -86t-27.5 -95.5h183zM203 899q6 8 17 19t25 20.5t30.5 16t33.5 6.5q20 0 38 -9.5t34.5 -21.5t31.5 -21.5t29 -9.5q17 0 31 5.5t26 14.5t21.5 20t18.5 22h8v-93q-6 -9 -16.5 -20 t-24.5 -20.5t-30.5 -16t-33.5 -6.5q-20 0 -38 10t-34 21.5t-31 21.5t-30 10q-34 0 -57.5 -20t-40.5 -43h-8v94z" />
<glyph unicode="&#xc4;" horiz-adv-x="750" d="M31 8q12 50 22.5 90t21 76.5t20.5 71.5t22 74q18 60 40 126.5t44 126.5t41 107.5t31 69.5h211q12 -22 31.5 -69.5t41.5 -107.5t44 -126.5t40 -126.5q12 -39 22 -74t20.5 -71.5t21 -76.5t22.5 -90v-8h-188q-8 35 -17 77t-20 87h-260q-11 -45 -21 -87t-18 -77h-172v8z M465 313q-13 49 -25.5 95.5t-24.5 86t-22 70t-18 48.5q-7 -18 -17.5 -48.5t-22.5 -70t-25.5 -86t-27.5 -95.5h183zM434 930h125v-125h-125v125zM192 930h125v-125h-125v125z" />
<glyph unicode="&#xc5;" horiz-adv-x="750" d="M31 8q12 50 22.5 90t21 76.5t20.5 71.5t22 74q18 60 40 126.5t44 126.5t41 107.5t31 69.5h211q12 -22 31.5 -69.5t41.5 -107.5t44 -126.5t40 -126.5q12 -39 22 -74t20.5 -71.5t21 -76.5t22.5 -90v-8h-188q-8 35 -17 77t-20 87h-260q-11 -45 -21 -87t-18 -77h-172v8z M465 313q-13 49 -25.5 95.5t-24.5 86t-22 70t-18 48.5q-7 -18 -17.5 -48.5t-22.5 -70t-25.5 -86t-27.5 -95.5h183zM375 805q-59 0 -97.5 26.5t-38.5 82.5q0 51 38.5 80.5t97.5 29.5q29 0 54 -7t43.5 -21t29 -34.5t10.5 -47.5q0 -50 -39 -79.5t-98 -29.5zM375 852 q35 0 51 19.5t16 42.5q0 24 -16 43.5t-51 19.5t-50.5 -19.5t-15.5 -43.5q0 -23 15.5 -42.5t50.5 -19.5z" />
<glyph unicode="&#xc6;" horiz-adv-x="1000" d="M31 8q12 50 22.5 90t21 76.5t20.5 71.5t22 74q18 60 40 126.5t44 126.5t41 107.5t31 69.5h649v-148h-313v-149h282v-148h-282v-71q0 -46 16 -66t63 -20h250v-148h-313q-84 0 -130 44t-56 120h-197q-11 -45 -21 -87t-18 -77h-172v8zM438 313v289h-67q-7 -17 -16.5 -47 t-21.5 -68t-25 -82.5t-26 -91.5h156z" />
<glyph unicode="&#xc7;" horiz-adv-x="672" d="M398 -8q-83 0 -149.5 22.5t-113 66t-71.5 107.5t-25 148v78q0 82 28 146t77.5 108t118.5 67t151 23q28 0 57 -2t57 -6t53 -10t44 -13v-219h-156v94q-4 1 -13.5 2.5t-20.5 2.5t-21 1.5t-16 0.5q-88 0 -133.5 -49.5t-45.5 -137.5v-86q0 -42 12 -78t35 -62t56.5 -40.5 t75.5 -14.5h47q21 0 46 3t49 8t44.5 10.5t32.5 9.5h8v-145q-9 -4 -29 -10t-46 -11.5t-53.5 -9.5t-51.5 -4h-47v0zM262 -141h94q23 0 38.5 8.5t15.5 34.5t-16.5 40t-33.5 23v12h93q21 -12 36 -35.5t15 -46.5q0 -22 -9.5 -38t-25 -26t-36 -14.5t-42.5 -4.5h-129v47z" />
<glyph unicode="&#xc8;" horiz-adv-x="641" d="M266 0q-94 0 -141 54.5t-47 148.5v547h485v-148h-313v-149h281v-148h-281v-71q0 -47 15.5 -66.5t62.5 -19.5h250v-148h-312v0zM121 946v15h133l109 -140v-16h-93z" />
<glyph unicode="&#xc9;" horiz-adv-x="641" d="M266 0q-94 0 -141 54.5t-47 148.5v547h485v-148h-313v-149h281v-148h-281v-71q0 -47 15.5 -66.5t62.5 -19.5h250v-148h-312v0zM262 821l109 140h133v-15l-149 -141h-93v16z" />
<glyph unicode="&#xca;" horiz-adv-x="641" d="M266 0q-94 0 -141 54.5t-47 148.5v547h485v-148h-313v-149h281v-148h-281v-71q0 -47 15.5 -66.5t62.5 -19.5h250v-148h-312v0zM102 821l140 140h156l141 -140v-16h-109l-110 94l-109 -94h-109v16z" />
<glyph unicode="&#xcb;" horiz-adv-x="641" d="M266 0q-94 0 -141 54.5t-47 148.5v547h485v-148h-313v-149h281v-148h-281v-71q0 -47 15.5 -66.5t62.5 -19.5h250v-148h-312v0zM379 930h125v-125h-125v125zM137 930h125v-125h-125v125z" />
<glyph unicode="&#xcc;" horiz-adv-x="328" d="M78 750h172v-750h-172v750zM-33 946v15h133l109 -140v-16h-93z" />
<glyph unicode="&#xcd;" horiz-adv-x="328" d="M78 750h172v-750h-172v750zM108 821l109 140h133v-15l-149 -141h-93v16z" />
<glyph unicode="&#xce;" horiz-adv-x="328" d="M78 750h172v-750h-172v750zM-52 821l140 140h156l141 -140v-16h-109l-110 94l-109 -94h-109v16z" />
<glyph unicode="&#xcf;" horiz-adv-x="328" d="M78 750h172v-750h-172v750zM225 930h125v-125h-125v125zM-17 930h125v-125h-125v125z" />
<glyph unicode="&#xd0;" horiz-adv-x="758" d="M359 453v-148h-109v-157h109q89 0 134.5 55t45.5 149v62q0 88 -45.5 138t-134.5 50h-109v-149h109zM31 305v148h47v297h281q91 0 158.5 -23.5t112.5 -66t67 -101.5t22 -129v-94q0 -73 -21 -134.5t-65 -106.5t-112 -70t-162 -25h-281v305h-47z" />
<glyph unicode="&#xd1;" horiz-adv-x="766" d="M78 750h156l282 -445v445h172v-750h-157l-281 445v-445h-172v750zM211 899q6 8 17 19t25 20.5t30.5 16t33.5 6.5q20 0 38 -9.5t34.5 -21.5t31.5 -21.5t29 -9.5q17 0 31 5.5t26 14.5t21.5 20t18.5 22h8v-93q-6 -9 -16.5 -20t-24.5 -20.5t-30.5 -16t-33.5 -6.5 q-20 0 -38 10t-34 21.5t-31 21.5t-30 10q-34 0 -57.5 -20t-40.5 -43h-8v94z" />
<glyph unicode="&#xd2;" horiz-adv-x="766" d="M383 -8q-87 0 -151.5 25.5t-107 73.5t-64 117t-21.5 155v32q0 173 85.5 268t258.5 95t258.5 -95t85.5 -268v-32q0 -86 -21.5 -155t-64.5 -117t-107.5 -73.5t-150.5 -25.5zM383 141q48 0 80 16.5t50.5 46t26 70.5t7.5 89v32q0 48 -7.5 87.5t-26 67.5t-50.5 43.5t-80 15.5 t-80 -15.5t-50.5 -43.5t-26 -67.5t-7.5 -87.5v-32q0 -48 7.5 -89t26 -70.5t50.5 -46t80 -16.5zM184 946v15h133l109 -140v-16h-93z" />
<glyph unicode="&#xd3;" horiz-adv-x="766" d="M383 -8q-87 0 -151.5 25.5t-107 73.5t-64 117t-21.5 155v32q0 173 85.5 268t258.5 95t258.5 -95t85.5 -268v-32q0 -86 -21.5 -155t-64.5 -117t-107.5 -73.5t-150.5 -25.5zM383 141q48 0 80 16.5t50.5 46t26 70.5t7.5 89v32q0 48 -7.5 87.5t-26 67.5t-50.5 43.5t-80 15.5 t-80 -15.5t-50.5 -43.5t-26 -67.5t-7.5 -87.5v-32q0 -48 7.5 -89t26 -70.5t50.5 -46t80 -16.5zM325 821l109 140h133v-15l-149 -141h-93v16z" />
<glyph unicode="&#xd4;" horiz-adv-x="766" d="M383 -8q-87 0 -151.5 25.5t-107 73.5t-64 117t-21.5 155v32q0 173 85.5 268t258.5 95t258.5 -95t85.5 -268v-32q0 -86 -21.5 -155t-64.5 -117t-107.5 -73.5t-150.5 -25.5zM383 141q48 0 80 16.5t50.5 46t26 70.5t7.5 89v32q0 48 -7.5 87.5t-26 67.5t-50.5 43.5t-80 15.5 t-80 -15.5t-50.5 -43.5t-26 -67.5t-7.5 -87.5v-32q0 -48 7.5 -89t26 -70.5t50.5 -46t80 -16.5zM165 821l140 140h156l141 -140v-16h-109l-110 94l-109 -94h-109v16z" />
<glyph unicode="&#xd5;" horiz-adv-x="766" d="M383 -8q-87 0 -151.5 25.5t-107 73.5t-64 117t-21.5 155v32q0 173 85.5 268t258.5 95t258.5 -95t85.5 -268v-32q0 -86 -21.5 -155t-64.5 -117t-107.5 -73.5t-150.5 -25.5zM383 141q48 0 80 16.5t50.5 46t26 70.5t7.5 89v32q0 48 -7.5 87.5t-26 67.5t-50.5 43.5t-80 15.5 t-80 -15.5t-50.5 -43.5t-26 -67.5t-7.5 -87.5v-32q0 -48 7.5 -89t26 -70.5t50.5 -46t80 -16.5zM211 899q6 8 17 19t25 20.5t30.5 16t33.5 6.5q20 0 38 -9.5t34.5 -21.5t31.5 -21.5t29 -9.5q17 0 31 5.5t26 14.5t21.5 20t18.5 22h8v-93q-6 -9 -16.5 -20t-24.5 -20.5 t-30.5 -16t-33.5 -6.5q-20 0 -38 10t-34 21.5t-31 21.5t-30 10q-34 0 -57.5 -20t-40.5 -43h-8v94z" />
<glyph unicode="&#xd6;" horiz-adv-x="766" d="M383 -8q-87 0 -151.5 25.5t-107 73.5t-64 117t-21.5 155v32q0 173 85.5 268t258.5 95t258.5 -95t85.5 -268v-32q0 -86 -21.5 -155t-64.5 -117t-107.5 -73.5t-150.5 -25.5zM383 141q48 0 80 16.5t50.5 46t26 70.5t7.5 89v32q0 48 -7.5 87.5t-26 67.5t-50.5 43.5t-80 15.5 t-80 -15.5t-50.5 -43.5t-26 -67.5t-7.5 -87.5v-32q0 -48 7.5 -89t26 -70.5t50.5 -46t80 -16.5zM442 930h125v-125h-125v125zM200 930h125v-125h-125v125z" />
<glyph unicode="&#xd7;" d="M108 263l105 104l-105 105l100 99l105 -104l104 104l100 -99l-105 -105l105 -104l-100 -100l-104 105l-105 -105z" />
<glyph unicode="&#xd8;" horiz-adv-x="766" d="M383 -8q-67 0 -120.5 16t-94.5 45l-43 -53h-86v12l75 92q-75 95 -75 259v32q0 173 85.5 268t258.5 95q68 0 121.5 -15t95.5 -44l41 51h86v-12l-74 -90q74 -92 74 -253v-32q0 -86 -21.5 -155t-64.5 -117t-107.5 -73.5t-150.5 -25.5zM495 571q-36 38 -112 38 q-48 0 -80 -15.5t-50.5 -43.5t-26 -67.5t-7.5 -87.5v-32q0 -66 13 -114zM383 141q48 0 80 16.5t50.5 46t26 70.5t7.5 89v32q0 63 -13 108l-263 -323q20 -19 47 -29t65 -10z" />
<glyph unicode="&#xd9;" horiz-adv-x="766" d="M383 -8q-70 0 -126.5 17t-96.5 51.5t-61 87.5t-21 124v478h172v-480q0 -65 31 -97t102 -32t102 32t31 97v480h172v-477q0 -72 -23.5 -124.5t-64.5 -87.5t-96.5 -52t-120.5 -17zM184 946v15h133l109 -140v-16h-93z" />
<glyph unicode="&#xda;" horiz-adv-x="766" d="M383 -8q-70 0 -126.5 17t-96.5 51.5t-61 87.5t-21 124v478h172v-480q0 -65 31 -97t102 -32t102 32t31 97v480h172v-477q0 -72 -23.5 -124.5t-64.5 -87.5t-96.5 -52t-120.5 -17zM325 821l109 140h133v-15l-149 -141h-93v16z" />
<glyph unicode="&#xdb;" horiz-adv-x="766" d="M383 -8q-70 0 -126.5 17t-96.5 51.5t-61 87.5t-21 124v478h172v-480q0 -65 31 -97t102 -32t102 32t31 97v480h172v-477q0 -72 -23.5 -124.5t-64.5 -87.5t-96.5 -52t-120.5 -17zM165 821l140 140h156l141 -140v-16h-109l-110 94l-109 -94h-109v16z" />
<glyph unicode="&#xdc;" horiz-adv-x="766" d="M383 -8q-70 0 -126.5 17t-96.5 51.5t-61 87.5t-21 124v478h172v-480q0 -65 31 -97t102 -32t102 32t31 97v480h172v-477q0 -72 -23.5 -124.5t-64.5 -87.5t-96.5 -52t-120.5 -17zM442 930h125v-125h-125v125zM200 930h125v-125h-125v125z" />
<glyph unicode="&#xdd;" horiz-adv-x="699" d="M258 285l-242 457v8h179l157 -320l164 320h168v-8l-254 -457v-285h-172v285zM291 821l109 140h133v-15l-149 -141h-93v16z" />
<glyph unicode="&#xde;" horiz-adv-x="672" d="M78 750h172v-78h102q64 0 116 -14t88.5 -44.5t56.5 -79.5t20 -120q0 -76 -23.5 -128t-63.5 -84.5t-94 -46.5t-116 -14h-86v-141h-172v750zM320 289q35 0 60.5 5.5t41.5 19.5t23.5 38t7.5 62q0 35 -7.5 56.5t-23.5 33t-41.5 15.5t-60.5 4h-70v-234h70z" />
<glyph unicode="&#xdf;" horiz-adv-x="773" d="M512 -8q-15 0 -38 1t-48 3t-48 6t-38 10v144h8q16 -6 35 -9.5t37 -5.5t34 -3t26 -1q15 0 30 1t26.5 5t19 10.5t7.5 18.5q0 23 -18 31t-49 20l-51 19q-45 17 -73 53t-28 92q0 71 74 121q19 13 30 23t16.5 18t7 15t1.5 14q0 20 -20.5 33.5t-61.5 13.5q-22 0 -44.5 -2.5 t-40.5 -14.5t-29 -37.5t-11 -70.5v-500h-172v406h-86v141h86v8q0 51 23 88t63 60.5t95.5 35t119.5 11.5q41 0 85 -8.5t81 -26t60.5 -45t23.5 -65.5q0 -29 -7.5 -49.5t-18.5 -35.5t-25 -25.5t-28 -21.5q-7 -6 -14.5 -11.5t-14 -12.5t-10.5 -16.5t-4 -22.5q0 -20 14 -32.5 t37 -22.5l47 -19q29 -12 51 -25.5t38 -31.5t24 -43t8 -60q0 -47 -17 -81.5t-48 -57.5t-73 -34t-92 -11z" />
<glyph unicode="&#xe0;" horiz-adv-x="672" d="M230 -8q-85 0 -130 47.5t-45 132.5v109q0 62 22 111t61 83.5t92 53t114 18.5h250v-547h-172v73l-39 -26q-38 -26 -73 -40.5t-80 -14.5zM289 141q23 0 50.5 12t51.5 27l31 18v208h-63q-65 0 -98.5 -30t-33.5 -95v-78q0 -62 62 -62zM166 766v15h133l109 -140v-16h-93z" />
<glyph unicode="&#xe1;" horiz-adv-x="672" d="M230 -8q-85 0 -130 47.5t-45 132.5v109q0 62 22 111t61 83.5t92 53t114 18.5h250v-547h-172v73l-39 -26q-38 -26 -73 -40.5t-80 -14.5zM289 141q23 0 50.5 12t51.5 27l31 18v208h-63q-65 0 -98.5 -30t-33.5 -95v-78q0 -62 62 -62zM278 641l109 140h133v-15l-149 -141h-93 v16z" />
<glyph unicode="&#xe2;" horiz-adv-x="672" d="M230 -8q-85 0 -130 47.5t-45 132.5v109q0 62 22 111t61 83.5t92 53t114 18.5h250v-547h-172v73l-39 -26q-38 -26 -73 -40.5t-80 -14.5zM289 141q23 0 50.5 12t51.5 27l31 18v208h-63q-65 0 -98.5 -30t-33.5 -95v-78q0 -62 62 -62zM118 641l140 140h156l141 -140v-16h-109 l-110 94l-109 -94h-109v16z" />
<glyph unicode="&#xe3;" horiz-adv-x="672" d="M230 -8q-85 0 -130 47.5t-45 132.5v109q0 62 22 111t61 83.5t92 53t114 18.5h250v-547h-172v73l-39 -26q-38 -26 -73 -40.5t-80 -14.5zM289 141q23 0 50.5 12t51.5 27l31 18v208h-63q-65 0 -98.5 -30t-33.5 -95v-78q0 -62 62 -62zM164 719q6 8 17 19t25 20.5t30.5 16 t33.5 6.5q20 0 38 -9.5t34.5 -21.5t31.5 -21.5t29 -9.5q17 0 31 5.5t26 14.5t21.5 20t18.5 22h8v-93q-6 -9 -16.5 -20t-24.5 -20.5t-30.5 -16t-33.5 -6.5q-20 0 -38 10t-34 21.5t-31 21.5t-30 10q-34 0 -57.5 -20t-40.5 -43h-8v94z" />
<glyph unicode="&#xe4;" horiz-adv-x="672" d="M230 -8q-85 0 -130 47.5t-45 132.5v109q0 62 22 111t61 83.5t92 53t114 18.5h250v-547h-172v73l-39 -26q-38 -26 -73 -40.5t-80 -14.5zM289 141q23 0 50.5 12t51.5 27l31 18v208h-63q-65 0 -98.5 -30t-33.5 -95v-78q0 -62 62 -62zM395 750h125v-125h-125v125zM153 750 h125v-125h-125v125z" />
<glyph unicode="&#xe5;" horiz-adv-x="672" d="M230 -8q-85 0 -130 47.5t-45 132.5v109q0 62 22 111t61 83.5t92 53t114 18.5h250v-547h-172v73l-39 -26q-38 -26 -73 -40.5t-80 -14.5zM289 141q23 0 50.5 12t51.5 27l31 18v208h-63q-65 0 -98.5 -30t-33.5 -95v-78q0 -62 62 -62zM336 625q-59 0 -97.5 26.5t-38.5 82.5 q0 51 38.5 80.5t97.5 29.5q29 0 54 -7t43.5 -21t29 -34.5t10.5 -47.5q0 -50 -39 -79.5t-98 -29.5zM336 672q35 0 51 19.5t16 42.5q0 24 -16 43.5t-51 19.5t-50.5 -19.5t-15.5 -43.5q0 -23 15.5 -42.5t50.5 -19.5z" />
<glyph unicode="&#xe6;" horiz-adv-x="992" d="M230 -8q-85 0 -130 47.5t-45 132.5v109q0 62 22 111t61 83.5t92 53t114 18.5h355q51 0 96 -7.5t78.5 -27t52.5 -53t19 -84.5q0 -44 -15.5 -74.5t-42.5 -49.5t-64 -27.5t-81 -8.5h-148v-4q0 -22 10 -36t26.5 -21.5t37.5 -10t43 -2.5q45 0 90 5.5t90 17.5h7v-141 q-23 -9 -50.5 -14.5t-55 -9.5t-53 -5.5t-44.5 -1.5q-84 0 -147.5 24t-96.5 79l-68 -48q-38 -26 -73 -40.5t-80 -14.5zM730 316q27 0 43 10.5t16 36.5q0 18 -7.5 28t-20 15t-28.5 6.5t-34 1.5q-50 0 -77.5 -19.5t-27.5 -70.5v-8h136zM289 141q23 0 50.5 12t51.5 27l31 19v16 v105q0 49 15 86h-78q-65 0 -98.5 -30t-33.5 -95v-78q0 -62 62 -62z" />
<glyph unicode="&#xe7;" horiz-adv-x="555" d="M316 -8q-58 0 -109 11t-88 36t-58.5 65.5t-21.5 98.5v117q0 54 21 97.5t57.5 74t85 47t102.5 16.5q53 0 99.5 -9.5t87.5 -29.5v-188h-140v70q-6 3 -19.5 5.5t-27.5 2.5q-45 0 -69.5 -24.5t-24.5 -68.5v-71q0 -53 28 -77t81 -24q19 0 40.5 2t43.5 5.5t42.5 8.5t37.5 11h8 v-141q-15 -7 -36.5 -13.5t-45.5 -11t-48.5 -7.5t-45.5 -3zM166 -141h94q23 0 38.5 8.5t15.5 34.5t-16.5 40t-33.5 23v12h93q21 -12 36 -35.5t15 -46.5q0 -22 -9.5 -38t-25 -26t-36 -14.5t-42.5 -4.5h-129v47z" />
<glyph unicode="&#xe8;" horiz-adv-x="609" d="M313 -8q-60 0 -110.5 12.5t-87 39t-56.5 69t-20 102.5v105q0 59 21.5 103t58.5 73.5t88 44t109 14.5q51 0 96 -9t78.5 -30t53 -55.5t19.5 -85.5q0 -44 -15.5 -74.5t-42.5 -49.5t-64.5 -27.5t-81.5 -8.5h-148v-4q0 -22 10 -36t26.5 -21.5t37.5 -10t43 -2.5q45 0 90 5.5 t90 17.5h8v-141q-24 -9 -51.5 -14.5t-55 -9.5t-52.5 -5.5t-44 -1.5zM348 316q26 0 42 10.5t16 36.5q0 18 -7.5 28t-20 15t-28.5 6.5t-34 1.5q-50 0 -77.5 -19.5t-27.5 -70.5v-8h137zM111 766v15h133l109 -140v-16h-93z" />
<glyph unicode="&#xe9;" horiz-adv-x="609" d="M313 -8q-60 0 -110.5 12.5t-87 39t-56.5 69t-20 102.5v105q0 59 21.5 103t58.5 73.5t88 44t109 14.5q51 0 96 -9t78.5 -30t53 -55.5t19.5 -85.5q0 -44 -15.5 -74.5t-42.5 -49.5t-64.5 -27.5t-81.5 -8.5h-148v-4q0 -22 10 -36t26.5 -21.5t37.5 -10t43 -2.5q45 0 90 5.5 t90 17.5h8v-141q-24 -9 -51.5 -14.5t-55 -9.5t-52.5 -5.5t-44 -1.5zM348 316q26 0 42 10.5t16 36.5q0 18 -7.5 28t-20 15t-28.5 6.5t-34 1.5q-50 0 -77.5 -19.5t-27.5 -70.5v-8h137zM252 641l109 140h133v-15l-149 -141h-93v16z" />
<glyph unicode="&#xea;" horiz-adv-x="609" d="M313 -8q-60 0 -110.5 12.5t-87 39t-56.5 69t-20 102.5v105q0 59 21.5 103t58.5 73.5t88 44t109 14.5q51 0 96 -9t78.5 -30t53 -55.5t19.5 -85.5q0 -44 -15.5 -74.5t-42.5 -49.5t-64.5 -27.5t-81.5 -8.5h-148v-4q0 -22 10 -36t26.5 -21.5t37.5 -10t43 -2.5q45 0 90 5.5 t90 17.5h8v-141q-24 -9 -51.5 -14.5t-55 -9.5t-52.5 -5.5t-44 -1.5zM348 316q26 0 42 10.5t16 36.5q0 18 -7.5 28t-20 15t-28.5 6.5t-34 1.5q-50 0 -77.5 -19.5t-27.5 -70.5v-8h137zM92 641l140 140h156l141 -140v-16h-109l-110 94l-109 -94h-109v16z" />
<glyph unicode="&#xeb;" horiz-adv-x="609" d="M313 -8q-60 0 -110.5 12.5t-87 39t-56.5 69t-20 102.5v105q0 59 21.5 103t58.5 73.5t88 44t109 14.5q51 0 96 -9t78.5 -30t53 -55.5t19.5 -85.5q0 -44 -15.5 -74.5t-42.5 -49.5t-64.5 -27.5t-81.5 -8.5h-148v-4q0 -22 10 -36t26.5 -21.5t37.5 -10t43 -2.5q45 0 90 5.5 t90 17.5h8v-141q-24 -9 -51.5 -14.5t-55 -9.5t-52.5 -5.5t-44 -1.5zM348 316q26 0 42 10.5t16 36.5q0 18 -7.5 28t-20 15t-28.5 6.5t-34 1.5q-50 0 -77.5 -19.5t-27.5 -70.5v-8h137zM369 750h125v-125h-125v125zM127 750h125v-125h-125v125z" />
<glyph unicode="&#xec;" horiz-adv-x="344" d="M94 406h-78v141h250v-547h-172v406zM-25 766v15h133l109 -140v-16h-93z" />
<glyph unicode="&#xed;" horiz-adv-x="344" d="M94 406h-78v141h250v-547h-172v406zM116 641l109 140h133v-15l-149 -141h-93v16z" />
<glyph unicode="&#xee;" horiz-adv-x="344" d="M94 406h-78v141h250v-547h-172v406zM-44 641l140 140h156l141 -140v-16h-109l-110 94l-109 -94h-109v16z" />
<glyph unicode="&#xef;" horiz-adv-x="344" d="M94 406h-78v141h250v-547h-172v406zM233 750h125v-125h-125v125zM-9 750h125v-125h-125v125z" />
<glyph unicode="&#xf0;" horiz-adv-x="672" d="M289 141q23 0 50.5 12t51.5 27l31 18v208h-63q-65 0 -98.5 -30t-33.5 -95v-78q0 -62 62 -62zM301 625v125h340v-125h-47v-625h-172v73l-39 -26q-38 -26 -73 -40.5t-80 -14.5q-85 0 -130 47.5t-45 132.5v109q0 62 22 111t61 83.5t92 53t114 18.5h78v78h-121z" />
<glyph unicode="&#xf1;" horiz-adv-x="688" d="M78 547h172v-83l23 16q47 34 87.5 54.5t92.5 20.5q80 0 118 -46.5t38 -125.5v-383h-171v336q0 32 -9.5 51t-41.5 19q-24 0 -52 -15t-54 -32q-8 -5 -15 -9q-6 -4 -11 -6.5t-5 -3.5v-340h-172v547zM171 719q6 8 17 19t25 20.5t30.5 16t33.5 6.5q20 0 38 -9.5t34.5 -21.5 t31.5 -21.5t29 -9.5q17 0 31 5.5t26 14.5t21.5 20t18.5 22h8v-93q-6 -9 -16.5 -20t-24.5 -20.5t-30.5 -16t-33.5 -6.5q-20 0 -38 10t-34 21.5t-31 21.5t-30 10q-34 0 -57.5 -20t-40.5 -43h-8v94z" />
<glyph unicode="&#xf2;" horiz-adv-x="641" d="M320 -8q-67 0 -119.5 14.5t-88.5 47.5t-54.5 86.5t-18.5 132.5q0 147 73.5 214.5t207.5 67.5q141 0 211.5 -67.5t70.5 -214.5q0 -79 -17.5 -132.5t-53 -86.5t-88 -47.5t-123.5 -14.5zM320 141q59 0 84.5 29.5t25.5 102.5q0 74 -25.5 103.5t-84.5 29.5t-84 -29.5 t-25 -103.5q0 -73 25 -102.5t84 -29.5zM121 766v15h133l109 -140v-16h-93z" />
<glyph unicode="&#xf3;" horiz-adv-x="641" d="M320 -8q-67 0 -119.5 14.5t-88.5 47.5t-54.5 86.5t-18.5 132.5q0 147 73.5 214.5t207.5 67.5q141 0 211.5 -67.5t70.5 -214.5q0 -79 -17.5 -132.5t-53 -86.5t-88 -47.5t-123.5 -14.5zM320 141q59 0 84.5 29.5t25.5 102.5q0 74 -25.5 103.5t-84.5 29.5t-84 -29.5 t-25 -103.5q0 -73 25 -102.5t84 -29.5zM262 641l109 140h133v-15l-149 -141h-93v16z" />
<glyph unicode="&#xf4;" horiz-adv-x="641" d="M320 -8q-67 0 -119.5 14.5t-88.5 47.5t-54.5 86.5t-18.5 132.5q0 147 73.5 214.5t207.5 67.5q141 0 211.5 -67.5t70.5 -214.5q0 -79 -17.5 -132.5t-53 -86.5t-88 -47.5t-123.5 -14.5zM320 141q59 0 84.5 29.5t25.5 102.5q0 74 -25.5 103.5t-84.5 29.5t-84 -29.5 t-25 -103.5q0 -73 25 -102.5t84 -29.5zM102 641l140 140h156l141 -140v-16h-109l-110 94l-109 -94h-109v16z" />
<glyph unicode="&#xf5;" horiz-adv-x="641" d="M320 -8q-67 0 -119.5 14.5t-88.5 47.5t-54.5 86.5t-18.5 132.5q0 147 73.5 214.5t207.5 67.5q141 0 211.5 -67.5t70.5 -214.5q0 -79 -17.5 -132.5t-53 -86.5t-88 -47.5t-123.5 -14.5zM320 141q59 0 84.5 29.5t25.5 102.5q0 74 -25.5 103.5t-84.5 29.5t-84 -29.5 t-25 -103.5q0 -73 25 -102.5t84 -29.5zM148 719q6 8 17 19t25 20.5t30.5 16t33.5 6.5q20 0 38 -9.5t34.5 -21.5t31.5 -21.5t29 -9.5q17 0 31 5.5t26 14.5t21.5 20t18.5 22h8v-93q-6 -9 -16.5 -20t-24.5 -20.5t-30.5 -16t-33.5 -6.5q-20 0 -38 10t-34 21.5t-31 21.5t-30 10 q-34 0 -57.5 -20t-40.5 -43h-8v94z" />
<glyph unicode="&#xf6;" horiz-adv-x="641" d="M320 -8q-67 0 -119.5 14.5t-88.5 47.5t-54.5 86.5t-18.5 132.5q0 147 73.5 214.5t207.5 67.5q141 0 211.5 -67.5t70.5 -214.5q0 -79 -17.5 -132.5t-53 -86.5t-88 -47.5t-123.5 -14.5zM320 141q59 0 84.5 29.5t25.5 102.5q0 74 -25.5 103.5t-84.5 29.5t-84 -29.5 t-25 -103.5q0 -73 25 -102.5t84 -29.5zM379 750h125v-125h-125v125zM137 750h125v-125h-125v125z" />
<glyph unicode="&#xf7;" d="M242 641h141v-141h-141v141zM94 438h437v-141h-437v141zM242 234h141v-140h-141v140z" />
<glyph unicode="&#xf8;" horiz-adv-x="641" d="M320 -8q-105 0 -171 35q-5 -6 -9.5 -10.5t-7.5 -8.5q-4 -4 -7 -8h-86v12l55 61q-26 33 -40.5 82.5t-14.5 117.5q0 147 73.5 214.5t207.5 67.5q104 0 170 -36l26 28h86v-12l-56 -63q56 -68 56 -199q0 -79 -17.5 -132.5t-53 -86.5t-88 -47.5t-123.5 -14.5zM380 396 q-23 10 -60 10q-59 0 -84 -29.5t-25 -103.5q0 -35 6 -61zM320 141q59 0 84.5 29.5t25.5 102.5q0 37 -6 62l-164 -184q23 -10 60 -10z" />
<glyph unicode="&#xf9;" horiz-adv-x="688" d="M234 -8q-79 0 -117.5 46.5t-38.5 125.5v383h172v-336q0 -32 9.5 -51t41.5 -19q23 0 51 15t54 32l32 18v341h171v-547h-171v83l-24 -17q-47 -34 -87 -54t-93 -20zM144 766v15h133l109 -140v-16h-93z" />
<glyph unicode="&#xfa;" horiz-adv-x="688" d="M234 -8q-79 0 -117.5 46.5t-38.5 125.5v383h172v-336q0 -32 9.5 -51t41.5 -19q23 0 51 15t54 32l32 18v341h171v-547h-171v83l-24 -17q-47 -34 -87 -54t-93 -20zM285 641l109 140h133v-15l-149 -141h-93v16z" />
<glyph unicode="&#xfb;" horiz-adv-x="688" d="M234 -8q-79 0 -117.5 46.5t-38.5 125.5v383h172v-336q0 -32 9.5 -51t41.5 -19q23 0 51 15t54 32l32 18v341h171v-547h-171v83l-24 -17q-47 -34 -87 -54t-93 -20zM125 641l140 140h156l141 -140v-16h-109l-110 94l-109 -94h-109v16z" />
<glyph unicode="&#xfc;" horiz-adv-x="688" d="M234 -8q-79 0 -117.5 46.5t-38.5 125.5v383h172v-336q0 -32 9.5 -51t41.5 -19q23 0 51 15t54 32l32 18v341h171v-547h-171v83l-24 -17q-47 -34 -87 -54t-93 -20zM402 750h125v-125h-125v125zM160 750h125v-125h-125v125z" />
<glyph unicode="&#xfd;" horiz-adv-x="680" d="M141 -47h117q44 0 76.5 6t53.5 22t31.5 44.5t10.5 72.5v26l-35 -19q-32 -15 -64 -28.5t-77 -13.5q-88 0 -136 45.5t-48 133.5v305h172v-274q0 -62 63 -62q26 0 52.5 9t48.5 18l24 12v297h172v-469q0 -63 -20.5 -112.5t-57.5 -83.5t-89 -52t-115 -18h-179v141zM282 641 l109 140h133v-15l-149 -141h-93v16z" />
<glyph unicode="&#xfe;" horiz-adv-x="672" d="M78 750h172v-276l39 26q38 26 73 40.5t79 14.5q86 0 131 -47.5t45 -132.5v-109q0 -61 -22 -110.5t-61 -84t-91.5 -53t-114.5 -18.5h-78v-188h-172v938zM313 141q64 0 98 30t34 95v78q0 62 -62 62q-23 0 -50.5 -12t-51.5 -27l-31 -18v-208h63z" />
<glyph unicode="&#xff;" horiz-adv-x="680" d="M141 -47h117q44 0 76.5 6t53.5 22t31.5 44.5t10.5 72.5v26l-35 -19q-32 -15 -64 -28.5t-77 -13.5q-88 0 -136 45.5t-48 133.5v305h172v-274q0 -62 63 -62q26 0 52.5 9t48.5 18l24 12v297h172v-469q0 -63 -20.5 -112.5t-57.5 -83.5t-89 -52t-115 -18h-179v141zM399 750 h125v-125h-125v125zM157 750h125v-125h-125v125z" />
<glyph unicode="&#x131;" horiz-adv-x="344" d="M94 406h-78v141h250v-547h-172v406z" />
<glyph unicode="&#x141;" horiz-adv-x="563" d="M78 750h172v-256l137 76h8v-90l-145 -80v-166q0 -47 15.5 -66.5t62.5 -19.5h203v-148h-265q-94 0 -141 54.5t-47 148.5v103l-51 -29h-7v90l58 32v351z" />
<glyph unicode="&#x142;" horiz-adv-x="344" d="M94 609h-78v141h250v-200l43 36h7v-90l-50 -43v-453h-172v308l-35 -31h-8v90l43 36v206z" />
<glyph unicode="&#x152;" horiz-adv-x="1023" d="M383 0q-87 0 -151.5 25.5t-107 73.5t-64 117t-21.5 155v16q0 173 85.5 268t258.5 95h562v-148h-312v-149h281v-148h-281v-157h328v-148h-578v0zM461 148v454h-78q-48 0 -80 -15.5t-50.5 -43.5t-26 -68t-7.5 -88v-16q0 -48 7.5 -89t26 -71t50.5 -46.5t80 -16.5h78z" />
<glyph unicode="&#x153;" horiz-adv-x="1000" d="M320 -8q-67 0 -119.5 14.5t-88.5 47.5t-54.5 86.5t-18.5 132.5q0 147 73.5 214.5t207.5 67.5q64 0 115.5 -19.5t80.5 -51.5q35 38 84.5 54.5t106.5 16.5q51 0 96 -9t78.5 -30t52.5 -55.5t19 -85.5q0 -44 -15.5 -74.5t-42.5 -49.5t-64 -27.5t-81 -8.5h-148v-8 q0 -22 10 -35t26.5 -20t37.5 -9t43 -2q44 0 89.5 5.5t89.5 17.5h8v-141q-23 -9 -50.5 -14.5t-55 -9.5t-53 -5.5t-44.5 -1.5q-58 0 -107 14t-84 49q-35 -29 -82 -46t-110 -17zM738 316q26 0 42.5 10.5t16.5 36.5q0 18 -7.5 28t-20 15t-28.5 6.5t-34 1.5q-50 0 -77.5 -19.5 t-27.5 -70.5v-8h136zM320 141q59 0 84.5 29.5t25.5 102.5q0 74 -25.5 103.5t-84.5 29.5t-84 -29.5t-25 -103.5q0 -73 25 -102.5t84 -29.5z" />
<glyph unicode="&#x160;" horiz-adv-x="641" d="M266 -8q-22 0 -50 3t-57 7.5t-56.5 11t-47.5 13.5v145h8q16 -5 40.5 -10.5t52 -10t56.5 -7.5t54 -3h39q47 0 78 17.5t31 64.5q0 35 -26 52t-60 26l-117 31q-32 8 -60.5 24t-49.5 41.5t-33.5 61.5t-12.5 84q0 57 22 97.5t59.5 67t88 38.5t107.5 12h39q18 0 42.5 -2t51 -6 t50.5 -9t40 -11v-144h-8q-15 4 -38 8t-48.5 7.5t-49.5 5.5t-40 2h-35q-21 0 -39.5 -2.5t-32.5 -10t-22 -20t-8 -33.5q0 -16 5.5 -27.5t15.5 -20t22.5 -13.5t27.5 -9l117 -32q85 -23 128.5 -75t43.5 -143q0 -63 -21.5 -107t-60 -71.5t-91.5 -40t-116 -12.5h-39v0zM131 946v15 h109l109 -93l110 93h109v-15l-141 -141h-156z" />
<glyph unicode="&#x161;" horiz-adv-x="539" d="M223 -8q-48 0 -97 5.5t-87 14.5v144h8q44 -8 89 -13.5t87 -5.5q10 0 26.5 0.5t32 3.5t27 9t11.5 18q0 17 -11.5 23.5t-31.5 11.5l-86 20q-80 18 -116 59t-36 97q0 47 21.5 80.5t58.5 54.5t87 31t107 10q41 0 84 -5t72 -11v-144h-8q-35 5 -74.5 10t-77.5 5 q-10 0 -25.5 -0.5t-30 -3t-24.5 -8t-10 -15.5q0 -18 17 -24t37 -11l75 -16q29 -6 56 -17t48.5 -29.5t34.5 -46.5t13 -67q0 -54 -23 -89t-61.5 -55.5t-88.5 -28t-104 -7.5zM83 766v15h109l109 -93l110 93h109v-15l-141 -141h-156z" />
<glyph unicode="&#x178;" horiz-adv-x="699" d="M258 285l-242 457v8h179l157 -320l164 320h168v-8l-254 -457v-285h-172v285zM408 930h125v-125h-125v125zM166 930h125v-125h-125v125z" />
<glyph unicode="&#x17d;" horiz-adv-x="633" d="M39 102q26 31 57 72.5t63.5 87.5t65.5 94t62.5 93.5t53 85t38.5 67.5h-324v148h547v-102q-21 -41 -61 -106.5t-87.5 -137.5t-95.5 -140.5t-85 -115.5h329v-148h-563v102zM100 946v15h109l109 -93l110 93h109v-15l-141 -141h-156z" />
<glyph unicode="&#x17e;" horiz-adv-x="523" d="M31 102q71 70 139 149t115 155h-246v141h453v-102q-18 -35 -44.5 -76t-57 -82t-63 -79t-61.5 -67h234v-141h-469v102zM45 766v15h109l109 -93l110 93h109v-15l-141 -141h-156z" />
<glyph unicode="&#x192;" d="M31 -39h74q60 0 83 27t23 86v231h-117v148h117v35q0 135 71.5 198.5t205.5 63.5h75v-148h-75q-59 0 -82 -27.5t-23 -86.5v-35h148v-148h-148v-231q0 -135 -71 -198.5t-207 -63.5h-74v149z" />
<glyph unicode="&#x2c6;" horiz-adv-x="641" d="M102 641l140 140h156l141 -140v-16h-109l-110 94l-109 -94h-109v16z" />
<glyph unicode="&#x2c7;" horiz-adv-x="641" d="M102 766v15h109l109 -93l110 93h109v-15l-141 -141h-156z" />
<glyph unicode="&#x2d8;" horiz-adv-x="641" d="M320 625q-46 0 -80 16.5t-57 42t-34.5 58t-11.5 63.5h74q0 -42 31 -64t78 -22q48 0 79 22t31 64h74q0 -31 -11.5 -63.5t-34.5 -58t-57.5 -42t-80.5 -16.5z" />
<glyph unicode="&#x2d9;" horiz-adv-x="641" d="M258 750h125v-125h-125v125z" />
<glyph unicode="&#x2da;" horiz-adv-x="641" d="M320 625q-59 0 -97.5 26.5t-38.5 82.5q0 51 38.5 80.5t97.5 29.5q29 0 54 -7t43.5 -21t29 -34.5t10.5 -47.5q0 -50 -39 -79.5t-98 -29.5zM320 672q35 0 51 19.5t16 42.5q0 24 -16 43.5t-51 19.5t-50.5 -19.5t-15.5 -43.5q0 -23 15.5 -42.5t50.5 -19.5z" />
<glyph unicode="&#x2db;" horiz-adv-x="641" d="M344 -188q-22 0 -42.5 4.5t-36.5 14.5t-25.5 26t-9.5 38q0 23 15.5 46.5t35.5 35.5h94v-12q-17 -9 -34 -23t-17 -40t16 -34.5t39 -8.5h94v-47h-129v0z" />
<glyph unicode="&#x2dc;" horiz-adv-x="641" d="M148 719q6 8 17 19t25 20.5t30.5 16t33.5 6.5q20 0 38 -9.5t34.5 -21.5t31.5 -21.5t29 -9.5q17 0 31 5.5t26 14.5t21.5 20t18.5 22h8v-93q-6 -9 -16.5 -20t-24.5 -20.5t-30.5 -16t-33.5 -6.5q-20 0 -38 10t-34 21.5t-31 21.5t-30 10q-34 0 -57.5 -20t-40.5 -43h-8v94z " />
<glyph unicode="&#x2dd;" horiz-adv-x="641" d="M320 641l110 140h133v-15l-149 -141h-94v16zM78 641l110 140h132v-15l-148 -141h-94v16z" />
<glyph unicode="&#x3c0;" horiz-adv-x="711" d="M94 492h523v-492h-156v438h-211v-438h-156v492z" />
<glyph unicode="&#x2013;" horiz-adv-x="500" d="M31 438h438v-141h-438v141z" />
<glyph unicode="&#x2014;" horiz-adv-x="1000" d="M31 438h938v-141h-938v141z" />
<glyph unicode="&#x2018;" horiz-adv-x="297" d="M31 516l129 234h121l-78 -297h-172v63z" />
<glyph unicode="&#x2019;" horiz-adv-x="297" d="M94 750h172v-62l-129 -235h-121z" />
<glyph unicode="&#x201a;" horiz-adv-x="328" d="M78 172h172v-63l-129 -234h-121z" />
<glyph unicode="&#x201c;" horiz-adv-x="555" d="M289 516l129 234h121l-78 -297h-172v63zM31 516l129 234h121l-78 -297h-172v63z" />
<glyph unicode="&#x201d;" horiz-adv-x="555" d="M352 750h171v-62l-128 -235h-122zM94 750h172v-62l-129 -235h-121z" />
<glyph unicode="&#x201e;" horiz-adv-x="555" d="M336 172h172v-63l-129 -234h-121zM78 172h172v-63l-129 -234h-121z" />
<glyph unicode="&#x2020;" horiz-adv-x="602" d="M215 406h-152v141h152v203h172v-203h152v-141h-152v-531h-172v531z" />
<glyph unicode="&#x2021;" horiz-adv-x="602" d="M215 78h-152v141h152v187h-152v141h152v203h172v-203h152v-141h-152v-187h152v-141h-152v-203h-172v203z" />
<glyph unicode="&#x2022;" horiz-adv-x="500" d="M250 125q-35 0 -68.5 12t-60 35.5t-42.5 58.5t-16 82t16 82t42.5 58.5t60 35t68.5 11.5t69 -11.5t60.5 -35t42.5 -58.5t16 -82t-16 -82t-42.5 -58.5t-60.5 -35.5t-69 -12z" />
<glyph unicode="&#x2026;" horiz-adv-x="922" d="M672 172h172v-172h-172v172zM375 172h172v-172h-172v172zM78 172h172v-172h-172v172z" />
<glyph unicode="&#x2030;" horiz-adv-x="1512" d="M250 328q-103 0 -153 50t-50 161q0 112 50 161.5t153 49.5t153 -49.5t50 -161.5q0 -111 -50 -161t-153 -50zM297 16l355 734h82v-16l-355 -734h-82v16zM1246 0q-103 0 -153 50t-50 161t50 161t153 50t153 -50t50 -161t-50 -161t-153 -50zM781 0q-102 0 -152.5 50 t-50.5 161t50.5 161t152.5 50q103 0 153 -50t50 -161t-50 -161t-153 -50zM250 414q41 0 55.5 27.5t14.5 97.5q0 35 -3 59t-11 38.5t-21.5 21t-34.5 6.5t-34.5 -6.5t-21.5 -21t-11 -38.5t-3 -59q0 -70 14.5 -97.5t55.5 -27.5zM1246 86q41 0 55.5 27.5t14.5 97.5q0 35 -3 59 t-11 38.5t-21.5 21t-34.5 6.5t-34.5 -6.5t-21.5 -21t-11 -38.5t-3 -59q0 -70 14.5 -97.5t55.5 -27.5zM781 86q41 0 56 27.5t15 97.5q0 35 -3.5 59t-11.5 38.5t-21.5 21t-34.5 6.5q-20 0 -33.5 -6.5t-21.5 -21t-11.5 -38.5t-3.5 -59q0 -70 15 -97.5t55 -27.5z" />
<glyph unicode="&#x2039;" horiz-adv-x="336" d="M63 281v110l207 156h11v-125l-117 -86l117 -86v-125h-11z" />
<glyph unicode="&#x203a;" horiz-adv-x="336" d="M55 250l117 86l-117 86v125h11l207 -156v-110l-207 -156h-11v125z" />
<glyph unicode="&#x2044;" horiz-adv-x="8" d="M-219 16l356 734h82v-16l-356 -734h-82v16z" />
<glyph unicode="&#x2122;" horiz-adv-x="859" d="M391 750h105l98 -160l97 160h106v-406h-109v219l-75 -125h-39l-74 117v-211h-109v406zM129 660h-98v90h305v-90h-98v-316h-109v316z" />
<glyph unicode="&#x2126;" horiz-adv-x="758" d="M39 98h152q-31 24 -58.5 53t-48.5 64t-33 76.5t-12 91.5q0 86 28 150.5t75 107.5t108.5 64.5t128.5 21.5t128.5 -21.5t108.5 -64.5t75 -107.5t28 -150.5q0 -50 -12 -91.5t-33 -76.5t-49 -64t-59 -53h153v-98h-281v78q57 53 85 132t28 173q0 134 -45.5 207.5t-126.5 73.5 t-126.5 -73.5t-45.5 -207.5q0 -94 28.5 -173t84.5 -132v-78h-281v98z" />
<glyph unicode="&#x2202;" d="M313 -8q-60 0 -106.5 18t-78.5 51t-48.5 78t-16.5 99q0 53 15.5 95.5t43.5 72.5t67.5 46.5t87.5 16.5q40 0 79 -13t66 -38q-9 57 -30.5 104t-53.5 80t-73 51.5t-89 18.5h-51v78h78q88 0 157.5 -33.5t118 -92.5t74 -139t25.5 -172q0 -81 -20 -141t-55 -100t-84 -60 t-106 -20zM313 59q36 0 58 24t34 64.5t16.5 94.5t4.5 113q-17 17 -46 30t-64 13q-51 0 -82 -42t-31 -122q0 -84 26.5 -129.5t83.5 -45.5z" />
<glyph unicode="&#x2206;" horiz-adv-x="680" d="M20 23l253 727h141l254 -727v-23h-648v23zM484 141l-140 453l-141 -453h281z" />
<glyph unicode="&#x220f;" horiz-adv-x="813" d="M94 719h625v-719h-164v656h-297v-656h-164v719z" />
<glyph unicode="&#x2211;" horiz-adv-x="672" d="M55 31l211 317l-211 340v31h558v-63h-367l160 -261l-183 -274h390v-121h-558v31z" />
<glyph unicode="&#x2212;" d="M94 438h437v-141h-437v141z" />
<glyph unicode="&#x221e;" horiz-adv-x="598" d="M133 188q-32 0 -54.5 13.5t-36.5 35.5t-20 50t-6 57t6 57t20 50t36.5 35.5t54.5 13.5q18 0 32.5 -4t29 -13.5t30.5 -26t37 -42.5l31 -39q17 21 38 43.5t43 40.5t44.5 29.5t42.5 11.5q32 0 54.5 -13t36.5 -34.5t20 -49.5t6 -59q0 -29 -6 -57t-20 -50t-36.5 -35.5 t-54.5 -13.5q-35 0 -65.5 18.5t-67.5 63.5l-35 43q-16 -22 -35.5 -44.5t-40.5 -40.5t-42 -29t-42 -11zM461 234q38 0 54 29.5t16 80.5q0 53 -16 81t-54 28q-13 0 -31.5 -9t-38 -23.5t-39 -33.5t-36.5 -39l39 -47q31 -36 57 -51.5t49 -15.5zM133 234q19 0 37.5 9.5t35.5 24.5 t33.5 34t30.5 38l-36 43q-32 38 -55 54t-46 16q-35 0 -52.5 -28t-17.5 -81q0 -54 20.5 -82t49.5 -28z" />
<glyph unicode="&#x222b;" horiz-adv-x="367" d="M-39 -47h55q38 0 58 16t20 54v540q0 91 52 139t143 48h78v-141h-54q-38 0 -58.5 -16t-20.5 -54v-539q0 -91 -52 -139.5t-143 -48.5h-78v141z" />
<glyph unicode="&#x2248;" d="M94 477q14 26 45 48t72 22q26 0 54 -10.5t55 -23t52 -23t46 -10.5q42 0 65 17.5t40 49.5h8v-137q-14 -26 -45 -48t-72 -22q-26 0 -54 10.5t-55 22.5t-52 22.5t-46 10.5q-35 0 -60 -17t-45 -49h-8v137zM94 234q14 27 44.5 49t72.5 22q26 0 54 -10.5t55 -23t52 -23 t46 -10.5q42 0 65 17.5t40 49.5h8v-137q-14 -26 -45 -48t-72 -22q-26 0 -54 10.5t-55 22.5t-52 22.5t-46 10.5q-35 0 -60 -17t-45 -49h-8v136z" />
<glyph unicode="&#x2260;" d="M184 51l27 113h-117v141h151l26 101h-177v141h211l31 125h105v-12l-28 -113h118v-141h-152l-25 -101h177v-141h-211l-31 -125h-105v12z" />
<glyph unicode="&#x2264;" d="M94 305v125l429 222h8v-160l-261 -125l261 -125v-160h-8zM94 0h437v-141h-437v141z" />
<glyph unicode="&#x2265;" d="M94 242l261 125l-261 125v160h8l429 -222v-125l-429 -223h-8v160zM94 0h437v-141h-437v141z" />
<glyph unicode="&#x25fc;" horiz-adv-x="545" d="M0 545h545v-545h-545v545z" />
<glyph unicode="&#xfb01;" horiz-adv-x="695" d="M445 750h172v-141h-172v141zM94 406h-86v141h86v16q0 91 52 139t143 48h98v-125h-43q-38 0 -58 -16t-20 -54v-8h351v-547h-172v406h-179v-406h-172v406z" />
<glyph unicode="&#xfb02;" horiz-adv-x="695" d="M94 406h-86v141h86v16q0 91 52 139t143 48h328v-750h-172v625h-101q-38 0 -58 -16t-20 -54v-8h101v-141h-101v-406h-172v406z" />
</font>
</defs>
</svg>
