<?xml version="1.0" standalone="no"?>
<!DOCTYPE svg PUBLIC "-//W3C//DTD SVG 1.1//EN" "http://www.w3.org/Graphics/SVG/1.1/DTD/svg11.dtd" >
<svg xmlns="http://www.w3.org/2000/svg">
<metadata></metadata>
<defs>
<font id="sansalightregular" horiz-adv-x="625" >
<font-face units-per-em="1000" ascent="800" descent="-200" />
<missing-glyph horiz-adv-x="266" />
<glyph unicode="&#xd;" horiz-adv-x="266" />
<glyph unicode=" "  horiz-adv-x="266" />
<glyph unicode="&#x09;" horiz-adv-x="266" />
<glyph unicode="&#xa0;" horiz-adv-x="266" />
<glyph unicode="!" horiz-adv-x="273" d="M109 750h59l-12 -531h-35zM109 94h55v-94h-55v94z" />
<glyph unicode="&#x22;" horiz-adv-x="445" d="M266 750h54l-7 -203h-40zM94 750h54l-7 -203h-39z" />
<glyph unicode="#" d="M176 191h-145v39h145v290h-145v39h145v191h39v-191h195v191h39v-191h145v-39h-145v-290h145v-39h-145v-191h-39v191h-195v-191h-39v191zM410 230v290h-195v-290h195z" />
<glyph unicode="$" d="M266 -8q-19 1 -42 3.5t-46 6t-46 9t-42 12.5v51h8q15 -6 37.5 -12t48 -11t50 -8.5t43.5 -3.5h36q76 0 123.5 42t47.5 118q0 62 -28 97.5t-81 51.5l-109 31q-38 11 -68.5 25.5t-51.5 36t-32.5 51.5t-11.5 71q0 47 15.5 82t43 59t65.5 37t83 16v110h50v-109q19 -1 40 -3 t42 -6t40.5 -8.5t34.5 -10.5v-46h-8q-13 4 -32.5 9t-41.5 9t-44.5 6.5t-41.5 2.5h-16q-39 0 -72 -8.5t-57 -26.5t-37.5 -46t-13.5 -67q0 -56 30.5 -86.5t75.5 -42.5l109 -32q38 -11 69 -27t53 -40t34 -57.5t12 -78.5q0 -49 -16 -87t-45 -64t-69.5 -40.5t-88.5 -15.5v-117 h-50v117z" />
<glyph unicode="%" horiz-adv-x="938" d="M242 328q-82 0 -130.5 54t-48.5 157t48.5 157t130.5 54q83 0 131.5 -53.5t48.5 -156.5q0 -104 -48.5 -158t-131.5 -54zM266 12l375 738h31v-12l-375 -738h-31v12zM695 0q-82 0 -130.5 54t-48.5 157t48.5 157t130.5 54q83 0 131.5 -54t48.5 -157q0 -104 -48.5 -157.5 t-131.5 -53.5zM242 359q29 0 55 10.5t45 32.5t30 56t11 81t-11 81t-30 56t-45 32.5t-55 10.5t-54.5 -10.5t-44.5 -32.5t-30 -56t-11 -81t11 -81t30 -56t44.5 -32.5t54.5 -10.5zM695 31q29 0 55 10.5t45 32.5t30 56t11 81t-11 81t-30 56t-45 32.5t-55 10.5t-54.5 -10.5 t-44.5 -32.5t-30 -56t-11 -81t11 -81t30 -56t44.5 -32.5t54.5 -10.5z" />
<glyph unicode="&#x26;" horiz-adv-x="656" d="M324 -8q-54 0 -96.5 16t-72.5 45t-45.5 69.5t-15.5 88.5q0 59 30 108t83 76q-21 10 -37.5 27t-28 38t-18 45.5t-6.5 49.5q0 44 18.5 81t49 64t71 42.5t84.5 15.5h8q44 0 87.5 -8.5t72.5 -22.5v-47h-8q-29 14 -68.5 22.5t-83.5 8.5h-8q-32 0 -63 -10t-55 -30t-39 -49 t-15 -67q0 -25 8.5 -49t23 -42.5t34.5 -30t43 -11.5h332v-47h-89v-344q-35 -14 -86 -26.5t-110 -12.5zM324 39q87 0 145 24v312h-172q-34 0 -62 -13t-48 -35.5t-31 -52t-11 -63.5q0 -41 13 -73t37 -54t57 -33.5t72 -11.5z" />
<glyph unicode="'" horiz-adv-x="242" d="M94 750h54l-7 -203h-39z" />
<glyph unicode="(" horiz-adv-x="297" d="M227 -125q-86 62 -133 172t-47 250v31q0 140 47 250t133 172h23v-16q-47 -41 -77 -88.5t-47.5 -99.5t-24.5 -107t-7 -111v-31q0 -56 7 -111t24.5 -107t47.5 -99.5t77 -88.5v-16h-23v0z" />
<glyph unicode=")" horiz-adv-x="297" d="M47 -109q47 41 77 88.5t47.5 99.5t24.5 107t7 111v31q0 56 -7 111t-24.5 107t-47.5 99.5t-77 88.5v16h23q86 -62 133 -172t47 -250v-31q0 -140 -47 -250t-133 -172h-23v16z" />
<glyph unicode="*" horiz-adv-x="500" d="M227 502l-145 -83l-23 41l144 83l-144 83l23 41l145 -83v166h46v-166l145 83l23 -41l-144 -83l144 -83l-23 -41l-145 83v-166h-46v166z" />
<glyph unicode="+" d="M293 348h-199v39h199v199h39v-199h199v-39h-199v-200h-39v200z" />
<glyph unicode="," horiz-adv-x="273" d="M109 94h55v-47l-82 -172h-31z" />
<glyph unicode="-" horiz-adv-x="406" d="M63 387h281v-39h-281v39z" />
<glyph unicode="." horiz-adv-x="273" d="M109 94h55v-94h-55v94z" />
<glyph unicode="/" horiz-adv-x="461" d="M31 -109l364 859h35v-16l-364 -859h-35v16z" />
<glyph unicode="0" d="M313 -8q-247 0 -247 383q0 192 60 287.5t187 95.5q124 0 185 -97t61 -286q0 -383 -246 -383zM313 39q47 0 83.5 18t61 58.5t37.5 104.5t13 155q0 92 -13 155.5t-37.5 104t-61 58.5t-83.5 18t-83.5 -18t-61.5 -58.5t-38 -104t-13 -155.5q0 -174 51 -255t145 -81z" />
<glyph unicode="1" d="M328 691l-203 -89h-8v46l235 102h27v-750h-51v691z" />
<glyph unicode="2" d="M94 78q0 40 8.5 77t29 70t53.5 61t81 50l74 35q66 28 105 73t39 107q0 47 -15 76.5t-40.5 46.5t-58.5 23t-69 6h-176v47h176q118 0 176 -51t58 -148q0 -42 -16 -77t-43 -63t-61.5 -49.5t-70.5 -37.5l-74 -35q-66 -31 -97.5 -84t-31.5 -127v-31h398v-47h-445v78z" />
<glyph unicode="3" d="M94 47h195q94 0 148.5 46t54.5 137q0 43 -12.5 73t-36.5 48.5t-58 27t-76 8.5h-125v47h183q56 32 79 66.5t23 77.5q0 62 -40 93.5t-128 31.5h-188v47h188q106 0 162.5 -44t56.5 -128q0 -29 -9 -53.5t-23.5 -44t-33.5 -35t-40 -27.5q29 -10 53 -26t41 -38.5t26 -53 t9 -70.5q0 -51 -17.5 -93.5t-50.5 -72.5t-80 -47t-106 -17h-195v47z" />
<glyph unicode="4" d="M418 195h-367v39q44 60 77.5 124.5t58 130.5t40.5 132t23 129h51q-21 -144 -69.5 -273t-122.5 -235h309v250h51v-250h97v-47h-97v-195h-51v195z" />
<glyph unicode="5" d="M98 47h175q103 0 153.5 52t50.5 147q0 46 -14.5 78t-41 52t-63.5 29t-81 9h-164v336h395v-47h-344v-242h113q66 0 113 -16t77.5 -44.5t45 -68t14.5 -86.5q0 -44 -14 -88t-44 -79t-78.5 -57t-117.5 -22h-175v47z" />
<glyph unicode="6" d="M313 -8q-112 0 -165.5 61.5t-53.5 176.5v243q0 53 17.5 102.5t53.5 88.5t92 62.5t134 23.5h109v-47h-117q-118 0 -178 -64.5t-60 -185.5v-56q15 11 34.5 22t43 20.5t49 15.5t52.5 6q106 0 162.5 -57.5t56.5 -169.5q0 -45 -13 -88.5t-40.5 -77.5t-71 -55t-105.5 -21z M313 39q38 0 70.5 10t56.5 33.5t38 60.5t14 91q0 97 -44 138.5t-124 41.5q-54 0 -100.5 -20t-78.5 -43v-124q0 -100 44 -144t124 -44z" />
<glyph unicode="7" d="M234 47q0 102 26 199.5t66 182.5t86.5 155.5t87.5 118.5h-437v47h500v-34q-53 -62 -103 -135t-89 -155.5t-62.5 -172.5t-23.5 -187v-66h-51v47z" />
<glyph unicode="8" d="M293 -8q-45 0 -84 11.5t-67 36.5t-44 64.5t-16 94.5q0 62 28.5 101t73.5 67l53 34l-3 1q-25 11 -48.5 25.5t-41.5 35t-28.5 48t-10.5 63.5q0 51 18 86.5t46.5 57t64.5 31t71 9.5h27q37 0 71.5 -9.5t61 -30.5t42.5 -55.5t16 -84.5q0 -33 -7 -56t-19.5 -41t-30.5 -33.5 t-40 -33.5l-40 -28l16 -7q30 -13 55 -29t43 -37t28.5 -49t10.5 -65q0 -51 -17 -89.5t-46.5 -65t-68.5 -39.5t-83 -13h-31v0zM379 430q21 15 38 29.5t29.5 31.5t19.5 38t7 49q0 38 -11 63.5t-31 41t-47.5 22t-59.5 6.5h-11q-34 0 -62.5 -6.5t-49.5 -22t-33 -42t-12 -66.5 q0 -50 25 -80.5t69 -48.5l95 -41zM316 39q35 0 66.5 7.5t55 25.5t37 49t13.5 78q0 52 -29 85t-72 52l-109 48l-48 -32q-15 -10 -32 -22.5t-31.5 -30.5t-24 -42t-9.5 -58q0 -47 13 -78t35.5 -49t53.5 -25.5t66 -7.5h15z" />
<glyph unicode="9" d="M133 47h113q54 0 97.5 12.5t73.5 40t46.5 71.5t16.5 106v73q-30 -18 -77 -35.5t-98 -17.5q-106 0 -160.5 59.5t-54.5 166.5q0 47 13 90t40 75t69 51t101 19q109 0 163.5 -60t54.5 -175v-246q0 -52 -15 -102t-48 -89t-86.5 -62.5t-131.5 -23.5h-117v47zM305 344 q54 0 98.5 16t76.5 36v131q0 98 -45.5 141t-121.5 43q-37 0 -68.5 -8.5t-54.5 -30t-36 -58t-13 -91.5q0 -52 13 -87t35.5 -55t52 -28.5t63.5 -8.5z" />
<glyph unicode=":" horiz-adv-x="273" d="M109 547h55v-94h-55v94zM109 94h55v-94h-55v94z" />
<glyph unicode=";" horiz-adv-x="273" d="M109 547h55v-94h-55v94zM109 94h55v-47l-82 -172h-31z" />
<glyph unicode="&#x3c;" d="M94 348v39l429 222h8v-43l-383 -199l383 -199v-43h-8z" />
<glyph unicode="=" d="M94 496h437v-39h-437v39zM94 277h437v-39h-437v39z" />
<glyph unicode="&#x3e;" d="M94 168l383 199l-383 199v43h8l429 -222v-39l-429 -223h-8v43z" />
<glyph unicode="?" horiz-adv-x="434" d="M145 281l105 125q43 51 64.5 92.5t21.5 79.5q0 62 -31.5 95.5t-105.5 33.5h-136v43h121q105 0 152 -43.5t47 -128.5q0 -38 -18.5 -82t-67.5 -101l-106 -122v-85h-46v93zM141 94h54v-94h-54v94z" />
<glyph unicode="@" horiz-adv-x="930" d="M477 -102q-79 0 -153.5 24.5t-132.5 76.5t-93 133.5t-35 195.5q0 108 35 189t93.5 134.5t134.5 80t158 26.5q85 0 155.5 -24t121 -69.5t78.5 -112.5t28 -154q0 -52 -17 -96.5t-47.5 -77t-73.5 -50.5t-96 -18h-172q-35 0 -65 11.5t-52 33.5t-34.5 54t-12.5 73q0 44 15 79 t40 59t57.5 37t67.5 13h132v-317h24q36 0 69.5 11t58.5 34.5t40 61.5t15 92q0 74 -22 132.5t-64.5 99.5t-104.5 63t-141 22q-73 0 -140 -24t-118.5 -72.5t-82 -121t-30.5 -169.5q0 -89 26.5 -160.5t74.5 -122t114 -77.5t145 -27q44 0 93.5 6.5t85.5 17.5h8v-43 q-18 -6 -40.5 -10.5t-46.5 -7.5t-49 -4.5t-47 -1.5zM559 199v274h-90q-54 0 -87.5 -40t-33.5 -105q0 -59 28 -94t81 -35h102z" />
<glyph unicode="A" d="M31 8q12 50 22.5 90t21 76.5t20.5 71.5t22 74q18 60 41.5 126.5t46.5 126.5t43.5 107.5t32.5 69.5h63q12 -22 32.5 -69.5t43.5 -107.5t46.5 -126.5t41.5 -126.5q12 -39 22.5 -74t20.5 -71.5t20.5 -76.5t22.5 -90v-8h-55q-8 34 -15 63t-14 55t-13.5 50.5t-14.5 50.5h-339 q-7 -26 -14 -50.5t-14 -50.5t-14 -54.5t-15 -63.5h-55v8zM469 266q-4 12 -7.5 26t-8.5 28q-15 50 -32.5 102t-36.5 102.5t-37 96t-34 82.5q-16 -37 -34.5 -82.5t-37.5 -96t-36.5 -102.5t-32.5 -102q-5 -14 -8.5 -28t-7.5 -26h313z" />
<glyph unicode="B" horiz-adv-x="609" d="M94 750h246q91 0 137 -48t46 -139q0 -63 -22 -105t-75 -71q59 -26 86 -69t27 -111q0 -97 -49 -152t-146 -55h-250v750zM355 406q31 0 53.5 14t36.5 36.5t21 50.5t7 56q0 67 -28.5 103.5t-96.5 36.5h-203v-297h210zM352 47q76 0 106 41.5t30 118.5q0 29 -8.5 56.5 t-25.5 48.5t-42 34t-57 13h-210v-312h207z" />
<glyph unicode="C" horiz-adv-x="609" d="M359 -8q-78 0 -135 23.5t-94.5 67t-56 105.5t-18.5 140v94q0 78 21 140t61.5 105.5t100 67t137.5 23.5q26 0 52.5 -3t50.5 -7.5t44 -11t33 -13.5v-168h-47v136q-12 5 -28.5 8.5t-35 6t-36.5 4t-33 1.5q-138 0 -204 -76t-66 -213v-94q0 -67 14.5 -121t45.5 -91t79 -57 t115 -20h32q20 0 42 3.5t42 8t37 10t27 9.5h8v-43q-9 -4 -26 -10t-38 -11.5t-45 -9.5t-47 -4h-32v0z" />
<glyph unicode="D" horiz-adv-x="680" d="M94 750h211q159 0 235.5 -77t76.5 -235v-110q0 -75 -18.5 -135.5t-55 -103t-92.5 -66t-131 -23.5h-226v750zM328 47q65 0 110 19.5t73.5 56.5t41.5 89t13 116v110q0 132 -60.5 198.5t-192.5 66.5h-168v-656h183z" />
<glyph unicode="E" horiz-adv-x="555" d="M270 0q-89 0 -132.5 42t-43.5 130v578h398v-47h-347v-281h316v-47h-316v-207q0 -121 121 -121h226v-47h-222v0z" />
<glyph unicode="F" horiz-adv-x="523" d="M94 578q0 88 43.5 130t132.5 42h207v-47h-211q-121 0 -121 -121v-160h316v-47h-316v-375h-51v578z" />
<glyph unicode="G" horiz-adv-x="660" d="M375 0q-156 0 -238 86t-82 242v94q0 76 22.5 138t65 106t103.5 68t137 24q32 0 62.5 -3.5t56.5 -8.5t46.5 -11t33.5 -12v-43h-8q-18 6 -40 11.5t-47 10t-51.5 7t-52.5 2.5q-66 0 -117.5 -20t-87.5 -57t-54.5 -90.5t-18.5 -121.5v-94q0 -133 68.5 -207t201.5 -74h31 q35 0 70 7.5t55 15.5v278h-172v47h223v-356q-13 -6 -34 -13t-45 -12.5t-49.5 -9.5t-47.5 -4h-31v0z" />
<glyph unicode="H" horiz-adv-x="688" d="M94 750h51v-328h398v328h51v-750h-51v375h-398v-375h-51v750z" />
<glyph unicode="I" horiz-adv-x="238" d="M94 750h51v-750h-51v750z" />
<glyph unicode="J" horiz-adv-x="426" d="M47 47h98q36 0 62 12.5t42.5 35t24 53t7.5 67.5v488h-203v47h254v-531q0 -48 -11.5 -88.5t-35.5 -69.5t-60 -45t-84 -16h-94v47z" />
<glyph unicode="K" horiz-adv-x="563" d="M94 750h51v-336h46l297 336h51v-8l-309 -347l317 -387v-8h-59l-300 367h-43v-367h-51v750z" />
<glyph unicode="L" horiz-adv-x="492" d="M270 0q-89 0 -132.5 42t-43.5 130v578h51v-582q0 -121 121 -121h211v-47h-207v0z" />
<glyph unicode="M" horiz-adv-x="789" d="M94 750h35l266 -383l265 383h35v-750h-50v645l-243 -348h-15l-242 348v-645h-51v750z" />
<glyph unicode="N" horiz-adv-x="668" d="M94 750h39l410 -641v641h51v-750h-39l-410 641v-641h-51v750z" />
<glyph unicode="O" horiz-adv-x="688" d="M344 -8q-78 0 -132.5 28t-89.5 77.5t-51 116.5t-16 145v32q0 78 16 145t51 116.5t89.5 77.5t132.5 28t132.5 -28t89.5 -77.5t51 -116.5t16 -145v-32q0 -78 -16 -145t-51 -116.5t-89.5 -77.5t-132.5 -28zM344 39q67 0 112.5 25t73.5 68t40 101.5t12 125.5v32 q0 67 -12 125.5t-40 101.5t-73.5 68t-112.5 25t-113 -25t-74 -68t-40 -101.5t-12 -125.5v-32q0 -67 12 -125.5t40 -101.5t74 -68t113 -25z" />
<glyph unicode="P" horiz-adv-x="578" d="M94 750h215q115 0 168.5 -57.5t53.5 -172.5q0 -56 -14.5 -101.5t-43 -78t-70.5 -50t-98 -17.5h-160v-273h-51v750zM313 320q45 0 77 14t52 40t29 63t9 83q0 42 -8.5 76t-27 58t-48 36.5t-72.5 12.5h-179v-383h168z" />
<glyph unicode="Q" horiz-adv-x="688" d="M453 -188q-65 0 -99 30.5t-34 94.5v56q-71 4 -121 34t-82 79t-47 113.5t-15 139.5v32q0 78 16 145t51 116.5t89.5 77.5t132.5 28t132.5 -28t89.5 -77.5t51 -116.5t16 -145v-32q0 -74 -14.5 -138.5t-46 -113t-81.5 -79t-120 -35.5v-56q0 -41 20 -59.5t62 -18.5q29 0 58 7 t44 13h8v-47q-24 -9 -54 -14.5t-56 -5.5zM344 39q67 0 112.5 25t73.5 68t40 101.5t12 125.5v32q0 67 -12 125.5t-40 101.5t-73.5 68t-112.5 25t-113 -25t-74 -68t-40 -101.5t-12 -125.5v-32q0 -67 12 -125.5t40 -101.5t74 -68t113 -25z" />
<glyph unicode="R" horiz-adv-x="609" d="M94 750h234q109 0 156 -53t47 -162q0 -73 -38 -128t-106 -75q19 -18 38 -44.5t36.5 -57t34 -63t29.5 -62.5t23 -55.5t15 -41.5v-8h-55q-4 16 -13.5 41t-22.5 54.5t-29.5 61t-34.5 61t-36 54.5t-36 41h-191v-313h-51v750zM316 359q38 0 68.5 13.5t51.5 37t32.5 55.5 t11.5 70q0 41 -7 72.5t-24 52.5t-44.5 32t-68.5 11h-191v-344h171z" />
<glyph unicode="S" horiz-adv-x="551" d="M238 -8q-19 0 -43 2t-49 6t-50 10t-45 13v51h8q15 -6 37.5 -12t48 -11t50 -8.5t43.5 -3.5h35q77 0 124.5 42t47.5 118q0 62 -28 97.5t-81 51.5l-109 31q-38 11 -68.5 25.5t-51.5 36t-32.5 51.5t-11.5 71q0 50 18 86.5t49.5 60.5t74 36t92.5 12h12q19 0 41.5 -2t45 -6 t44 -9t37.5 -11v-46h-8q-13 4 -32.5 9t-41.5 9t-44.5 6.5t-41.5 2.5h-16q-39 0 -72 -8.5t-57 -26.5t-37.5 -46t-13.5 -67q0 -56 30.5 -86.5t75.5 -42.5l109 -32q38 -11 69 -27t53 -40t34 -57.5t12 -78.5q0 -50 -16.5 -88.5t-46.5 -65t-71.5 -40t-91.5 -13.5h-32v0z" />
<glyph unicode="T" horiz-adv-x="566" d="M266 703h-250v47h535v-47h-235v-703h-50v703z" />
<glyph unicode="U" horiz-adv-x="672" d="M336 -8q-132 0 -191 63t-59 195v500h51v-516q0 -97 51 -146t148 -49t148 49t51 146v516h51v-500q0 -130 -60 -194t-190 -64z" />
<glyph unicode="V" horiz-adv-x="594" d="M266 0q-40 66 -76.5 156.5t-67.5 191t-54.5 203t-36.5 191.5v8h51q19 -103 39.5 -194.5t46 -176.5t57 -166.5t72.5 -165.5q39 81 71 162t58 166.5t47 178t39 196.5h51v-8q-9 -59 -23 -125.5t-32 -134.5t-39.5 -135.5t-45 -130.5t-48.5 -118t-51 -98h-58v0z" />
<glyph unicode="W" horiz-adv-x="875" d="M219 0q-29 71 -58 159t-54.5 185.5t-45 199t-30.5 198.5v8h51q29 -204 69 -380t99 -323q59 144 101.5 321.5t62.5 381.5h47q23 -204 62 -381.5t98 -321.5q59 147 101 323t71 380h51v-8q-13 -97 -33 -198.5t-45 -199t-54 -185.5t-60 -159h-62q-22 47 -43.5 109.5 t-41.5 133.5t-37 147t-30 149q-13 -73 -30.5 -149t-38 -147t-42.5 -133.5t-46 -109.5h-62v0z" />
<glyph unicode="X" horiz-adv-x="563" d="M20 8l235 373l-232 361v8h55l206 -322l204 322h55v-8l-228 -361l240 -373v-8h-55l-215 334l-211 -334h-54v8z" />
<glyph unicode="Y" horiz-adv-x="563" d="M258 309l-235 433v8h51l211 -387l207 387h51v-8l-234 -433v-309h-51v309z" />
<glyph unicode="Z" horiz-adv-x="574" d="M47 39q27 36 63 87.5t75 111.5t79 124.5t75.5 126t64.5 117t45 97.5h-390v47h449v-39q-23 -58 -56.5 -122.5t-71.5 -130t-77.5 -129t-76 -118t-66 -97t-47.5 -67.5h414v-47h-480v39z" />
<glyph unicode="[" horiz-adv-x="289" d="M94 750h148v-43h-101v-789h101v-43h-148v875z" />
<glyph unicode="\" horiz-adv-x="461" d="M31 734v16h35l364 -859v-16h-35z" />
<glyph unicode="]" horiz-adv-x="289" d="M47 -82h101v789h-101v43h148v-875h-148v43z" />
<glyph unicode="^" d="M70 117l223 430h39l223 -430v-8h-43l-199 383l-200 -383h-43v8z" />
<glyph unicode="_" d="M31 0h563v-39h-563v39z" />
<glyph unicode="`" horiz-adv-x="555" d="M117 766v15h63l113 -140v-16h-27z" />
<glyph unicode="a" horiz-adv-x="551" d="M199 -8q-35 0 -61.5 13t-44 35.5t-26 53.5t-8.5 66v133q0 59 19.5 106t54.5 80t84 50.5t107 17.5h133v-547h-47v120l-35 -34q-16 -16 -34 -33t-39.5 -30.5t-46.5 -22t-56 -8.5zM207 35q22 0 42 7.5t38.5 19.5t35 27.5t32.5 31.5l55 54v329h-90q-99 0 -157 -55t-58 -152 v-137q0 -26 6 -49t18.5 -40t32 -26.5t45.5 -9.5z" />
<glyph unicode="b" horiz-adv-x="551" d="M94 750h47v-323l35 34q16 16 34 33t39.5 30.5t46.5 22t56 8.5q35 0 61 -13t43.5 -36t26.5 -53.5t9 -65.5v-133q0 -58 -19.5 -105t-54.5 -80t-83.5 -51t-107.5 -18h-133v750zM230 43q100 0 157.5 55t57.5 152v137q0 26 -6 49t-18.5 40t-31.5 26.5t-45 9.5q-22 0 -42 -7.5 t-38.5 -19.5t-35.5 -27.5t-33 -31.5l-54 -54v-329h89z" />
<glyph unicode="c" horiz-adv-x="469" d="M262 -8q-97 0 -150 53t-53 150v149q0 48 15 87t42.5 66.5t66.5 42.5t87 15q19 0 39.5 -2t40 -6.5t37.5 -11t31 -15.5v-114h-47v86q-20 9 -44.5 14.5t-56.5 5.5q-80 0 -122.5 -44.5t-42.5 -123.5v-149q0 -76 40 -118t117 -42q19 0 40 3.5t41.5 9t37.5 12.5t29 14h8v-39 q-12 -9 -30 -16.5t-39.5 -13.5t-44 -9.5t-42.5 -3.5z" />
<glyph unicode="d" horiz-adv-x="551" d="M199 -8q-35 0 -61.5 13t-44 35.5t-26 53.5t-8.5 66v133q0 59 19.5 106t54.5 80t84 50.5t107 17.5h86v203h47v-750h-47v120l-35 -34q-16 -16 -34 -33t-39.5 -30.5t-46.5 -22t-56 -8.5zM207 35q22 0 42 7.5t38.5 19.5t35 27.5t32.5 31.5l55 54v329h-90q-99 0 -157 -55 t-58 -152v-137q0 -26 6 -49t18.5 -40t32 -26.5t45.5 -9.5z" />
<glyph unicode="e" horiz-adv-x="500" d="M262 -8q-97 0 -150 53t-53 150v149q0 48 15.5 87t43 66.5t66.5 42.5t86 15q38 0 70.5 -9.5t56.5 -28.5t38 -48t14 -67q0 -36 -12.5 -63t-35 -45t-53 -27t-67.5 -9h-176v-63q0 -76 40 -118t117 -42q41 0 77 11t71 28h8v-39q-26 -17 -67.5 -30t-88.5 -13zM285 301 q56 0 86.5 22.5t30.5 78.5q0 28 -10 49t-28 34.5t-42 20t-52 6.5q-80 0 -122.5 -44.5t-42.5 -123.5v-43h180z" />
<glyph unicode="f" horiz-adv-x="336" d="M133 504h-102v43h102v39q0 79 42 121.5t122 42.5h55v-43h-55q-62 0 -89.5 -29.5t-27.5 -91.5v-39h156v-43h-156v-504h-47v504z" />
<glyph unicode="g" horiz-adv-x="551" d="M90 -145h113q106 0 156.5 58.5t50.5 164.5v15l-19 -11q-33 -20 -74.5 -35.5t-86.5 -15.5q-85 0 -128 51t-43 137v74q0 62 20.5 109t56.5 79.5t84.5 49t103.5 16.5h133v-465q0 -130 -64 -200t-194 -70h-109v43zM234 74q20 0 41.5 4.5t42 12t39.5 16.5t34 18l19 11v368h-90 q-48 0 -88 -13.5t-68 -40t-43.5 -65t-15.5 -88.5v-78q0 -68 31 -106.5t98 -38.5z" />
<glyph unicode="h" horiz-adv-x="578" d="M94 750h47v-322l39 37q10 10 26.5 25.5t38 29.5t46.5 24.5t53 10.5q76 0 108 -44t32 -120v-391h-46v391q0 53 -22.5 87t-75.5 34q-22 0 -44 -10t-42 -25t-39 -33t-35 -34l-39 -37v-373h-47v750z" />
<glyph unicode="i" horiz-adv-x="258" d="M117 750h47v-78h-47v78zM117 504h-101v43h148v-547h-47v504z" />
<glyph unicode="j" horiz-adv-x="266" d="M125 750h47v-78h-47v78zM-55 -145h24q44 0 74 13.5t48 38.5t26 60.5t8 79.5v457h-102v43h149v-484q0 -57 -10.5 -103.5t-34 -79.5t-62.5 -50.5t-96 -17.5h-24v43z" />
<glyph unicode="k" horiz-adv-x="473" d="M94 750h47v-430h62l188 227h47v-8l-200 -238l211 -293v-8h-51l-199 277h-58v-277h-47v750z" />
<glyph unicode="l" horiz-adv-x="242" d="M102 707h-102v43h148v-750h-46v707z" />
<glyph unicode="m" horiz-adv-x="922" d="M94 547h47v-120l39 38q10 10 26.5 25.5t38 29.5t46.5 24.5t53 10.5q67 0 99.5 -34t38.5 -95h2l39 39q11 10 27.5 25.5t37.5 29.5t46.5 24.5t53.5 10.5q76 0 108 -44t32 -120v-391h-47v391q0 26 -5.5 48.5t-17 38.5t-30 25t-44.5 9q-22 0 -44 -10t-42.5 -25t-39.5 -33 t-35 -34l-39 -37v-373h-46v391q0 53 -22.5 87t-75.5 34q-22 0 -44 -10t-42 -25t-39 -33t-35 -34l-39 -38v-372h-47v547z" />
<glyph unicode="n" horiz-adv-x="578" d="M94 547h47v-120l39 38q10 10 26.5 25.5t38 29.5t46.5 24.5t53 10.5q76 0 108 -44t32 -120v-391h-46v391q0 53 -22.5 87t-75.5 34q-22 0 -44 -10t-42 -25t-39 -33t-35 -34l-39 -38v-372h-47v547z" />
<glyph unicode="o" horiz-adv-x="555" d="M277 -8q-60 0 -102 22t-69 60.5t-39 90.5t-12 112t13 111t40 88t69 58t100 21q60 0 102.5 -21t69.5 -58t39 -88t12 -111t-12 -112t-38 -90.5t-68.5 -60.5t-104.5 -22zM277 35q50 0 83.5 19.5t54 52.5t29.5 77t9 93q0 50 -9 93t-29.5 74.5t-54 49.5t-83.5 18 q-49 0 -83 -18t-54 -49.5t-29 -74.5t-9 -93q0 -49 9 -93t29 -77t54 -52.5t83 -19.5z" />
<glyph unicode="p" horiz-adv-x="551" d="M94 547h47v-120l35 34q16 16 34 33t39.5 30.5t46.5 22t56 8.5q35 0 61 -13t43.5 -36t26.5 -53.5t9 -65.5v-133q0 -58 -19.5 -105t-54.5 -80t-83.5 -51t-107.5 -18h-86v-188h-47v735zM230 43q100 0 157.5 55t57.5 152v137q0 26 -6 49t-18.5 40t-31.5 26.5t-45 9.5 q-22 0 -42 -7.5t-38.5 -19.5t-35.5 -27.5t-33 -31.5l-54 -54v-329h89z" />
<glyph unicode="q" horiz-adv-x="551" d="M410 120l-35 -34q-16 -16 -34 -33t-39.5 -30.5t-46.5 -22t-56 -8.5q-35 0 -61.5 13t-44 35.5t-26 53.5t-8.5 66v133q0 59 19.5 106t54.5 80t84 50.5t107 17.5h133v-735h-47v308zM207 35q22 0 42 7.5t38.5 19.5t35 27.5t32.5 31.5l55 54v329h-90q-99 0 -157 -55t-58 -152 v-137q0 -26 6 -49t18.5 -40t32 -26.5t45.5 -9.5z" />
<glyph unicode="r" horiz-adv-x="355" d="M94 547h47v-111l43 48q20 25 49.5 44t71.5 19h35v-47h-35q-19 0 -36 -6.5t-31.5 -17t-27 -22.5t-22.5 -24q-12 -15 -23 -26q-9 -10 -16.5 -18t-7.5 -9v-377h-47v547z" />
<glyph unicode="s" horiz-adv-x="484" d="M223 -8q-13 0 -31.5 1t-39 3t-42 6t-40.5 10v47h8q32 -12 71 -18t74 -6q32 0 60 7t48.5 21.5t32 37.5t11.5 55q0 42 -21 63t-73 35l-78 19q-28 8 -52.5 17t-42.5 24t-28 38t-10 58q0 38 17 65.5t45 45t64 26t74 8.5q23 0 58 -3.5t70 -12.5v-43h-7q-24 6 -59 11t-62 5 q-30 0 -57.5 -5t-48.5 -17t-34 -31.5t-13 -48.5q0 -42 22 -60.5t64 -29.5l78 -19q26 -7 51 -16.5t45 -26t32.5 -41t12.5 -61.5q0 -41 -15 -71.5t-42 -51t-63.5 -31t-78.5 -10.5z" />
<glyph unicode="t" horiz-adv-x="383" d="M297 0q-47 0 -78.5 12t-50.5 35.5t-27 58.5t-8 82v316h-102v43h102v125h47v-125h156v-43h-156v-332q0 -68 28.5 -98.5t96.5 -30.5h47v-43h-55v0z" />
<glyph unicode="u" horiz-adv-x="574" d="M230 -8q-76 0 -108 44t-32 120v391h47v-391q0 -26 5.5 -48.5t17 -38.5t30 -25t44.5 -9q22 0 44 10t42.5 25t39.5 33t35 34l39 38v372h46v-547h-46v120l-39 -38q-10 -10 -27 -25.5t-38 -29.5t-46.5 -24.5t-53.5 -10.5z" />
<glyph unicode="v" horiz-adv-x="484" d="M219 0q-22 22 -50.5 58.5t-53.5 86t-42.5 111.5t-17.5 135v156h47v-156q0 -67 14.5 -123.5t36 -101t46 -76.5t43.5 -51q19 19 43.5 51t46 76.5t36.5 101t15 123.5v156h47v-156q0 -73 -18 -135t-44 -111.5t-55 -86t-51 -58.5h-43v0z" />
<glyph unicode="w" horiz-adv-x="727" d="M191 0q-20 22 -44 59.5t-44.5 87.5t-34 112t-13.5 132v156h47v-156q0 -59 11.5 -114.5t29 -102.5t38 -82t38.5 -53q13 18 33.5 50.5t40 77.5t33.5 100t14 116v164h47v-164q0 -61 14 -116t33.5 -100t40 -77.5t33.5 -50.5q18 18 38.5 53t38 82t29 102.5t11.5 114.5v156h47 v-156q0 -70 -14.5 -132t-35.5 -112t-45.5 -87.5t-45.5 -59.5h-43q-15 15 -33.5 42.5t-36.5 61.5t-32.5 71t-22.5 71q-7 -34 -22 -71t-33 -71t-36.5 -61.5t-33.5 -42.5h-47v0z" />
<glyph unicode="x" horiz-adv-x="469" d="M23 8l185 268l-177 263v8h51l154 -230l159 230h50v-8l-180 -263l180 -268v-8h-50l-159 235l-162 -235h-51v8z" />
<glyph unicode="y" horiz-adv-x="574" d="M137 -145h101q56 0 93.5 14t60.5 42t32.5 70t9.5 97v46l-12 -7q-12 -8 -31 -17.5t-41 -17.5t-47 -13.5t-49 -5.5q-82 0 -123 48.5t-41 130.5v305h47v-305q0 -68 28.5 -102.5t96.5 -34.5q22 0 45 5.5t44.5 14t40 18t30.5 17.5l12 7v380h46v-461q0 -66 -13 -117t-42 -86 t-75 -53t-112 -18h-101v43z" />
<glyph unicode="z" horiz-adv-x="500" d="M55 35q42 53 89.5 117t91.5 128t81.5 123t61.5 101h-309v43h368v-35q-13 -24 -36 -61.5t-52 -81t-61 -90.5t-63.5 -91t-59.5 -81.5t-49 -63.5h328v-43h-390v35z" />
<glyph unicode="{" horiz-adv-x="469" d="M359 -125q-49 0 -82 10.5t-53 31.5t-28 53.5t-8 76.5v125q0 53 -37 84t-120 37v39q83 6 120 35.5t37 85.5v125q0 44 8 76.5t28 53.5t53 31.5t82 10.5h32v-43h-63q-53 0 -73.5 -31t-20.5 -90v-125q0 -37 -9.5 -62.5t-26.5 -42.5t-39.5 -27t-49.5 -16q27 -6 49.5 -15.5 t39.5 -26.5t26.5 -43t9.5 -64v-125q0 -59 20.5 -90t73.5 -31h63v-43h-32v0z" />
<glyph unicode="|" horiz-adv-x="273" d="M117 813h39v-1001h-39v1001z" />
<glyph unicode="}" horiz-adv-x="469" d="M78 -82h63q53 0 73 31t20 90v125q0 38 9.5 64t26.5 43t40 26.5t49 15.5q-26 6 -49 16t-40 27t-26.5 42.5t-9.5 62.5v125q0 59 -20 90t-73 31h-63v43h31q50 0 83 -10.5t53 -31.5t28 -53.5t8 -76.5v-125q0 -56 37 -85.5t120 -35.5v-39q-83 -6 -120 -37t-37 -84v-125 q0 -44 -8 -76.5t-28 -53.5t-53 -31.5t-83 -10.5h-31v43z" />
<glyph unicode="~" d="M94 316q14 27 44.5 49t72.5 22q26 0 54 -10.5t55 -23t52 -23t46 -10.5q42 0 65 17.5t40 49.5h8v-35q-14 -27 -44.5 -49t-72.5 -22q-26 0 -54 10.5t-55 23t-52 23t-46 10.5q-35 0 -60 -17.5t-45 -49.5h-8v35z" />
<glyph unicode="&#xa1;" horiz-adv-x="273" d="M113 750h55v-94h-55v94zM121 531h35l12 -531h-59z" />
<glyph unicode="&#xa2;" d="M344 -8q-74 3 -128.5 27t-90 67.5t-53 104.5t-17.5 137v94q0 75 19.5 135.5t57.5 104t94 68.5t129 28v109h51v-110q44 -2 81 -9t64 -18v-46h-8q-26 8 -66 17.5t-102 9.5q-138 0 -204 -76t-66 -213v-94q0 -67 14.5 -121t45.5 -91t79 -57t115 -20h32q20 0 42 3.5t42 8 t37 10t27 9.5h8v-43q-9 -4 -25.5 -10t-37 -11.5t-43.5 -9.5t-46 -4v-117h-51v117z" />
<glyph unicode="&#xa3;" d="M63 47h62q24 16 39 38t23.5 46.5t12 50t3.5 48.5v145h-109v47h109v94q0 112 57.5 173t169.5 61h117v-47h-117q-51 0 -85 -13t-54.5 -37t-28.5 -58.5t-8 -78.5v-94h246v-47h-246v-145q0 -23 -3.5 -49t-12.5 -51t-24 -46.5t-38 -36.5h371v-47h-484v47z" />
<glyph unicode="&#xa4;" d="M391 -8q-53 0 -97.5 14.5t-77 45.5t-50.5 80t-18 118v20h-117v46h117v122h-117v46h117v16q0 60 18 108t50.5 81t77 51t97.5 18h23q21 0 42.5 -2.5t42 -7t37.5 -10t27 -11.5v-43h-8q-26 11 -64.5 19t-76.5 8h-23q-41 0 -76.5 -11.5t-61 -37t-40 -65.5t-14.5 -97v-16h270 v-46h-270v-122h270v-46h-270v-20q0 -111 49 -161t143 -50h31q43 0 78 11t55 20h8v-43q-9 -4 -23.5 -10t-33 -11.5t-40 -9.5t-44.5 -4h-31v0z" />
<glyph unicode="&#xa5;" d="M289 203h-226v47h226v59l-234 433v8h50l211 -387l207 387h51v-8l-234 -433v-59h223v-47h-223v-203h-51v203z" />
<glyph unicode="&#xa6;" horiz-adv-x="273" d="M117 813h39v-407h-39v407zM117 219h39v-407h-39v407z" />
<glyph unicode="&#xa7;" horiz-adv-x="531" d="M199 422q-53 37 -79 76t-26 92q0 38 15.5 67.5t41 50t58.5 31.5t68 11h192v-51h-196q-22 0 -44.5 -5.5t-41 -18t-30.5 -33.5t-12 -52q0 -24 6.5 -42t18 -33.5t28 -29.5t36.5 -28l231 -164v-55h-8zM63 -137h195q22 0 45 5.5t41.5 18.5t30.5 34t12 52q0 44 -24.5 73.5 t-65.5 58.5l-231 165v54h8l258 -183q53 -38 79.5 -76.5t26.5 -91.5q0 -38 -15.5 -68t-41 -50.5t-58.5 -31.5t-69 -11h-191v51z" />
<glyph unicode="&#xa8;" horiz-adv-x="555" d="M375 719h55v-94h-55v94zM133 719h55v-94h-55v94z" />
<glyph unicode="&#xa9;" horiz-adv-x="844" d="M422 16q-81 0 -149.5 27t-118.5 76t-78.5 116t-28.5 148t28.5 148t78.5 116t118.5 76t149.5 27t149.5 -27t118.5 -76t78.5 -116t28.5 -148t-28.5 -148t-78.5 -116t-118.5 -76t-149.5 -27zM422 59q73 0 133 25t102.5 68.5t65.5 102.5t23 128t-23 128t-65.5 102.5 t-102.5 68.5t-133 25t-133 -25t-102.5 -68.5t-65.5 -102.5t-23 -128t23 -128t65.5 -102.5t102.5 -68.5t133 -25zM445 180q-45 0 -82.5 14t-64.5 40.5t-41.5 64t-14.5 84.5q0 44 16 81t43.5 64t64.5 42.5t79 15.5q26 0 50.5 -3.5t47.5 -12.5v-43q-23 9 -47.5 12.5t-50.5 3.5 q-35 0 -63 -12t-48 -33t-30.5 -50.5t-10.5 -64.5q0 -74 39.5 -117t112.5 -43q29 0 55 4.5t43 10.5v-43q-17 -5 -41.5 -10t-56.5 -5z" />
<glyph unicode="&#xaa;" horiz-adv-x="453" d="M395 328h-43v94l-32 -27q-28 -26 -63.5 -46.5t-88.5 -20.5q-62 0 -87.5 35t-25.5 90v104q0 92 59.5 142.5t162.5 50.5h118v-422zM55 250h340v-31h-340v31zM352 715h-77q-88 0 -134.5 -40.5t-46.5 -115.5v-107q0 -41 17.5 -67t64.5 -26q38 0 69 19t60 44l24 20q9 8 16 14 t7 5v254z" />
<glyph unicode="&#xab;" horiz-adv-x="586" d="M313 313v46l210 161h8v-43l-172 -141l172 -141v-43h-8zM63 313v46l210 161h8v-43l-172 -141l172 -141v-43h-8z" />
<glyph unicode="&#xac;" d="M492 348h-398v39h437v-219h-39v180z" />
<glyph unicode="&#xae;" horiz-adv-x="844" d="M422 16q-81 0 -149.5 27t-118.5 76t-78.5 116t-28.5 148t28.5 148t78.5 116t118.5 76t149.5 27t149.5 -27t118.5 -76t78.5 -116t28.5 -148t-28.5 -148t-78.5 -116t-118.5 -76t-149.5 -27zM422 59q73 0 133 25t102.5 68.5t65.5 102.5t23 128t-23 128t-65.5 102.5 t-102.5 68.5t-133 25t-133 -25t-102.5 -68.5t-65.5 -102.5t-23 -128t23 -128t65.5 -102.5t102.5 -68.5t133 -25zM293 586h95q31 0 60 -5t52 -19t37 -38.5t14 -62.5t-17 -67.5t-61 -49.5l90 -156v-8h-55l-78 144h-86v-144h-51v406zM414 367q35 0 60.5 23t25.5 71 q0 42 -25.5 62t-60.5 20h-70v-176h70z" />
<glyph unicode="&#xaf;" horiz-adv-x="555" d="M156 664h250v-39h-250v39z" />
<glyph unicode="&#xb0;" horiz-adv-x="469" d="M242 328q-82 0 -130.5 54t-48.5 157t48.5 157t130.5 54q83 0 131.5 -53.5t48.5 -156.5q0 -104 -48.5 -158t-131.5 -54zM242 359q29 0 55 10.5t45 32.5t30 56t11 81t-11 81t-30 56t-45 32.5t-55 10.5t-54.5 -10.5t-44.5 -32.5t-30 -56t-11 -81t11 -81t30 -56t44.5 -32.5 t54.5 -10.5z" />
<glyph unicode="&#xb1;" d="M293 348h-199v39h199v199h39v-199h199v-39h-199v-200h-39v200zM94 0h437v-39h-437v39z" />
<glyph unicode="&#xb2;" horiz-adv-x="500" d="M94 372q0 22 6.5 44.5t22 43t40.5 38t61 29.5l46 16q50 17 73.5 40t23.5 58q0 26 -7.5 41.5t-22 23.5t-36.5 10.5t-51 2.5h-129v31h129q45 0 75 -7t48 -21t25.5 -34.5t7.5 -46.5q0 -48 -36.5 -79.5t-92.5 -49.5l-47 -16q-41 -13 -69 -43.5t-28 -79.5v-14h277v-31h-316v44 z" />
<glyph unicode="&#xb3;" horiz-adv-x="500" d="M109 359h106q75 0 109.5 24t34.5 74q0 45 -30.5 63.5t-86.5 18.5h-70v31h94q74 30 74 82q0 17 -4.5 30t-17 21t-34.5 12t-57 4h-107v31h107q44 0 73 -6.5t46.5 -19t25 -31t7.5 -41.5q0 -29 -19.5 -52t-55.5 -37q47 -12 70.5 -36.5t23.5 -69.5q0 -26 -9.5 -49.5t-31 -41 t-56.5 -28t-86 -10.5h-106v31z" />
<glyph unicode="&#xb4;" horiz-adv-x="555" d="M258 641l113 140h70v-15l-156 -141h-27v16z" />
<glyph unicode="&#xb5;" horiz-adv-x="574" d="M90 547h47v-391q0 -26 5.5 -48.5t17 -38.5t30 -25t44.5 -9q22 0 44 10t42.5 25t39.5 33t35 34l39 39v371h46v-547h-46v121l-39 -39q-10 -10 -27 -25.5t-38 -29.5t-46.5 -24.5t-53.5 -10.5q-32 0 -57.5 13.5t-39.5 33.5v-227h-43v735z" />
<glyph unicode="&#xb6;" horiz-adv-x="641" d="M512 750h51v-938h-51v938zM375 188h-62q-58 0 -109.5 17.5t-90 52.5t-60.5 88t-22 123t22 122.5t60 88t89.5 53t110.5 17.5h113v-938h-51v376z" />
<glyph unicode="&#xb7;" horiz-adv-x="273" d="M109 406h55v-93h-55v93z" />
<glyph unicode="&#xb8;" horiz-adv-x="555" d="M148 -164h90q38 0 56.5 16t18.5 43q0 29 -15.5 45t-35.5 25v12h27q26 -12 38.5 -35.5t12.5 -46.5q0 -35 -24 -59t-66 -24h-102v24z" />
<glyph unicode="&#xb9;" horiz-adv-x="500" d="M258 707l-141 -66h-8v31l164 78h24v-422h-39v379z" />
<glyph unicode="&#xba;" horiz-adv-x="469" d="M234 328q-82 0 -130.5 54t-48.5 157t48.5 157t130.5 54q83 0 131.5 -53.5t48.5 -156.5q0 -104 -48.5 -158t-131.5 -54zM55 250h340v-31h-340v31zM234 359q30 0 55.5 10.5t44.5 32.5t30 56t11 81t-11 81t-30 56t-44.5 32.5t-55.5 10.5q-29 0 -54.5 -10.5t-44.5 -32.5 t-30 -56t-11 -81t11 -81t30 -56t44.5 -32.5t54.5 -10.5z" />
<glyph unicode="&#xbb;" horiz-adv-x="586" d="M305 195l172 141l-172 141v43h8l210 -161v-46l-210 -161h-8v43zM55 195l172 141l-172 141v43h8l210 -161v-46l-210 -161h-8v43z" />
<glyph unicode="&#xbc;" horiz-adv-x="938" d="M215 707l-141 -66h-8v31l164 78h24v-422h-39v379zM266 12l375 738h31v-12l-375 -738h-31v12zM773 109h-242v22q35 34 59 70.5t40 73.5t25.5 74.5t15.5 72.5h40q-8 -40 -19 -78t-26.5 -73.5t-37 -67.5t-50.5 -62h195v136h40v-136h62v-32h-62v-109h-40v109z" />
<glyph unicode="&#xbd;" horiz-adv-x="938" d="M215 707l-141 -66h-8v31l164 78h24v-422h-39v379zM266 12l375 738h31v-12l-375 -738h-31v12zM539 44q0 22 6.5 44.5t22 43t40.5 38t61 29.5l46 16q50 17 74 40t24 58q0 26 -7.5 41.5t-22.5 23.5t-37 10.5t-51 2.5h-129v31h129q45 0 75.5 -7t48.5 -21t25.5 -34.5 t7.5 -46.5q0 -48 -37 -79.5t-92 -49.5l-47 -16q-42 -14 -70 -44.5t-28 -78.5v-14h277v-31h-316v44z" />
<glyph unicode="&#xbe;" horiz-adv-x="938" d="M63 359h105q75 0 110 24t35 74q0 45 -30.5 63.5t-87.5 18.5h-70v31h94q38 15 56 36t18 46q0 17 -4.5 30t-17 21t-34.5 12t-57 4h-107v31h107q44 0 73 -6.5t46.5 -19t25 -31t7.5 -41.5q0 -29 -19.5 -52t-55.5 -37q47 -12 71 -36.5t24 -69.5q0 -26 -9.5 -49.5t-31 -41 t-57 -28t-86.5 -10.5h-105v31zM266 12l375 738h31v-12l-375 -738h-31v12zM773 109h-242v22q35 34 59 70.5t40 73.5t25.5 74.5t15.5 72.5h40q-8 -40 -19 -78t-26.5 -73.5t-37 -67.5t-50.5 -62h195v136h40v-136h62v-32h-62v-109h-40v109z" />
<glyph unicode="&#xbf;" horiz-adv-x="434" d="M242 750h55v-94h-55v94zM254 0q-106 0 -152.5 43.5t-46.5 128.5q0 38 18.5 82.5t67.5 100.5l105 122v86h47v-94l-105 -125q-43 -51 -64.5 -92.5t-21.5 -79.5q0 -62 31.5 -95.5t104.5 -33.5h137v-43h-121v0z" />
<glyph unicode="&#xc0;" d="M31 8q12 50 22.5 90t21 76.5t20.5 71.5t22 74q18 60 41.5 126.5t46.5 126.5t43.5 107.5t32.5 69.5h63q12 -22 32.5 -69.5t43.5 -107.5t46.5 -126.5t41.5 -126.5q12 -39 22.5 -74t20.5 -71.5t20.5 -76.5t22.5 -90v-8h-55q-8 34 -15 63t-14 55t-13.5 50.5t-14.5 50.5h-339 q-7 -26 -14 -50.5t-14 -50.5t-14 -54.5t-15 -63.5h-55v8zM469 266q-4 12 -7.5 26t-8.5 28q-15 50 -32.5 102t-36.5 102.5t-37 96t-34 82.5q-16 -37 -34.5 -82.5t-37.5 -96t-36.5 -102.5t-32.5 -102q-5 -14 -8.5 -28t-7.5 -26h313zM152 946v15h63l113 -140v-16h-27z" />
<glyph unicode="&#xc1;" d="M31 8q12 50 22.5 90t21 76.5t20.5 71.5t22 74q18 60 41.5 126.5t46.5 126.5t43.5 107.5t32.5 69.5h63q12 -22 32.5 -69.5t43.5 -107.5t46.5 -126.5t41.5 -126.5q12 -39 22.5 -74t20.5 -71.5t20.5 -76.5t22.5 -90v-8h-55q-8 34 -15 63t-14 55t-13.5 50.5t-14.5 50.5h-339 q-7 -26 -14 -50.5t-14 -50.5t-14 -54.5t-15 -63.5h-55v8zM469 266q-4 12 -7.5 26t-8.5 28q-15 50 -32.5 102t-36.5 102.5t-37 96t-34 82.5q-16 -37 -34.5 -82.5t-37.5 -96t-36.5 -102.5t-32.5 -102q-5 -14 -8.5 -28t-7.5 -26h313zM303 821l113 140h70v-15l-156 -141h-27v16z " />
<glyph unicode="&#xc2;" d="M31 8q12 50 22.5 90t21 76.5t20.5 71.5t22 74q18 60 41.5 126.5t46.5 126.5t43.5 107.5t32.5 69.5h63q12 -22 32.5 -69.5t43.5 -107.5t46.5 -126.5t41.5 -126.5q12 -39 22.5 -74t20.5 -71.5t20.5 -76.5t22.5 -90v-8h-55q-8 34 -15 63t-14 55t-13.5 50.5t-14.5 50.5h-339 q-7 -26 -14 -50.5t-14 -50.5t-14 -54.5t-15 -63.5h-55v8zM469 266q-4 12 -7.5 26t-8.5 28q-15 50 -32.5 102t-36.5 102.5t-37 96t-34 82.5q-16 -37 -34.5 -82.5t-37.5 -96t-36.5 -102.5t-32.5 -102q-5 -14 -8.5 -28t-7.5 -26h313zM156 821l125 140h63l125 -142v-14h-32 l-125 129l-125 -129h-31v16z" />
<glyph unicode="&#xc3;" d="M31 8q12 50 22.5 90t21 76.5t20.5 71.5t22 74q18 60 41.5 126.5t46.5 126.5t43.5 107.5t32.5 69.5h63q12 -22 32.5 -69.5t43.5 -107.5t46.5 -126.5t41.5 -126.5q12 -39 22.5 -74t20.5 -71.5t20.5 -76.5t22.5 -90v-8h-55q-8 34 -15 63t-14 55t-13.5 50.5t-14.5 50.5h-339 q-7 -26 -14 -50.5t-14 -50.5t-14 -54.5t-15 -63.5h-55v8zM469 266q-4 12 -7.5 26t-8.5 28q-15 50 -32.5 102t-36.5 102.5t-37 96t-34 82.5q-16 -37 -34.5 -82.5t-37.5 -96t-36.5 -102.5t-32.5 -102q-5 -14 -8.5 -28t-7.5 -26h313zM137 844q6 10 15 23.5t21.5 25.5t27.5 20.5 t33 8.5q21 0 42 -12t40.5 -27t36.5 -27t30 -12q15 0 27.5 7.5t23.5 18.5t20.5 25t18.5 27h7v-39q-6 -10 -15 -23.5t-21.5 -25.5t-27.5 -20.5t-33 -8.5q-19 0 -40 12t-40.5 27t-37.5 27t-31 12q-15 0 -27.5 -7.5t-23.5 -18.5t-20.5 -25t-18.5 -27h-7v39z" />
<glyph unicode="&#xc4;" d="M31 8q12 50 22.5 90t21 76.5t20.5 71.5t22 74q18 60 41.5 126.5t46.5 126.5t43.5 107.5t32.5 69.5h63q12 -22 32.5 -69.5t43.5 -107.5t46.5 -126.5t41.5 -126.5q12 -39 22.5 -74t20.5 -71.5t20.5 -76.5t22.5 -90v-8h-55q-8 34 -15 63t-14 55t-13.5 50.5t-14.5 50.5h-339 q-7 -26 -14 -50.5t-14 -50.5t-14 -54.5t-15 -63.5h-55v8zM469 266q-4 12 -7.5 26t-8.5 28q-15 50 -32.5 102t-36.5 102.5t-37 96t-34 82.5q-16 -37 -34.5 -82.5t-37.5 -96t-36.5 -102.5t-32.5 -102q-5 -14 -8.5 -28t-7.5 -26h313zM406 899h55v-94h-55v94zM164 899h55v-94 h-55v94z" />
<glyph unicode="&#xc5;" d="M31 8q12 50 22.5 90t21 76.5t20.5 71.5t22 74q18 60 41.5 126.5t46.5 126.5t43.5 107.5t32.5 69.5h63q12 -22 32.5 -69.5t43.5 -107.5t46.5 -126.5t41.5 -126.5q12 -39 22.5 -74t20.5 -71.5t20.5 -76.5t22.5 -90v-8h-55q-8 34 -15 63t-14 55t-13.5 50.5t-14.5 50.5h-339 q-7 -26 -14 -50.5t-14 -50.5t-14 -54.5t-15 -63.5h-55v8zM469 266q-4 12 -7.5 26t-8.5 28q-15 50 -32.5 102t-36.5 102.5t-37 96t-34 82.5q-16 -37 -34.5 -82.5t-37.5 -96t-36.5 -102.5t-32.5 -102q-5 -14 -8.5 -28t-7.5 -26h313zM312 805q-55 0 -84 30.5t-29 71.5t28.5 71 t84.5 30t85 -30t29 -71t-29 -71.5t-85 -30.5zM312 828q42 0 62 22t20 57t-20 56.5t-62 21.5q-41 0 -61.5 -21.5t-20.5 -56.5t20.5 -57t61.5 -22z" />
<glyph unicode="&#xc6;" horiz-adv-x="855" d="M31 8q24 125 56 237t67.5 207t71.5 171t67 127h500v-47h-348v-281h317v-47h-317v-207q0 -121 121 -121h227v-47h-223q-88 0 -131.5 42t-43.5 130v47h-262q-15 -55 -26.5 -110t-20.5 -109h-55v8zM395 266v437h-75q-19 -33 -41.5 -79.5t-45.5 -103t-45 -121t-42 -133.5h249 z" />
<glyph unicode="&#xc7;" horiz-adv-x="609" d="M359 -8q-78 0 -135 23.5t-94.5 67t-56 105.5t-18.5 140v94q0 78 21 140t61.5 105.5t100 67t137.5 23.5q26 0 52.5 -3t50.5 -7.5t44 -11t33 -13.5v-168h-47v136q-12 5 -28.5 8.5t-35 6t-36.5 4t-33 1.5q-138 0 -204 -76t-66 -213v-94q0 -67 14.5 -121t45.5 -91t79 -57 t115 -20h32q20 0 42 3.5t42 8t37 10t27 9.5h8v-43q-9 -4 -26 -10t-38 -11.5t-45 -9.5t-47 -4h-32v0zM244 -164h90q38 0 56.5 16t18.5 43q0 29 -15.5 45t-35.5 25v12h27q26 -12 38.5 -35.5t12.5 -46.5q0 -35 -24 -59t-66 -24h-102v24z" />
<glyph unicode="&#xc8;" horiz-adv-x="555" d="M270 0q-89 0 -132.5 42t-43.5 130v578h398v-47h-347v-281h316v-47h-316v-207q0 -121 121 -121h226v-47h-222v0zM166 946v15h63l113 -140v-16h-27z" />
<glyph unicode="&#xc9;" horiz-adv-x="555" d="M270 0q-89 0 -132.5 42t-43.5 130v578h398v-47h-347v-281h316v-47h-316v-207q0 -121 121 -121h226v-47h-222v0zM258 821l113 140h70v-15l-156 -141h-27v16z" />
<glyph unicode="&#xca;" horiz-adv-x="555" d="M270 0q-89 0 -132.5 42t-43.5 130v578h398v-47h-347v-281h316v-47h-316v-207q0 -121 121 -121h226v-47h-222v0zM150 821l125 140h63l125 -142v-14h-32l-125 129l-125 -129h-31v16z" />
<glyph unicode="&#xcb;" horiz-adv-x="555" d="M270 0q-89 0 -132.5 42t-43.5 130v578h398v-47h-347v-281h316v-47h-316v-207q0 -121 121 -121h226v-47h-222v0zM395 899h55v-94h-55v94zM153 899h55v-94h-55v94z" />
<glyph unicode="&#xcc;" horiz-adv-x="238" d="M94 750h51v-750h-51v750zM-39 946v15h63l113 -140v-16h-27z" />
<glyph unicode="&#xcd;" horiz-adv-x="238" d="M94 750h51v-750h-51v750zM102 821l113 140h70v-15l-156 -141h-27v16z" />
<glyph unicode="&#xce;" horiz-adv-x="238" d="M94 750h51v-750h-51v750zM-35 821l125 140h63l125 -142v-14h-32l-125 129l-125 -129h-31v16z" />
<glyph unicode="&#xcf;" horiz-adv-x="238" d="M94 750h51v-750h-51v750zM219 899h55v-94h-55v94zM-23 899h55v-94h-55v94z" />
<glyph unicode="&#xd0;" horiz-adv-x="680" d="M94 375h-67v47h67v328h211q159 0 235.5 -77t76.5 -235v-110q0 -75 -18.5 -135.5t-55 -103t-92.5 -66t-131 -23.5h-226v375zM328 47q65 0 110 19.5t73.5 56.5t41.5 89t13 116v110q0 132 -60.5 198.5t-192.5 66.5h-168v-281h199v-47h-199v-328h183z" />
<glyph unicode="&#xd1;" horiz-adv-x="668" d="M94 750h39l410 -641v641h51v-750h-39l-410 641v-641h-51v750zM178 844q6 10 15 23.5t21.5 25.5t27.5 20.5t33 8.5q21 0 42 -12t40.5 -27t36.5 -27t30 -12q15 0 27.5 7.5t23.5 18.5t20.5 25t18.5 27h7v-39q-6 -10 -15 -23.5t-21.5 -25.5t-27.5 -20.5t-33 -8.5 q-19 0 -40 12t-40.5 27t-37.5 27t-31 12q-15 0 -27.5 -7.5t-23.5 -18.5t-20.5 -25t-18.5 -27h-7v39z" />
<glyph unicode="&#xd2;" horiz-adv-x="688" d="M344 -8q-78 0 -132.5 28t-89.5 77.5t-51 116.5t-16 145v32q0 78 16 145t51 116.5t89.5 77.5t132.5 28t132.5 -28t89.5 -77.5t51 -116.5t16 -145v-32q0 -78 -16 -145t-51 -116.5t-89.5 -77.5t-132.5 -28zM344 39q67 0 112.5 25t73.5 68t40 101.5t12 125.5v32 q0 67 -12 125.5t-40 101.5t-73.5 68t-112.5 25t-113 -25t-74 -68t-40 -101.5t-12 -125.5v-32q0 -67 12 -125.5t40 -101.5t74 -68t113 -25zM183 946v15h63l113 -140v-16h-27z" />
<glyph unicode="&#xd3;" horiz-adv-x="688" d="M344 -8q-78 0 -132.5 28t-89.5 77.5t-51 116.5t-16 145v32q0 78 16 145t51 116.5t89.5 77.5t132.5 28t132.5 -28t89.5 -77.5t51 -116.5t16 -145v-32q0 -78 -16 -145t-51 -116.5t-89.5 -77.5t-132.5 -28zM344 39q67 0 112.5 25t73.5 68t40 101.5t12 125.5v32 q0 67 -12 125.5t-40 101.5t-73.5 68t-112.5 25t-113 -25t-74 -68t-40 -101.5t-12 -125.5v-32q0 -67 12 -125.5t40 -101.5t74 -68t113 -25zM324 821l113 140h70v-15l-156 -141h-27v16z" />
<glyph unicode="&#xd4;" horiz-adv-x="688" d="M344 -8q-78 0 -132.5 28t-89.5 77.5t-51 116.5t-16 145v32q0 78 16 145t51 116.5t89.5 77.5t132.5 28t132.5 -28t89.5 -77.5t51 -116.5t16 -145v-32q0 -78 -16 -145t-51 -116.5t-89.5 -77.5t-132.5 -28zM344 39q67 0 112.5 25t73.5 68t40 101.5t12 125.5v32 q0 67 -12 125.5t-40 101.5t-73.5 68t-112.5 25t-113 -25t-74 -68t-40 -101.5t-12 -125.5v-32q0 -67 12 -125.5t40 -101.5t74 -68t113 -25zM187 821l125 140h63l125 -142v-14h-32l-125 129l-125 -129h-31v16z" />
<glyph unicode="&#xd5;" horiz-adv-x="688" d="M344 -8q-78 0 -132.5 28t-89.5 77.5t-51 116.5t-16 145v32q0 78 16 145t51 116.5t89.5 77.5t132.5 28t132.5 -28t89.5 -77.5t51 -116.5t16 -145v-32q0 -78 -16 -145t-51 -116.5t-89.5 -77.5t-132.5 -28zM344 39q67 0 112.5 25t73.5 68t40 101.5t12 125.5v32 q0 67 -12 125.5t-40 101.5t-73.5 68t-112.5 25t-113 -25t-74 -68t-40 -101.5t-12 -125.5v-32q0 -67 12 -125.5t40 -101.5t74 -68t113 -25zM168 844q6 10 15 23.5t21.5 25.5t27.5 20.5t33 8.5q21 0 42 -12t40.5 -27t36.5 -27t30 -12q15 0 27.5 7.5t23.5 18.5t20.5 25t18.5 27 h7v-39q-6 -10 -15 -23.5t-21.5 -25.5t-27.5 -20.5t-33 -8.5q-19 0 -40 12t-40.5 27t-37.5 27t-31 12q-15 0 -27.5 -7.5t-23.5 -18.5t-20.5 -25t-18.5 -27h-7v39z" />
<glyph unicode="&#xd6;" horiz-adv-x="688" d="M344 -8q-78 0 -132.5 28t-89.5 77.5t-51 116.5t-16 145v32q0 78 16 145t51 116.5t89.5 77.5t132.5 28t132.5 -28t89.5 -77.5t51 -116.5t16 -145v-32q0 -78 -16 -145t-51 -116.5t-89.5 -77.5t-132.5 -28zM344 39q67 0 112.5 25t73.5 68t40 101.5t12 125.5v32 q0 67 -12 125.5t-40 101.5t-73.5 68t-112.5 25t-113 -25t-74 -68t-40 -101.5t-12 -125.5v-32q0 -67 12 -125.5t40 -101.5t74 -68t113 -25zM441 899h55v-94h-55v94zM199 899h55v-94h-55v94z" />
<glyph unicode="&#xd7;" d="M144 227l140 140l-140 141l28 28l141 -140l140 140l28 -28l-140 -141l140 -140l-28 -29l-140 141l-141 -141z" />
<glyph unicode="&#xd8;" horiz-adv-x="688" d="M344 -8q-66 0 -115.5 20.5t-83.5 56.5l-51 -69h-39v12l65 89q-34 49 -49.5 115.5t-15.5 142.5v32q0 78 16 145t51 116.5t89.5 77.5t132.5 28q66 0 115 -20.5t84 -57.5l51 70h39v-12l-66 -89q34 -49 50 -115.5t16 -142.5v-32q0 -78 -16 -145t-51 -116.5t-89.5 -77.5 t-132.5 -28zM514 641q-28 33 -69.5 51.5t-100.5 18.5q-67 0 -113 -25t-74 -68t-40 -101.5t-12 -125.5v-32q0 -63 10.5 -118.5t34.5 -97.5zM344 39q67 0 112.5 25t73.5 68t40 101.5t12 125.5v32q0 63 -10.5 118.5t-34.5 97.5l-363 -498q28 -33 69.5 -51.5t100.5 -18.5z" />
<glyph unicode="&#xd9;" horiz-adv-x="672" d="M336 -8q-132 0 -191 63t-59 195v500h51v-516q0 -97 51 -146t148 -49t148 49t51 146v516h51v-500q0 -130 -60 -194t-190 -64zM176 946v15h63l113 -140v-16h-27z" />
<glyph unicode="&#xda;" horiz-adv-x="672" d="M336 -8q-132 0 -191 63t-59 195v500h51v-516q0 -97 51 -146t148 -49t148 49t51 146v516h51v-500q0 -130 -60 -194t-190 -64zM317 821l113 140h70v-15l-156 -141h-27v16z" />
<glyph unicode="&#xdb;" horiz-adv-x="672" d="M336 -8q-132 0 -191 63t-59 195v500h51v-516q0 -97 51 -146t148 -49t148 49t51 146v516h51v-500q0 -130 -60 -194t-190 -64zM180 821l125 140h63l125 -142v-14h-32l-125 129l-125 -129h-31v16z" />
<glyph unicode="&#xdc;" horiz-adv-x="672" d="M336 -8q-132 0 -191 63t-59 195v500h51v-516q0 -97 51 -146t148 -49t148 49t51 146v516h51v-500q0 -130 -60 -194t-190 -64zM434 899h55v-94h-55v94zM192 899h55v-94h-55v94z" />
<glyph unicode="&#xdd;" horiz-adv-x="563" d="M258 309l-235 433v8h51l211 -387l207 387h51v-8l-234 -433v-309h-51v309zM262 821l113 140h70v-15l-156 -141h-27v16z" />
<glyph unicode="&#xde;" horiz-adv-x="578" d="M94 750h51v-117h164q115 0 168.5 -58t53.5 -173q0 -55 -14.5 -100.5t-43 -78t-70.5 -50t-98 -17.5h-160v-156h-51v750zM313 203q45 0 77 14t52 40t29 63t9 82q0 43 -8.5 77t-27 58t-48 36.5t-72.5 12.5h-179v-383h168z" />
<glyph unicode="&#xdf;" horiz-adv-x="688" d="M445 -8q-37 0 -75.5 5.5t-64.5 14.5v43h8q32 -12 69.5 -16t66.5 -4q59 0 94 28t35 82q0 19 -6 33t-16.5 25.5t-26 22t-33.5 20.5l-55 31q-14 8 -29.5 17t-28 22.5t-20.5 33t-8 48.5q0 25 9 43.5t22.5 33t29.5 26t29 22.5q26 23 36.5 41t10.5 41q0 28 -11 47.5t-30.5 31.5 t-45.5 17.5t-57 5.5q-35 0 -66 -5.5t-53.5 -21t-35.5 -44t-13 -73.5v-563h-47v504h-102v43h102v19q0 92 56 138t159 46q39 0 74 -9t61 -26.5t41 -42t15 -55.5q0 -25 -5 -42.5t-14 -31t-22 -25.5t-29 -26q-8 -7 -19.5 -15t-22 -18.5t-18 -23.5t-7.5 -29q0 -20 4.5 -33 t13 -22.5t21 -17t28.5 -17.5l39 -23q16 -9 36 -20t38 -27t30.5 -40.5t12.5 -60.5q0 -31 -11 -58.5t-33.5 -48.5t-56.5 -33.5t-79 -12.5z" />
<glyph unicode="&#xe0;" horiz-adv-x="551" d="M199 -8q-35 0 -61.5 13t-44 35.5t-26 53.5t-8.5 66v133q0 59 19.5 106t54.5 80t84 50.5t107 17.5h133v-547h-47v120l-35 -34q-16 -16 -34 -33t-39.5 -30.5t-46.5 -22t-56 -8.5zM207 35q22 0 42 7.5t38.5 19.5t35 27.5t32.5 31.5l55 54v329h-90q-99 0 -157 -55t-58 -152 v-137q0 -26 6 -49t18.5 -40t32 -26.5t45.5 -9.5zM144 766v15h63l113 -140v-16h-27z" />
<glyph unicode="&#xe1;" horiz-adv-x="551" d="M199 -8q-35 0 -61.5 13t-44 35.5t-26 53.5t-8.5 66v133q0 59 19.5 106t54.5 80t84 50.5t107 17.5h133v-547h-47v120l-35 -34q-16 -16 -34 -33t-39.5 -30.5t-46.5 -22t-56 -8.5zM207 35q22 0 42 7.5t38.5 19.5t35 27.5t32.5 31.5l55 54v329h-90q-99 0 -157 -55t-58 -152 v-137q0 -26 6 -49t18.5 -40t32 -26.5t45.5 -9.5zM258 641l113 140h70v-15l-156 -141h-27v16z" />
<glyph unicode="&#xe2;" horiz-adv-x="551" d="M199 -8q-35 0 -61.5 13t-44 35.5t-26 53.5t-8.5 66v133q0 59 19.5 106t54.5 80t84 50.5t107 17.5h133v-547h-47v120l-35 -34q-16 -16 -34 -33t-39.5 -30.5t-46.5 -22t-56 -8.5zM207 35q22 0 42 7.5t38.5 19.5t35 27.5t32.5 31.5l55 54v329h-90q-99 0 -157 -55t-58 -152 v-137q0 -26 6 -49t18.5 -40t32 -26.5t45.5 -9.5zM121 641l125 140h63l125 -142v-14h-32l-125 129l-125 -129h-31v16z" />
<glyph unicode="&#xe3;" horiz-adv-x="551" d="M199 -8q-35 0 -61.5 13t-44 35.5t-26 53.5t-8.5 66v133q0 59 19.5 106t54.5 80t84 50.5t107 17.5h133v-547h-47v120l-35 -34q-16 -16 -34 -33t-39.5 -30.5t-46.5 -22t-56 -8.5zM207 35q22 0 42 7.5t38.5 19.5t35 27.5t32.5 31.5l55 54v329h-90q-99 0 -157 -55t-58 -152 v-137q0 -26 6 -49t18.5 -40t32 -26.5t45.5 -9.5zM102 664q6 10 15 23.5t21.5 25.5t27.5 20.5t33 8.5q21 0 42 -12t40.5 -27t36.5 -27t30 -12q15 0 27.5 7.5t23.5 18.5t20.5 25t18.5 27h7v-39q-6 -10 -15 -23.5t-21.5 -25.5t-27.5 -20.5t-33 -8.5q-19 0 -40 12t-40.5 27 t-37.5 27t-31 12q-15 0 -27.5 -7.5t-23.5 -18.5t-20.5 -25t-18.5 -27h-7v39z" />
<glyph unicode="&#xe4;" horiz-adv-x="551" d="M199 -8q-35 0 -61.5 13t-44 35.5t-26 53.5t-8.5 66v133q0 59 19.5 106t54.5 80t84 50.5t107 17.5h133v-547h-47v120l-35 -34q-16 -16 -34 -33t-39.5 -30.5t-46.5 -22t-56 -8.5zM207 35q22 0 42 7.5t38.5 19.5t35 27.5t32.5 31.5l55 54v329h-90q-99 0 -157 -55t-58 -152 v-137q0 -26 6 -49t18.5 -40t32 -26.5t45.5 -9.5zM375 719h55v-94h-55v94zM133 719h55v-94h-55v94z" />
<glyph unicode="&#xe5;" horiz-adv-x="551" d="M199 -8q-35 0 -61.5 13t-44 35.5t-26 53.5t-8.5 66v133q0 59 19.5 106t54.5 80t84 50.5t107 17.5h133v-547h-47v120l-35 -34q-16 -16 -34 -33t-39.5 -30.5t-46.5 -22t-56 -8.5zM207 35q22 0 42 7.5t38.5 19.5t35 27.5t32.5 31.5l55 54v329h-90q-99 0 -157 -55t-58 -152 v-137q0 -26 6 -49t18.5 -40t32 -26.5t45.5 -9.5zM277 625q-55 0 -84 30.5t-29 71.5t28.5 71t84.5 30t85 -30t29 -71t-29 -71.5t-85 -30.5zM277 648q42 0 62 22t20 57t-20 56.5t-62 21.5q-41 0 -61.5 -21.5t-20.5 -56.5t20.5 -57t61.5 -22z" />
<glyph unicode="&#xe6;" horiz-adv-x="844" d="M199 -8q-35 0 -61.5 13t-44 35.5t-26 53.5t-8.5 66v133q0 59 19.5 106t54.5 80t84 50.5t107 17.5h133v-68q57 68 164 68q38 0 71 -8.5t57 -26t38 -45t14 -65.5q0 -36 -12.5 -63t-35 -45t-53.5 -27t-67 -9h-176v-63q0 -76 40 -118t116 -42q42 0 78 11t71 28h8v-39 q-27 -17 -68 -30t-89 -13q-76 0 -126.5 33t-67.5 96h-9l-35 -35q-16 -16 -34 -33t-39.5 -30.5t-46.5 -22t-56 -8.5zM637 301q56 0 86.5 22.5t30.5 78.5q0 28 -10.5 47.5t-28.5 31.5t-42 17.5t-52 5.5q-79 0 -121.5 -40.5t-42.5 -119.5v-43h180zM207 35q22 0 42 7.5 t38.5 19.5t35 27.5t32.5 31.5l55 53v21v309h-90q-99 0 -157 -55t-58 -152v-137q0 -26 6 -49t18.5 -40t32 -26.5t45.5 -9.5z" />
<glyph unicode="&#xe7;" horiz-adv-x="469" d="M262 -8q-97 0 -150 53t-53 150v149q0 48 15 87t42.5 66.5t66.5 42.5t87 15q19 0 39.5 -2t40 -6.5t37.5 -11t31 -15.5v-114h-47v86q-20 9 -44.5 14.5t-56.5 5.5q-80 0 -122.5 -44.5t-42.5 -123.5v-149q0 -76 40 -118t117 -42q19 0 40 3.5t41.5 9t37.5 12.5t29 14h8v-39 q-12 -9 -30 -16.5t-39.5 -13.5t-44 -9.5t-42.5 -3.5zM127 -164h90q38 0 56.5 16t18.5 43q0 29 -15.5 45t-35.5 25v12h27q26 -12 38.5 -35.5t12.5 -46.5q0 -35 -24 -59t-66 -24h-102v24z" />
<glyph unicode="&#xe8;" horiz-adv-x="500" d="M262 -8q-97 0 -150 53t-53 150v149q0 48 15.5 87t43 66.5t66.5 42.5t86 15q38 0 70.5 -9.5t56.5 -28.5t38 -48t14 -67q0 -36 -12.5 -63t-35 -45t-53 -27t-67.5 -9h-176v-63q0 -76 40 -118t117 -42q41 0 77 11t71 28h8v-39q-26 -17 -67.5 -30t-88.5 -13zM285 301 q56 0 86.5 22.5t30.5 78.5q0 28 -10 49t-28 34.5t-42 20t-52 6.5q-80 0 -122.5 -44.5t-42.5 -123.5v-43h180zM111 766v15h63l113 -140v-16h-27z" />
<glyph unicode="&#xe9;" horiz-adv-x="500" d="M262 -8q-97 0 -150 53t-53 150v149q0 48 15.5 87t43 66.5t66.5 42.5t86 15q38 0 70.5 -9.5t56.5 -28.5t38 -48t14 -67q0 -36 -12.5 -63t-35 -45t-53 -27t-67.5 -9h-176v-63q0 -76 40 -118t117 -42q41 0 77 11t71 28h8v-39q-26 -17 -67.5 -30t-88.5 -13zM285 301 q56 0 86.5 22.5t30.5 78.5q0 28 -10 49t-28 34.5t-42 20t-52 6.5q-80 0 -122.5 -44.5t-42.5 -123.5v-43h180zM260 641l113 140h70v-15l-156 -141h-27v16z" />
<glyph unicode="&#xea;" horiz-adv-x="500" d="M262 -8q-97 0 -150 53t-53 150v149q0 48 15.5 87t43 66.5t66.5 42.5t86 15q38 0 70.5 -9.5t56.5 -28.5t38 -48t14 -67q0 -36 -12.5 -63t-35 -45t-53 -27t-67.5 -9h-176v-63q0 -76 40 -118t117 -42q41 0 77 11t71 28h8v-39q-26 -17 -67.5 -30t-88.5 -13zM285 301 q56 0 86.5 22.5t30.5 78.5q0 28 -10 49t-28 34.5t-42 20t-52 6.5q-80 0 -122.5 -44.5t-42.5 -123.5v-43h180zM123 641l125 140h63l125 -142v-14h-32l-125 129l-125 -129h-31v16z" />
<glyph unicode="&#xeb;" horiz-adv-x="500" d="M262 -8q-97 0 -150 53t-53 150v149q0 48 15.5 87t43 66.5t66.5 42.5t86 15q38 0 70.5 -9.5t56.5 -28.5t38 -48t14 -67q0 -36 -12.5 -63t-35 -45t-53 -27t-67.5 -9h-176v-63q0 -76 40 -118t117 -42q41 0 77 11t71 28h8v-39q-26 -17 -67.5 -30t-88.5 -13zM285 301 q56 0 86.5 22.5t30.5 78.5q0 28 -10 49t-28 34.5t-42 20t-52 6.5q-80 0 -122.5 -44.5t-42.5 -123.5v-43h180zM350 719h55v-94h-55v94zM108 719h55v-94h-55v94z" />
<glyph unicode="&#xec;" horiz-adv-x="258" d="M117 504h-101v43h148v-547h-47v504zM-29 766v15h63l113 -140v-16h-27z" />
<glyph unicode="&#xed;" horiz-adv-x="258" d="M117 504h-101v43h148v-547h-47v504zM121 641l113 140h70v-15l-156 -141h-27v16z" />
<glyph unicode="&#xee;" horiz-adv-x="258" d="M117 504h-101v43h148v-547h-47v504zM-25 641l125 140h63l125 -142v-14h-32l-125 129l-125 -129h-31v16z" />
<glyph unicode="&#xef;" horiz-adv-x="258" d="M117 504h-101v43h148v-547h-47v504zM229 719h55v-94h-55v94zM-13 719h55v-94h-55v94z" />
<glyph unicode="&#xf0;" horiz-adv-x="551" d="M199 -8q-35 0 -61.5 13t-44 35.5t-26 53.5t-8.5 66v133q0 59 19.5 106t54.5 80t84 50.5t107 17.5h86v98h-160v43h160v62h47v-62h63v-43h-63v-645h-47v120l-35 -34q-16 -16 -34 -33t-39.5 -30.5t-46.5 -22t-56 -8.5zM207 35q22 0 42 7.5t38.5 19.5t35 27.5t32.5 31.5 l55 54v329h-90q-99 0 -157 -55t-58 -152v-137q0 -26 6 -49t18.5 -40t32 -26.5t45.5 -9.5z" />
<glyph unicode="&#xf1;" horiz-adv-x="578" d="M94 547h47v-120l39 38q10 10 26.5 25.5t38 29.5t46.5 24.5t53 10.5q76 0 108 -44t32 -120v-391h-46v391q0 53 -22.5 87t-75.5 34q-22 0 -44 -10t-42 -25t-39 -33t-35 -34l-39 -38v-372h-47v547zM114 664q6 10 15 23.5t21.5 25.5t27.5 20.5t33 8.5q21 0 42 -12t40.5 -27 t36.5 -27t30 -12q15 0 27.5 7.5t23.5 18.5t20.5 25t18.5 27h7v-39q-6 -10 -15 -23.5t-21.5 -25.5t-27.5 -20.5t-33 -8.5q-19 0 -40 12t-40.5 27t-37.5 27t-31 12q-15 0 -27.5 -7.5t-23.5 -18.5t-20.5 -25t-18.5 -27h-7v39z" />
<glyph unicode="&#xf2;" horiz-adv-x="555" d="M277 -8q-60 0 -102 22t-69 60.5t-39 90.5t-12 112t13 111t40 88t69 58t100 21q60 0 102.5 -21t69.5 -58t39 -88t12 -111t-12 -112t-38 -90.5t-68.5 -60.5t-104.5 -22zM277 35q50 0 83.5 19.5t54 52.5t29.5 77t9 93q0 50 -9 93t-29.5 74.5t-54 49.5t-83.5 18 q-49 0 -83 -18t-54 -49.5t-29 -74.5t-9 -93q0 -49 9 -93t29 -77t54 -52.5t83 -19.5zM117 766v15h63l113 -140v-16h-27z" />
<glyph unicode="&#xf3;" horiz-adv-x="555" d="M277 -8q-60 0 -102 22t-69 60.5t-39 90.5t-12 112t13 111t40 88t69 58t100 21q60 0 102.5 -21t69.5 -58t39 -88t12 -111t-12 -112t-38 -90.5t-68.5 -60.5t-104.5 -22zM277 35q50 0 83.5 19.5t54 52.5t29.5 77t9 93q0 50 -9 93t-29.5 74.5t-54 49.5t-83.5 18 q-49 0 -83 -18t-54 -49.5t-29 -74.5t-9 -93q0 -49 9 -93t29 -77t54 -52.5t83 -19.5zM258 641l113 140h70v-15l-156 -141h-27v16z" />
<glyph unicode="&#xf4;" horiz-adv-x="555" d="M277 -8q-60 0 -102 22t-69 60.5t-39 90.5t-12 112t13 111t40 88t69 58t100 21q60 0 102.5 -21t69.5 -58t39 -88t12 -111t-12 -112t-38 -90.5t-68.5 -60.5t-104.5 -22zM277 35q50 0 83.5 19.5t54 52.5t29.5 77t9 93q0 50 -9 93t-29.5 74.5t-54 49.5t-83.5 18 q-49 0 -83 -18t-54 -49.5t-29 -74.5t-9 -93q0 -49 9 -93t29 -77t54 -52.5t83 -19.5zM121 641l125 140h63l125 -142v-14h-32l-125 129l-125 -129h-31v16z" />
<glyph unicode="&#xf5;" horiz-adv-x="555" d="M277 -8q-60 0 -102 22t-69 60.5t-39 90.5t-12 112t13 111t40 88t69 58t100 21q60 0 102.5 -21t69.5 -58t39 -88t12 -111t-12 -112t-38 -90.5t-68.5 -60.5t-104.5 -22zM277 35q50 0 83.5 19.5t54 52.5t29.5 77t9 93q0 50 -9 93t-29.5 74.5t-54 49.5t-83.5 18 q-49 0 -83 -18t-54 -49.5t-29 -74.5t-9 -93q0 -49 9 -93t29 -77t54 -52.5t83 -19.5zM102 664q6 10 15 23.5t21.5 25.5t27.5 20.5t33 8.5q21 0 42 -12t40.5 -27t36.5 -27t30 -12q15 0 27.5 7.5t23.5 18.5t20.5 25t18.5 27h7v-39q-6 -10 -15 -23.5t-21.5 -25.5t-27.5 -20.5 t-33 -8.5q-19 0 -40 12t-40.5 27t-37.5 27t-31 12q-15 0 -27.5 -7.5t-23.5 -18.5t-20.5 -25t-18.5 -27h-7v39z" />
<glyph unicode="&#xf6;" horiz-adv-x="555" d="M277 -8q-60 0 -102 22t-69 60.5t-39 90.5t-12 112t13 111t40 88t69 58t100 21q60 0 102.5 -21t69.5 -58t39 -88t12 -111t-12 -112t-38 -90.5t-68.5 -60.5t-104.5 -22zM277 35q50 0 83.5 19.5t54 52.5t29.5 77t9 93q0 50 -9 93t-29.5 74.5t-54 49.5t-83.5 18 q-49 0 -83 -18t-54 -49.5t-29 -74.5t-9 -93q0 -49 9 -93t29 -77t54 -52.5t83 -19.5zM375 719h55v-94h-55v94zM133 719h55v-94h-55v94z" />
<glyph unicode="&#xf7;" d="M293 527h39v-39h-39v39zM94 387h437v-39h-437v39zM293 246h39v-39h-39v39z" />
<glyph unicode="&#xf8;" horiz-adv-x="555" d="M452 472q25 -37 36.5 -87t11.5 -108q0 -60 -12 -112t-38 -90.5t-68.5 -60.5t-104.5 -22q-48 0 -84.5 14.5t-62.5 40.5l-36 -47h-39v12l49 65q-26 38 -37.5 89.5t-11.5 110.5q0 60 13 111t40 88t69 58t100 21q50 0 87 -14t63 -39l34 45h39v-12l-48 -63v0zM398 465 q-20 22 -49.5 34.5t-71.5 12.5q-49 0 -83 -18t-54 -49.5t-29 -74.5t-9 -93q0 -46 7 -87.5t25 -73.5zM157 83q21 -23 50.5 -35.5t69.5 -12.5q50 0 83.5 19.5t54 52.5t29.5 77t9 93q0 46 -7 85.5t-24 70.5z" />
<glyph unicode="&#xf9;" horiz-adv-x="574" d="M230 -8q-76 0 -108 44t-32 120v391h47v-391q0 -26 5.5 -48.5t17 -38.5t30 -25t44.5 -9q22 0 44 10t42.5 25t39.5 33t35 34l39 38v372h46v-547h-46v120l-39 -38q-10 -10 -27 -25.5t-38 -29.5t-46.5 -24.5t-53.5 -10.5zM127 766v15h63l113 -140v-16h-27z" />
<glyph unicode="&#xfa;" horiz-adv-x="574" d="M230 -8q-76 0 -108 44t-32 120v391h47v-391q0 -26 5.5 -48.5t17 -38.5t30 -25t44.5 -9q22 0 44 10t42.5 25t39.5 33t35 34l39 38v372h46v-547h-46v120l-39 -38q-10 -10 -27 -25.5t-38 -29.5t-46.5 -24.5t-53.5 -10.5zM268 641l113 140h70v-15l-156 -141h-27v16z" />
<glyph unicode="&#xfb;" horiz-adv-x="574" d="M230 -8q-76 0 -108 44t-32 120v391h47v-391q0 -26 5.5 -48.5t17 -38.5t30 -25t44.5 -9q22 0 44 10t42.5 25t39.5 33t35 34l39 38v372h46v-547h-46v120l-39 -38q-10 -10 -27 -25.5t-38 -29.5t-46.5 -24.5t-53.5 -10.5zM131 641l125 140h63l125 -142v-14h-32l-125 129 l-125 -129h-31v16z" />
<glyph unicode="&#xfc;" horiz-adv-x="574" d="M230 -8q-76 0 -108 44t-32 120v391h47v-391q0 -26 5.5 -48.5t17 -38.5t30 -25t44.5 -9q22 0 44 10t42.5 25t39.5 33t35 34l39 38v372h46v-547h-46v120l-39 -38q-10 -10 -27 -25.5t-38 -29.5t-46.5 -24.5t-53.5 -10.5zM385 719h55v-94h-55v94zM143 719h55v-94h-55v94z" />
<glyph unicode="&#xfd;" horiz-adv-x="574" d="M137 -145h101q56 0 93.5 14t60.5 42t32.5 70t9.5 97v46l-12 -7q-12 -8 -31 -17.5t-41 -17.5t-47 -13.5t-49 -5.5q-82 0 -123 48.5t-41 130.5v305h47v-305q0 -68 28.5 -102.5t96.5 -34.5q22 0 45 5.5t44.5 14t40 18t30.5 17.5l12 7v380h46v-461q0 -66 -13 -117t-42 -86 t-75 -53t-112 -18h-101v43zM268 641l113 140h70v-15l-156 -141h-27v16z" />
<glyph unicode="&#xfe;" horiz-adv-x="551" d="M94 750h47v-323l35 34q16 16 34 33t39.5 30.5t46.5 22t56 8.5q35 0 61 -13t43.5 -36t26.5 -53.5t9 -65.5v-133q0 -58 -19.5 -105t-54.5 -80t-83.5 -51t-107.5 -18h-86v-188h-47v938zM230 43q100 0 157.5 55t57.5 152v137q0 26 -6 49t-18.5 40t-31.5 26.5t-45 9.5 q-22 0 -42 -7.5t-38.5 -19.5t-35.5 -27.5t-33 -31.5l-54 -54v-329h89z" />
<glyph unicode="&#xff;" horiz-adv-x="574" d="M137 -145h101q56 0 93.5 14t60.5 42t32.5 70t9.5 97v46l-12 -7q-12 -8 -31 -17.5t-41 -17.5t-47 -13.5t-49 -5.5q-82 0 -123 48.5t-41 130.5v305h47v-305q0 -68 28.5 -102.5t96.5 -34.5q22 0 45 5.5t44.5 14t40 18t30.5 17.5l12 7v380h46v-461q0 -66 -13 -117t-42 -86 t-75 -53t-112 -18h-101v43zM385 719h55v-94h-55v94zM143 719h55v-94h-55v94z" />
<glyph unicode="&#x131;" horiz-adv-x="258" d="M117 504h-101v43h148v-547h-47v504z" />
<glyph unicode="&#x141;" horiz-adv-x="492" d="M270 0q-89 0 -132.5 42t-43.5 130v170l-74 -41h-8v43l82 45v361h51v-333l234 130h8v-43q-67 -37 -121 -67q-23 -13 -44.5 -25t-38.5 -21.5t-27.5 -15.5l-10.5 -6v-201q0 -121 121 -121h211v-47h-207v0z" />
<glyph unicode="&#x142;" horiz-adv-x="242" d="M102 426l-75 -71h-7v43l82 78v231h-102v43h148v-230l75 70h7v-43l-82 -77v-470h-46v426z" />
<glyph unicode="&#x152;" horiz-adv-x="961" d="M344 0q-78 0 -132.5 27t-89.5 75t-51 113.5t-16 143.5v32q0 78 16 143.5t51 113.5t89.5 75t132.5 27h554v-47h-347v-281h316v-47h-316v-328h347v-47h-554v0zM500 47v656h-156q-67 0 -113 -23.5t-74 -65.5t-40 -99t-12 -124v-32q0 -67 12 -124t40 -99t74 -65.5t113 -23.5 h156z" />
<glyph unicode="&#x153;" horiz-adv-x="887" d="M277 -8q-60 0 -102 22t-69 60.5t-39 90.5t-12 112t13 111t40 88t69 58t100 21q76 0 122.5 -32t70.5 -89q23 57 73.5 89t120.5 32q38 0 71 -9.5t57 -28.5t38 -48t14 -67q0 -36 -12.5 -63t-35 -45t-53.5 -27t-67 -9h-176v-63q0 -76 40 -118t116 -42q42 0 78 11t71 28h8v-39 q-27 -17 -68 -30t-89 -13q-72 0 -120.5 30t-68.5 86q-23 -53 -69 -84.5t-121 -31.5zM680 301q56 0 86.5 22.5t30.5 78.5q0 28 -10.5 49t-28.5 34.5t-42 20t-52 6.5q-79 0 -121.5 -44.5t-42.5 -123.5v-43h180zM277 35q50 0 83.5 19.5t54 52.5t29.5 77t9 93q0 50 -9 93 t-29.5 74.5t-54 49.5t-83.5 18q-49 0 -83 -18t-54 -49.5t-29 -74.5t-9 -93q0 -49 9 -93t29 -77t54 -52.5t83 -19.5z" />
<glyph unicode="&#x160;" horiz-adv-x="551" d="M238 -8q-19 0 -43 2t-49 6t-50 10t-45 13v51h8q15 -6 37.5 -12t48 -11t50 -8.5t43.5 -3.5h35q77 0 124.5 42t47.5 118q0 62 -28 97.5t-81 51.5l-109 31q-38 11 -68.5 25.5t-51.5 36t-32.5 51.5t-11.5 71q0 50 18 86.5t49.5 60.5t74 36t92.5 12h12q19 0 41.5 -2t45 -6 t44 -9t37.5 -11v-46h-8q-13 4 -32.5 9t-41.5 9t-44.5 6.5t-41.5 2.5h-16q-39 0 -72 -8.5t-57 -26.5t-37.5 -46t-13.5 -67q0 -56 30.5 -86.5t75.5 -42.5l109 -32q38 -11 69 -27t53 -40t34 -57.5t12 -78.5q0 -50 -16.5 -88.5t-46.5 -65t-71.5 -40t-91.5 -13.5h-32v0zM148 948 v13h31l125 -129l125 129h32v-15l-125 -141h-63z" />
<glyph unicode="&#x161;" horiz-adv-x="484" d="M223 -8q-13 0 -31.5 1t-39 3t-42 6t-40.5 10v47h8q32 -12 71 -18t74 -6q32 0 60 7t48.5 21.5t32 37.5t11.5 55q0 42 -21 63t-73 35l-78 19q-28 8 -52.5 17t-42.5 24t-28 38t-10 58q0 38 17 65.5t45 45t64 26t74 8.5q23 0 58 -3.5t70 -12.5v-43h-7q-24 6 -59 11t-62 5 q-30 0 -57.5 -5t-48.5 -17t-34 -31.5t-13 -48.5q0 -42 22 -60.5t64 -29.5l78 -19q26 -7 51 -16.5t45 -26t32.5 -41t12.5 -61.5q0 -41 -15 -71.5t-42 -51t-63.5 -31t-78.5 -10.5zM117 768v13h31l125 -129l125 129h32v-15l-125 -141h-63z" />
<glyph unicode="&#x178;" horiz-adv-x="563" d="M258 309l-235 433v8h51l211 -387l207 387h51v-8l-234 -433v-309h-51v309zM379 899h55v-94h-55v94zM137 899h55v-94h-55v94z" />
<glyph unicode="&#x17d;" horiz-adv-x="574" d="M47 39q27 36 63 87.5t75 111.5t79 124.5t75.5 126t64.5 117t45 97.5h-390v47h449v-39q-23 -58 -56.5 -122.5t-71.5 -130t-77.5 -129t-76 -118t-66 -97t-47.5 -67.5h414v-47h-480v39zM131 948v13h31l125 -129l125 129h32v-15l-125 -141h-63z" />
<glyph unicode="&#x17e;" horiz-adv-x="500" d="M55 35q42 53 89.5 117t91.5 128t81.5 123t61.5 101h-309v43h368v-35q-13 -24 -36 -61.5t-52 -81t-61 -90.5t-63.5 -91t-59.5 -81.5t-49 -63.5h328v-43h-390v35zM115 768v13h31l125 -129l125 129h32v-15l-125 -141h-63z" />
<glyph unicode="&#x192;" d="M31 -141h94q74 0 109.5 39t35.5 133v344h-133v47h133v109q0 103 48 161t151 58h82v-47h-82q-38 0 -66 -8t-46.5 -28t-27.5 -53t-9 -83v-109h180v-47h-180v-344q0 -47 -10.5 -87t-34 -69.5t-60.5 -46t-90 -16.5h-94v47z" />
<glyph unicode="&#x2c6;" horiz-adv-x="555" d="M121 641l125 140h63l125 -142v-14h-32l-125 129l-125 -129h-31v16z" />
<glyph unicode="&#x2c7;" horiz-adv-x="555" d="M121 768v13h31l125 -129l125 129h32v-15l-125 -141h-63z" />
<glyph unicode="&#x2d8;" horiz-adv-x="555" d="M277 625q-38 0 -66.5 11.5t-47.5 31t-28.5 45t-9.5 53.5h31q0 -45 34 -73.5t87 -28.5q54 0 87.5 28.5t33.5 73.5h32q0 -28 -9.5 -53.5t-28.5 -45t-48 -31t-67 -11.5z" />
<glyph unicode="&#x2d9;" horiz-adv-x="555" d="M250 719h55v-94h-55v94z" />
<glyph unicode="&#x2da;" horiz-adv-x="555" d="M277 625q-55 0 -84 30.5t-29 71.5t28.5 71t84.5 30t85 -30t29 -71t-29 -71.5t-85 -30.5zM277 648q42 0 62 22t20 57t-20 56.5t-62 21.5q-41 0 -61.5 -21.5t-20.5 -56.5t20.5 -57t61.5 -22z" />
<glyph unicode="&#x2db;" horiz-adv-x="555" d="M301 -188q-42 0 -66 24t-24 59q0 23 12.5 46.5t38.5 35.5h27v-12q-20 -9 -35.5 -25t-15.5 -45q0 -27 18.5 -43t56.5 -16h89v-24h-101v0z" />
<glyph unicode="&#x2dc;" horiz-adv-x="555" d="M102 664q6 10 15 23.5t21.5 25.5t27.5 20.5t33 8.5q21 0 42 -12t40.5 -27t36.5 -27t30 -12q15 0 27.5 7.5t23.5 18.5t20.5 25t18.5 27h7v-39q-6 -10 -15 -23.5t-21.5 -25.5t-27.5 -20.5t-33 -8.5q-19 0 -40 12t-40.5 27t-37.5 27t-31 12q-15 0 -27.5 -7.5t-23.5 -18.5 t-20.5 -25t-18.5 -27h-7v39z" />
<glyph unicode="&#x2dd;" horiz-adv-x="555" d="M281 641l114 140h70v-15l-149 -141h-35v16zM98 641l113 140h70v-15l-148 -141h-35v16z" />
<glyph unicode="&#x3c0;" horiz-adv-x="555" d="M94 492h367v-492h-47v465h-273v-465h-47v492z" />
<glyph unicode="&#x2013;" horiz-adv-x="500" d="M31 387h438v-39h-438v39z" />
<glyph unicode="&#x2014;" horiz-adv-x="1000" d="M31 387h938v-39h-938v39z" />
<glyph unicode="&#x2018;" horiz-adv-x="219" d="M78 578l82 172h31l-58 -219h-55v47z" />
<glyph unicode="&#x2019;" horiz-adv-x="219" d="M86 750h55v-47l-82 -172h-32z" />
<glyph unicode="&#x201a;" horiz-adv-x="219" d="M109 94h55v-47l-82 -172h-31z" />
<glyph unicode="&#x201c;" horiz-adv-x="375" d="M234 578l82 172h32l-59 -219h-55v47zM78 578l82 172h31l-58 -219h-55v47z" />
<glyph unicode="&#x201d;" horiz-adv-x="375" d="M242 750h55v-47l-82 -172h-31zM86 750h55v-47l-82 -172h-32z" />
<glyph unicode="&#x201e;" horiz-adv-x="375" d="M258 94h55v-47l-83 -172h-31zM102 94h54v-47l-82 -172h-31z" />
<glyph unicode="&#x2020;" horiz-adv-x="477" d="M215 504h-152v43h152v203h47v-203h152v-43h-152v-629h-47v629z" />
<glyph unicode="&#x2021;" horiz-adv-x="477" d="M215 78h-152v43h152v383h-152v43h152v203h47v-203h152v-43h-152v-383h152v-43h-152v-203h-47v203z" />
<glyph unicode="&#x2022;" horiz-adv-x="500" d="M250 125q-35 0 -68.5 12t-60 35.5t-42.5 58.5t-16 82t16 82t42.5 58.5t60 35t68.5 11.5t69 -11.5t60.5 -35t42.5 -58.5t16 -82t-16 -82t-42.5 -58.5t-60.5 -35.5t-69 -12z" />
<glyph unicode="&#x2026;" horiz-adv-x="832" d="M668 94h55v-94h-55v94zM387 94h54v-94h-54v94zM109 94h55v-94h-55v94z" />
<glyph unicode="&#x2030;" horiz-adv-x="1320" d="M242 328q-82 0 -130.5 54t-48.5 157t48.5 157t130.5 54q83 0 131.5 -53.5t48.5 -156.5q0 -104 -48.5 -158t-131.5 -54zM266 12l375 738h31v-12l-375 -738h-31v12zM1102 0q-83 0 -131.5 54t-48.5 157t48.5 157t131.5 54q82 0 130.5 -54t48.5 -157q0 -104 -48.5 -157.5 t-130.5 -53.5zM695 0q-82 0 -130.5 54t-48.5 157t48.5 157t130.5 54q83 0 131.5 -54t48.5 -157q0 -104 -48.5 -157.5t-131.5 -53.5zM242 359q29 0 55 10.5t45 32.5t30 56t11 81t-11 81t-30 56t-45 32.5t-55 10.5t-54.5 -10.5t-44.5 -32.5t-30 -56t-11 -81t11 -81t30 -56 t44.5 -32.5t54.5 -10.5zM266 0v12l375 738h31v-12l-375 -738h-31zM1102 31q29 0 54.5 10.5t44.5 32.5t30 56t11 81t-11 81t-30 56t-44.5 32.5t-54.5 10.5q-30 0 -55.5 -10.5t-44.5 -32.5t-30 -56t-11 -81t11 -81t30 -56t44.5 -32.5t55.5 -10.5zM695 31q29 0 55 10.5t45 32.5 t30 56t11 81t-11 81t-30 56t-45 32.5t-55 10.5t-54.5 -10.5t-44.5 -32.5t-30 -56t-11 -81t11 -81t30 -56t44.5 -32.5t54.5 -10.5z" />
<glyph unicode="&#x2039;" horiz-adv-x="336" d="M63 313v46l210 161h8v-43l-172 -141l172 -141v-43h-8z" />
<glyph unicode="&#x203a;" horiz-adv-x="336" d="M55 195l172 141l-172 141v43h8l210 -161v-46l-210 -161h-8v43z" />
<glyph unicode="&#x2044;" horiz-adv-x="8" d="M-203 12l375 738h31v-12l-375 -738h-31v12z" />
<glyph unicode="&#x2122;" horiz-adv-x="703" d="M336 750h27l125 -187l121 187h24v-395h-51v270l-86 -133h-19l-90 133v-270h-51v395zM129 707h-98v43h246v-43h-97v-352h-51v352z" />
<glyph unicode="&#x2126;" horiz-adv-x="691" d="M47 55h156q-31 31 -59 64.5t-49.5 72.5t-34.5 86t-13 105q0 79 23.5 142.5t63.5 108.5t94.5 69t115.5 24q62 0 116.5 -24t95.5 -69t65 -108.5t24 -142.5q0 -58 -12.5 -105t-33.5 -86t-49.5 -72.5t-61.5 -64.5h157v-55h-211v43q37 26 65.5 63.5t47.5 82t29 94t10 100.5 q0 71 -19.5 127t-52.5 94.5t-77 59t-93 20.5t-92.5 -20.5t-76 -59t-51.5 -94.5t-19 -127q0 -51 10 -100.5t29 -94t48 -82t66 -63.5v-43h-211v55z" />
<glyph unicode="&#x2202;" d="M316 -8q-58 0 -102.5 19.5t-74.5 52.5t-45.5 77t-15.5 93q0 47 15 89.5t44 75t71.5 51.5t96.5 19q49 0 93.5 -20t89.5 -58q-4 65 -27.5 123.5t-62 103t-90 71t-113.5 26.5h-66v35h59q94 0 161.5 -37t111.5 -97t65 -134.5t21 -149.5q0 -78 -15.5 -140.5t-44.5 -107 t-72 -68.5t-99 -24zM316 31q89 0 130.5 77t41.5 240q-13 13 -30.5 26.5t-40.5 25t-51 19t-61 7.5q-77 0 -122.5 -51.5t-45.5 -140.5q0 -50 14.5 -88t39 -63.5t57 -38.5t68.5 -13z" />
<glyph unicode="&#x2206;" horiz-adv-x="680" d="M39 23l274 727h62l273 -727v-23h-609v23zM590 39l-246 672l-246 -672h492z" />
<glyph unicode="&#x220f;" horiz-adv-x="656" d="M94 719h469v-719h-55v684h-360v-684h-54v719z" />
<glyph unicode="&#x2211;" horiz-adv-x="559" d="M55 35l207 313l-207 336v35h449v-31h-387l196 -313l-211 -316h402v-59h-449v35z" />
<glyph unicode="&#x2212;" d="M94 387h437v-39h-437v39z" />
<glyph unicode="&#x221a;" d="M20 539v8h39l183 -496l246 668h137v-39h-113l-254 -680h-39z" />
<glyph unicode="&#x221e;" horiz-adv-x="598" d="M133 188q-32 0 -54.5 13.5t-36.5 35.5t-20 50t-6 57t6 57t20 50t36.5 35.5t54.5 13.5q18 0 32.5 -4t29 -13.5t30.5 -26t37 -42.5l31 -39q17 21 38 43.5t43 40.5t44.5 29.5t42.5 11.5q32 0 54.5 -13t36.5 -34.5t20 -49.5t6 -59q0 -29 -6 -57t-20 -50t-36.5 -35.5 t-54.5 -13.5q-35 0 -65.5 18.5t-67.5 63.5l-35 43q-16 -22 -35.5 -44.5t-40.5 -40.5t-42 -29t-42 -11zM461 234q38 0 54 29.5t16 80.5q0 53 -16 81t-54 28q-13 0 -31.5 -9t-38 -23.5t-39 -33.5t-36.5 -39l39 -47q31 -36 57 -51.5t49 -15.5zM133 234q19 0 37.5 9.5t35.5 24.5 t33.5 34t30.5 38l-36 43q-32 38 -55 54t-46 16q-35 0 -52.5 -28t-17.5 -81q0 -54 20.5 -82t49.5 -28z" />
<glyph unicode="&#x222b;" horiz-adv-x="344" d="M-47 -148h86q53 0 75.5 33.5t22.5 83.5v625q0 73 34.5 114.5t101.5 41.5h86v-39h-86q-52 0 -74.5 -33.5t-22.5 -83.5v-625q0 -74 -34.5 -115.5t-102.5 -41.5h-86v40z" />
<glyph unicode="&#x2248;" d="M94 426q14 26 45 48t72 22q26 0 54 -10.5t55 -22.5t52 -22.5t46 -10.5q42 0 65 17t40 49h8v-35q-14 -26 -45 -48t-72 -22q-26 0 -54 10.5t-55 22.5t-52 22.5t-46 10.5q-35 0 -60 -17t-45 -49h-8v35zM94 207q14 26 45 48t72 22q26 0 54 -10.5t55 -22.5t52 -22.5t46 -10.5 q42 0 65 17t40 49h8v-35q-14 -26 -45 -48t-72 -22q-26 0 -54 10.5t-55 22.5t-52 22.5t-46 10.5q-35 0 -60 -17t-45 -49h-8v35z" />
<glyph unicode="&#x2260;" d="M203 105l46 133h-155v39h168l61 180h-229v39h243l50 145h35v-12l-46 -133h155v-39h-169l-61 -180h230v-39h-244l-49 -144h-35v11z" />
<glyph unicode="&#x2264;" d="M94 348v39l429 222h8v-43l-383 -199l383 -199v-43h-8zM94 0h437v-39h-437v39z" />
<glyph unicode="&#x2265;" d="M94 168l383 199l-383 199v43h8l429 -222v-39l-429 -223h-8v43zM94 0h437v-39h-437v39z" />
<glyph unicode="&#x25ca;" horiz-adv-x="703" d="M31 375l321 375l320 -375l-320 -375zM605 375l-253 293l-254 -293l254 -293z" />
<glyph unicode="&#x25fc;" horiz-adv-x="545" d="M0 545h545v-545h-545v545z" />
<glyph unicode="&#xfb01;" horiz-adv-x="570" d="M438 750h46v-78h-46v78zM133 504h-102v43h102v39q0 79 42 121.5t122 42.5h55v-43h-55q-62 0 -89.5 -29.5t-27.5 -91.5v-39h304v-547h-46v504h-258v-504h-47v504z" />
<glyph unicode="&#xfb02;" horiz-adv-x="559" d="M133 504h-102v43h102v39q0 79 42 121.5t122 42.5h168v-750h-47v707h-121q-62 0 -89.5 -29.5t-27.5 -91.5v-39h156v-43h-156v-504h-47v504z" />
</font>
</defs>
</svg>
